<svg xmlns="http://www.w3.org/2000/svg" xmlns:xlink="http://www.w3.org/1999/xlink" width="1666" height="229" viewBox="0 0 1666 229"><defs><clipPath id="b"><rect width="1666" height="229"/></clipPath></defs><g id="a" clip-path="url(#b)"><rect width="1666" height="229" fill="#fff"/><text transform="translate(10 187)" fill="#333" font-size="45" font-family="ArialRoundedMTBold, Arial Rounded MT"><tspan x="0" y="0">CART</tspan></text><text transform="translate(540 187)" fill="#333" font-size="45" font-family="ArialRoundedMTBold, Arial Rounded MT"><tspan x="0" y="0">COSTUMER INFO</tspan></text><path d="M38.21,84.045a8.91,8.91,0,1,1-8.91-8.91,8.91,8.91,0,0,1,8.91,8.91Zm59.4,0a8.91,8.91,0,1,1-8.91-8.91A8.91,8.91,0,0,1,97.609,84.045Zm0-38.609V9.8H26.33a5.94,5.94,0,0,0-5.94-5.94H2.571V9.8h11.88l4.462,38.243A11.878,11.878,0,0,0,26.33,69.2H97.609v-5.94H26.33a5.94,5.94,0,0,1-5.94-5.94c0-.02,0-.04,0-.061L97.609,45.435Z" transform="translate(7.64 21.045)" stroke="#000" stroke-width="4"/><path d="M50.5,50.5A22.25,22.25,0,1,0,28.25,28.25,22.244,22.244,0,0,0,50.5,50.5Zm0,11.125C35.648,61.625,6,69.079,6,83.875V95H95V83.875C95,69.079,65.352,61.625,50.5,61.625Z" transform="translate(677 20)"/><line x2="292" transform="translate(248 78.451)" fill="none" stroke="#000" stroke-width="5"/><line x2="292" transform="translate(914.751 78.451)" fill="none" stroke="#000" stroke-width="5"/><text transform="translate(1252 187)" fill="#333" font-size="45" font-family="ArialRoundedMTBold, Arial Rounded MT"><tspan x="0" y="0">PAYMENT INFO</tspan></text><path d="M81.674,56.474H77.962V36.056A1.856,1.856,0,0,0,76.105,34.2H72.954a5.561,5.561,0,0,0-3.088.935l-3.557,2.371a1.855,1.855,0,0,0-.515,2.573l2.06,3.088a1.855,1.855,0,0,0,2.573.515l.109-.072V56.474H66.824a1.856,1.856,0,0,0-1.856,1.856v3.712A1.856,1.856,0,0,0,66.824,63.9h14.85a1.856,1.856,0,0,0,1.856-1.856V58.331A1.856,1.856,0,0,0,81.674,56.474ZM141.073,4.5H7.425A7.426,7.426,0,0,0,0,11.925V86.174A7.426,7.426,0,0,0,7.425,93.6H141.073a7.426,7.426,0,0,0,7.425-7.425V11.925A7.426,7.426,0,0,0,141.073,4.5ZM11.137,82.462V67.612a14.849,14.849,0,0,1,14.85,14.85Zm0-51.974V15.637h14.85A14.849,14.849,0,0,1,11.137,30.487ZM74.249,75.037c-12.3,0-22.275-11.636-22.275-25.987s9.973-25.987,22.275-25.987S96.524,34.7,96.524,49.049,86.547,75.037,74.249,75.037Zm63.112,7.425h-14.85a14.849,14.849,0,0,1,14.85-14.85Zm0-51.974a14.849,14.849,0,0,1-14.85-14.85h14.85Z" transform="translate(1349.502 20.901)" fill="none" stroke="#000" stroke-width="4"/></g></svg>