<?xml version="1.0" encoding="UTF-8"?><svg id="Layer_3" xmlns="http://www.w3.org/2000/svg" xmlns:xlink="http://www.w3.org/1999/xlink" viewBox="0 0 500 766.961"><defs><style>.cls-1{fill:#fffdfc;}.cls-2,.cls-3{fill:#f6e1ce;}.cls-3{stroke:#efb541;stroke-miterlimit:10;stroke-width:2px;}.cls-4{fill:#efb541;}.cls-5{clip-path:url(#clippath);}.cls-6{fill:none;}</style><clipPath id="clippath"><rect class="cls-6" width="500" height="766.961"/></clipPath></defs><g id="Layer_10"><g class="cls-5"><g><g><path class="cls-1" d="M136.535,185.376c-2.205,0-4.48-.07-6.763-.208-3.189-.194-6.062-.308-8.84-.417-19.656-.779-27.792-1.102-42.144-26.649l-.585-1.04-.922,.757c-4.628,3.8-15.372,4.24-23.051,4.24-3.69,0-7.431-.118-10.73-.222-2.791-.088-5.428-.171-7.625-.171h-.114c-20.721,.001-40.188-12.707-44.387-28.932l-.184-.71-.732-.038c-25.477-1.318-43.944-20.271-43.913-45.065,.028-22.861,18.867-42.275,43.821-45.161l1.053-.122-.183-1.044c-.429-2.44-.645-4.92-.641-7.372C-9.37,6.942,2.98-5.835,29.464-6.992c.604-.026,1.235-.04,1.889-.04,6.862,0,16.684,1.48,22.027,4.729l.924,.562,.774-1.531c5.538-10.957,10.321-20.419,27.925-21.992l.487-.043,.265-.411c9.899-15.357,20.744-25.59,41.491-25.618h.111c21.39,0,33.171,8.447,42.715,17.575l.348,.333,.477-.064c2.015-.271,4.075-.408,6.124-.408,10.052,0,19.9,3.282,27.73,9.242,6.339,4.823,11.002,11.087,13.487,18.117l.439,1.246,1.08-.762c9.264-6.543,20.166-10.146,30.699-10.146,8.228,0,15.896,2.218,22.178,6.416,8.507,5.679,13.858,14.578,15.07,25.058l.124,1.075,1.062-.209c2.495-.49,5.091-.798,7.716-.916,.755-.033,1.51-.049,2.26-.049,27.393,0,49.913,21.408,51.269,48.738,.68,13.7-3.124,25.508-11.001,34.148-7.948,8.72-19.504,13.644-33.418,14.24l-.481,.021-.37,.43c-.358,.493-.217,1.011-.02,1.728,.634,2.309,2.564,9.335-9.284,19.206-8.341,6.948-21.827,11.265-35.196,11.265-4.525,0-8.804-.485-12.717-1.442l-.655-.16-.394,.547c-.973,1.351-2.018,2.631-3.196,3.914-9.142,9.943-22.753,15.646-37.344,15.646-4.855,0-9.693-.63-14.379-1.874l-.707-.188-.393,.617c-12.314,19.316-35.1,23.371-52.046,23.372Z"/><path class="cls-4" d="M125.358-50.336c21.037,0,32.63,8.314,42.024,17.298l.695,.665,.953-.128c1.971-.265,3.987-.399,5.991-.399,9.834,0,19.466,3.21,27.124,9.038,6.183,4.703,10.73,10.808,13.15,17.654l.881,2.492,2.159-1.525c9.097-6.425,19.794-9.963,30.122-9.963,8.029,0,15.506,2.16,21.624,6.247,8.257,5.513,13.454,14.157,14.631,24.341l.249,2.15,2.124-.418c2.444-.481,4.991-.783,7.565-.898,.736-.032,1.482-.048,2.218-.048,12.912,0,25.21,4.914,34.628,13.838,9.444,8.949,15,21.006,15.642,33.95,.667,13.427-3.047,24.985-10.74,33.424-7.766,8.518-19.081,13.33-32.722,13.915-.649,.028-1.238,.342-1.617,.861-.643,.882-.395,1.785-.176,2.582,.592,2.155,2.393,8.714-8.96,18.172-8.168,6.805-21.41,11.033-34.556,11.033-4.445,0-8.644-.475-12.479-1.413l-1.311-.321-.788,1.095c-.948,1.318-1.969,2.567-3.121,3.821-8.954,9.738-22.296,15.324-36.607,15.324-4.77,0-9.521-.619-14.123-1.841l-1.414-.375-.786,1.233c-12.07,18.935-34.507,22.909-51.203,22.909-2.186,0-4.44-.07-6.701-.207-3.2-.194-6.077-.308-8.86-.419-19.262-.764-27.234-1.08-41.312-26.14l-1.168-2.081-1.844,1.514c-4.886,4.012-18.081,4.012-22.417,4.012-3.675,0-7.405-.118-10.697-.221-2.799-.088-5.442-.172-7.656-.172h-.182c-9.669,0-19.488-2.912-27.648-8.198-8.16-5.287-13.737-12.384-15.704-19.984l-.367-1.421-1.465-.076c-12.292-.636-23.354-5.486-31.147-13.656-7.635-8.004-11.832-18.804-11.817-30.409,.028-22.354,18.486-41.342,42.936-44.168l2.107-.244-.367-2.089c-.417-2.379-.628-4.801-.625-7.198,.016-12.116,2.563-21.061,7.789-27.346C5.511-1.493,15.364-5.376,29.506-5.993c.587-.026,1.208-.039,1.845-.039,6.942,0,16.56,1.575,21.509,4.584l1.847,1.123,.977-1.929,.288-.57c5.404-10.689,10.071-19.921,27.121-21.445l.973-.087,.53-.821c9.723-15.082,20.356-25.132,40.652-25.16h.11m0-2h-.113c-21.443,.029-32.488,10.809-42.331,26.076-18.47,1.651-23.366,11.939-29.016,23.104-5.391-3.279-15.289-4.875-22.548-4.875-.668,0-1.314,.014-1.932,.041C-1.705-6.632-10.375,10.48-10.404,33.218c-.003,2.58,.227,5.106,.656,7.547-25.18,2.911-44.676,22.469-44.706,46.152-.031,24.745,18.065,44.679,44.861,46.065,4.361,16.855,24.683,29.681,45.288,29.681h.182c4.785,0,11.541,.393,18.353,.393,9.537,0,19.185-.77,23.686-4.467,16.644,29.628,25.584,25.985,51.795,27.575,2.301,.14,4.575,.21,6.822,.21,22.667,0,42.297-7.218,52.89-23.834,4.806,1.276,9.736,1.908,14.636,1.908,14.329,0,28.373-5.412,38.08-15.97,1.192-1.297,2.278-2.625,3.272-4.006,4.028,.985,8.43,1.47,12.954,1.47,12.885,0,26.764-3.939,35.836-11.496,15.265-12.716,8.52-21.109,9.559-21.153,28.714-1.23,46.798-20.766,45.375-49.436-1.384-27.89-24.562-49.689-52.268-49.689-.765,0-1.533,.017-2.304,.05-2.684,.12-5.309,.432-7.864,.934-1.201-10.38-6.416-19.704-15.508-25.774-6.676-4.461-14.563-6.584-22.734-6.584-10.634,0-21.747,3.6-31.276,10.33-2.464-6.971-7.111-13.472-13.825-18.58-8.33-6.34-18.419-9.446-28.335-9.446-2.1,0-4.191,.139-6.257,.417-10.434-9.979-22.482-17.852-43.406-17.852h0Z"/></g><g><path class="cls-4" d="M157.548,256.976c-4.486,0-9.174-.269-13.933-.798l-.103-.006c-30.526-.25-38.681-8.848-46.566-17.164-7.755-8.177-15.773-16.632-44.181-16.632-5.321,0-11.319,.296-17.83,.881-24.248-1.222-46.348-17.224-50.328-36.454l-.151-.729-.74-.065c-34.125-2.992-48.655-28.657-47.917-52.765,.757-24.712,17.694-51.732,53.096-52.662l1.042-.027-.07-1.04c-1.232-18.175,2.397-31.943,10.787-40.921,7.757-8.3,19.7-12.508,35.5-12.508,.408,0,.813,.002,1.227,.008,7.458,2.754,13.438,4.094,18.277,4.094,8.425,0,12.698-3.948,17.647-8.519,5.826-5.381,12.43-11.48,28.067-13.717l.42-.06,.249-.344c11.937-16.528,24.453-27.535,46.744-27.535,1.129,0,2.295,.029,3.465,.087,24.727,1.216,37.732,11.256,48.104,21.924l.461,.475,.618-.24c4.059-1.576,8.632-2.831,13.596-3.729,4.585,.745,8.496,1.107,11.95,1.107,13.436,0,17.624-5.713,22.475-12.329,4.688-6.395,10.002-13.643,24.921-18.832l.401-.139,.179-.386c8.965-19.417,19.881-33.065,44.013-36.561,4.149-.6,8.188-.903,12.001-.903,18.392,0,30.895,7.136,40.699,14.117l.407,.29,.476-.151c4.389-1.395,9.147-2.102,14.146-2.102,19.324,0,37.985,10.454,45.381,25.422l.599,1.211,.983-.926c11.742-11.053,26.839-17.393,41.419-17.393,6.979,0,13.534,1.438,19.484,4.276l.111,.053,.12,.024c7.681,1.564,11.607,8.483,15.07,14.586,3.272,5.766,6.362,11.211,12.086,11.212h0c1.431,0,2.923-.337,4.562-1.029,4.445-1.014,8.88-1.528,13.183-1.528,33.048,0,55.087,29.719,57.304,58.451,1.738,22.538-8.882,48.557-43.901,53.991l-1.299,.202,.541,1.198c2.334,5.17,2.46,10.165,.373,14.844-7.131,15.997-37.947,25.798-56.359,31.655-3.593,1.143-6.695,2.13-9.099,2.995l-.303,.109-.182,.265c-10.785,15.664-29.561,25.015-50.223,25.016-2.548,0-5.119-.149-7.642-.443l-.725-.084-.302,.663c-9.554,20.979-32.467,33.981-64.519,36.612l-.102,.014c-7.468,1.395-13.873,2.072-19.58,2.072-1.943,0-3.824-.083-5.59-.245l-.296-.027-.263,.138c-14.208,7.494-36.314,10.055-50.943,11.75-3.729,.432-6.951,.806-9.467,1.193l-.317,.049-.23,.225c-10.638,10.423-25.35,16.164-41.427,16.164-6.822,0-13.578-1.051-20.078-3.125l-.694-.222-.423,.593c-11.384,15.946-30.888,24.375-56.403,24.375Z"/><path class="cls-4" d="M330.968-68.513c18.11,0,30.444,7.043,40.12,13.932l.813,.579,.952-.302c4.291-1.364,8.948-2.055,13.843-2.055,18.958,0,37.251,10.225,44.484,24.865l1.196,2.422,1.968-1.852c11.559-10.88,26.405-17.121,40.733-17.121,6.829,0,13.239,1.406,19.055,4.178l.221,.105,.24,.049c7.235,1.474,10.878,7.893,14.401,14.101,3.419,6.026,6.649,11.718,12.955,11.718,1.543,0,3.138-.351,4.869-1.074,4.344-.984,8.675-1.484,12.877-1.484h0c32.464,0,54.119,29.25,56.301,57.528,1.704,22.091-8.712,47.595-43.054,52.925l-2.598,.403,1.081,2.396c2.243,4.968,2.365,9.556,.372,14.025-6.949,15.587-37.498,25.304-55.75,31.109-3.603,1.146-6.713,2.135-9.134,3.007l-.604,.218-.365,.53c-10.599,15.393-29.065,24.583-49.398,24.583-2.509,0-5.041-.147-7.526-.437l-1.447-.169-.604,1.327c-9.396,20.634-32.016,33.43-63.69,36.03l-.102,.008-.102,.019c-7.406,1.383-13.751,2.055-19.396,2.055-1.914,0-3.765-.081-5.499-.241l-.592-.054-.524,.277c-14.043,7.406-36.037,9.955-50.59,11.641-3.741,.433-6.971,.808-9.506,1.198l-.636,.098-.459,.45c-10.45,10.239-24.914,15.878-40.728,15.878-6.72,0-13.372-1.036-19.773-3.078l-1.389-.443-.847,1.186c-11.188,15.672-30.41,23.956-55.588,23.956-4.45,0-9.101-.267-13.822-.792l-.102-.011h-.103c-30.102-.247-38.108-8.688-45.851-16.852-7.9-8.33-16.069-16.943-44.905-16.945-5.328,0-11.332,.296-17.849,.879-11.348-.586-22.695-4.57-31.965-11.225-9.323-6.692-15.49-15.368-17.365-24.43l-.302-1.457-1.482-.13c-33.475-2.935-47.728-28.1-47.004-51.738,.406-13.261,5.321-25.722,13.839-35.088,9.508-10.455,22.746-16.196,38.282-16.604l2.084-.055-.141-2.08c-1.212-17.887,2.327-31.403,10.521-40.17,7.56-8.089,19.258-12.191,34.77-12.191,.347,0,.692,.002,1.041,.006,7.497,2.756,13.539,4.096,18.463,4.096,8.815,0,13.436-4.267,18.327-8.785,5.718-5.282,12.2-11.269,27.529-13.462l.841-.12,.498-.689c11.757-16.279,24.067-27.121,45.934-27.121,1.113,0,2.262,.029,3.416,.086,24.381,1.199,37.207,11.101,47.436,21.623l.923,.95,1.235-.479c3.955-1.536,8.409-2.762,13.244-3.647,4.566,.735,8.475,1.093,11.94,1.093,13.942,0,18.27-5.903,23.281-12.738,4.602-6.278,9.818-13.393,24.443-18.479l.803-.279,.356-.771c8.829-19.121,19.562-32.559,43.248-35.99,4.103-.593,8.092-.893,11.857-.893m0-2c-3.79,0-7.826,.29-12.144,.914-24.862,3.602-35.886,17.874-44.777,37.131-31.109,10.818-21.765,31.105-47.067,31.105-3.329,0-7.259-.352-11.959-1.122-5.233,.937-9.864,2.226-13.949,3.812-11.403-11.73-24.981-21.056-48.772-22.226-1.198-.059-2.367-.088-3.514-.088-22.875,0-35.736,11.584-47.556,27.95-29.365,4.201-27.994,22.226-45.572,22.226-4.506,0-10.259-1.185-18.092-4.091-.477-.007-.943-.011-1.412-.011C-2.963,25.087-13.117,50.295-11.132,79.583c-67.886,1.781-74.373,101.361-5.24,107.422,4.122,19.913,27.188,36.066,51.328,37.254,6.728-.606,12.615-.884,17.81-.884,56.837,.003,29.783,33.298,90.74,33.796,4.77,.531,9.463,.805,14.043,.805,23.997,0,44.876-7.508,57.216-24.794,6.634,2.117,13.535,3.173,20.381,3.173,15.621,0,30.952-5.499,42.127-16.45,12.392-1.908,42.723-3.552,60.725-13.046,1.764,.162,3.652,.249,5.683,.249,5.448,0,11.92-.625,19.763-2.089,29.841-2.449,54.863-14.173,65.347-37.194,2.583,.301,5.174,.45,7.758,.45,20.115,0,39.739-9.027,51.046-25.449,18.316-6.595,79.211-20.825,65.657-50.846,73.276-11.371,48.385-114.431-13.555-114.429-4.324,0-8.829,.502-13.493,1.573-1.582,.679-2.986,.984-4.253,.984-10.89,0-11.562-22.643-26.957-25.779-6.227-2.969-13.001-4.373-19.915-4.373-14.759,0-30.143,6.404-42.104,17.664-8.069-16.332-27.746-25.979-46.277-25.979-4.981,0-9.88,.697-14.448,2.149-11.331-8.068-23.693-14.303-41.28-14.303h0Z"/></g><g><path class="cls-2" d="M157.548,287.583c-4.486,0-9.174-.269-13.933-.798l-.103-.006c-30.526-.25-38.681-8.848-46.566-17.164-7.755-8.177-15.773-16.632-44.181-16.632-5.321,0-11.319,.296-17.83,.881-24.248-1.222-46.348-17.224-50.328-36.454l-.151-.729-.74-.065c-34.125-2.992-48.655-28.657-47.917-52.765,.757-24.712,17.694-51.732,53.096-52.662l1.042-.027-.07-1.04c-1.232-18.177,2.396-31.944,10.786-40.921,7.756-8.299,19.7-12.507,35.502-12.507,.405,0,.813,.003,1.226,.008,7.458,2.754,13.438,4.094,18.277,4.094,8.425,0,12.699-3.948,17.648-8.519,5.825-5.381,12.429-11.48,28.066-13.717l.42-.06,.249-.344c11.937-16.528,24.454-27.535,46.744-27.535,1.129,0,2.295,.029,3.465,.087,24.727,1.216,37.732,11.256,48.104,21.924l.461,.475,.618-.24c4.059-1.576,8.632-2.831,13.596-3.729,4.585,.745,8.496,1.107,11.95,1.107,13.436,0,17.625-5.714,22.475-12.329,4.688-6.395,10.002-13.644,24.921-18.832l.401-.139,.179-.386c8.966-19.417,19.881-33.065,44.013-36.561,4.149-.6,8.188-.903,12.001-.903,18.392,0,30.895,7.136,40.699,14.117l.407,.29,.476-.151c4.389-1.395,9.147-2.102,14.146-2.102,19.324,0,37.985,10.454,45.381,25.422l.599,1.211,.983-.926c11.742-11.053,26.839-17.393,41.419-17.393,6.979,0,13.534,1.438,19.484,4.276l.111,.053,.12,.024c7.681,1.564,11.607,8.483,15.07,14.586,3.272,5.766,6.362,11.211,12.086,11.212h0c1.431,0,2.923-.337,4.562-1.029,4.445-1.014,8.88-1.528,13.183-1.528,33.048,0,55.087,29.719,57.304,58.451,1.738,22.538-8.882,48.557-43.901,53.991l-1.299,.202,.541,1.198c2.334,5.17,2.46,10.165,.373,14.844-7.132,15.997-37.948,25.799-56.36,31.656-3.593,1.142-6.695,2.129-9.098,2.994l-.303,.109-.182,.265c-10.785,15.664-29.561,25.015-50.223,25.016-2.548,0-5.119-.149-7.642-.443l-.725-.084-.302,.663c-9.553,20.979-32.466,33.981-64.519,36.612l-.102,.014c-7.468,1.394-13.873,2.072-19.58,2.072-1.943,0-3.824-.083-5.59-.245l-.296-.027-.263,.138c-14.208,7.495-36.314,10.055-50.942,11.75-3.73,.432-6.952,.806-9.468,1.193l-.317,.049-.23,.225c-10.638,10.423-25.35,16.164-41.427,16.164-6.822,0-13.578-1.051-20.078-3.125l-.694-.222-.423,.593c-11.384,15.946-30.888,24.375-56.403,24.375Z"/><path class="cls-4" d="M330.968-37.906c18.11,0,30.444,7.043,40.12,13.932l.813,.579,.952-.302c4.291-1.364,8.948-2.055,13.843-2.055,18.958,0,37.251,10.225,44.484,24.865l1.196,2.422,1.968-1.852c11.559-10.88,26.405-17.121,40.733-17.121,6.829,0,13.239,1.406,19.055,4.178l.221,.105,.24,.049c7.235,1.474,10.878,7.893,14.401,14.101,3.419,6.026,6.649,11.718,12.955,11.718,1.543,0,3.138-.351,4.869-1.074,4.344-.984,8.675-1.484,12.877-1.484h0c32.464,0,54.119,29.25,56.301,57.528,1.704,22.091-8.712,47.595-43.054,52.925l-2.598,.403,1.081,2.396c2.243,4.968,2.365,9.556,.372,14.025-6.949,15.587-37.498,25.304-55.75,31.109-3.603,1.146-6.713,2.135-9.134,3.007l-.604,.218-.365,.53c-10.599,15.393-29.065,24.583-49.398,24.583-2.509,0-5.041-.147-7.526-.437l-1.447-.169-.604,1.327c-9.396,20.634-32.016,33.43-63.69,36.03l-.103,.008-.101,.019c-7.406,1.383-13.751,2.055-19.396,2.055-1.914,0-3.765-.081-5.499-.241l-.592-.054-.524,.277c-14.043,7.406-36.037,9.954-50.59,11.641-3.741,.433-6.971,.808-9.506,1.198l-.636,.098-.459,.45c-10.45,10.239-24.914,15.878-40.728,15.878-6.719,0-13.372-1.036-19.773-3.078l-1.389-.443-.847,1.186c-11.188,15.672-30.41,23.956-55.588,23.956-4.45,0-9.101-.267-13.822-.792l-.102-.011h-.103c-30.102-.247-38.108-8.688-45.851-16.852-7.9-8.33-16.069-16.943-44.905-16.945-5.328,0-11.332,.296-17.849,.879-11.348-.586-22.695-4.57-31.965-11.225-9.323-6.692-15.49-15.368-17.365-24.43l-.302-1.457-1.482-.13c-33.475-2.935-47.728-28.1-47.004-51.738,.406-13.261,5.321-25.722,13.839-35.088,9.508-10.455,22.746-16.196,38.282-16.604l2.084-.055-.141-2.08c-1.212-17.887,2.327-31.403,10.521-40.17,7.56-8.089,19.258-12.191,34.77-12.191,.347,0,.692,.002,1.041,.006,7.497,2.756,13.539,4.096,18.463,4.096,8.815,0,13.436-4.267,18.327-8.785,5.718-5.282,12.2-11.269,27.529-13.462l.841-.12,.498-.689c11.757-16.279,24.067-27.121,45.934-27.121,1.113,0,2.262,.029,3.416,.086,24.381,1.199,37.207,11.101,47.436,21.623l.923,.95,1.235-.479c3.955-1.536,8.409-2.762,13.244-3.647,4.566,.735,8.475,1.093,11.94,1.093,13.942,0,18.27-5.903,23.281-12.738,4.602-6.278,9.818-13.393,24.443-18.479l.803-.279,.356-.771c8.829-19.121,19.562-32.559,43.248-35.99,4.103-.593,8.092-.893,11.857-.893m0-2c-3.79,0-7.826,.29-12.144,.914-24.862,3.602-35.886,17.874-44.777,37.131-31.109,10.818-21.765,31.105-47.067,31.105-3.329,0-7.259-.352-11.959-1.122-5.233,.937-9.864,2.226-13.949,3.812-11.403-11.729-24.981-21.056-48.772-22.226-1.198-.059-2.367-.088-3.514-.088-22.875,0-35.736,11.584-47.556,27.95-29.365,4.201-27.994,22.226-45.572,22.226-4.506,0-10.259-1.185-18.092-4.091-.477-.007-.943-.011-1.412-.011-39.117,0-49.271,25.208-47.286,54.496-67.886,1.781-74.373,101.361-5.24,107.422,4.122,19.913,27.188,36.066,51.328,37.254,6.728-.606,12.615-.884,17.81-.884,56.837,.003,29.783,33.298,90.74,33.796,4.77,.531,9.463,.805,14.043,.805,23.997,0,44.876-7.508,57.216-24.794,6.634,2.117,13.535,3.173,20.382,3.173,15.62,0,30.951-5.499,42.127-16.45,12.392-1.908,42.723-3.552,60.725-13.046,1.764,.162,3.652,.249,5.683,.249,5.448,0,11.92-.625,19.763-2.089,29.841-2.449,54.863-14.173,65.347-37.194,2.583,.301,5.174,.45,7.758,.45,20.115,0,39.739-9.027,51.046-25.449,18.316-6.595,79.211-20.825,65.657-50.846,73.276-11.371,48.385-114.431-13.555-114.429-4.324,0-8.829,.502-13.493,1.573-1.582,.679-2.986,.984-4.253,.984-10.89,0-11.562-22.643-26.957-25.779-6.227-2.969-13-4.373-19.915-4.373-14.759,0-30.143,6.404-42.104,17.664-8.069-16.332-27.746-25.979-46.277-25.979-4.981,0-9.88,.697-14.448,2.149-11.331-8.068-23.693-14.303-41.28-14.303h0Z"/></g><g><path class="cls-1" d="M95.942,400.181c-15.196,0-27.927-5.292-37.838-15.728l-.563-.594-.693,.436c-7.697,4.843-16.496,7.402-25.445,7.402-10.278,0-20.164-3.348-28.59-9.681l-.277-.208-.347,.008c-2.197,.05-4.981,.236-8.204,.451-5.319,.354-11.939,.795-18.735,.795-28.072,0-41.868-7.895-42.176-24.136l-.024-1.258-1.22,.308c-4.015,1.011-7.968,1.524-11.749,1.524h0c-28.619,0-43.939-28.105-46.063-54.218-2.135-26.255,8.544-54.848,37.209-59.605,.158,.006,.312,.009,.465,.009,7.945-.001,8.411-7.506,8.904-15.452,.428-6.891,.912-14.701,6.277-18.848l.105-.082,.081-.106c6.986-9.232,17.77-14.316,30.364-14.316,7.156,0,14.673,1.712,21.738,4.953l1.399,.641,.018-1.539c.25-21.41,17.795-41.347,37.547-42.665l.568-.038,.257-.508c6.482-12.786,15.335-25.373,36.045-30.856,3.898-1.031,7.693-1.553,11.278-1.553,15.359,0,26.616,9.533,36.494,19.833l.31,.323,.448-.016c.622-.022,1.228-.033,1.823-.033,12.309,0,18.794,4.586,24.516,8.631,4.326,3.06,8.062,5.701,13.336,5.7,4.918,0,10.608-2.384,17.895-7.499,4.081-.895,7.984-1.349,11.607-1.349,21.349,0,34.641,15.333,39.507,45.572l.16,.998,.997-.171c2.656-.457,5.317-.688,7.909-.688,15.984,0,26.992,8.486,33.413,15.605l.516,.571,.684-.352c5.978-3.076,13.015-4.701,20.352-4.701,6.732,0,13.747,1.382,20.286,3.997l1.283,.513,.086-1.379c.489-7.831,3.294-15.432,8.113-21.982,7.208-9.817,18.249-16.275,30.293-17.719l.499-.06,.25-.437c6.747-11.787,15.851-23.451,36.59-28.942,4.27-1.133,8.396-1.707,12.269-1.707,14.754,0,25.432,8.249,34.773,17.163l.362,.345,.494-.083c2.314-.389,4.534-.586,6.595-.586,12.819,0,19.087,7.334,26.344,15.826l1.182,1.382,.763-.835c4.406-4.826,14.553-9.345,21.816-10.926,4.686-1.02,9.089-1.536,13.089-1.536,18.212,0,29.464,10.361,35.41,32.607,.676,2.501,1.145,5.093,1.395,7.706l.099,1.041,1.035-.145c2.374-.332,4.787-.5,7.173-.5,22.373,0,41.888,14.534,47.458,35.343,6.786,25.318-5.903,49.427-30.174,57.327l-.705,.229,.015,.742c.36,17.673-15.018,35.672-35.01,40.976-2.154,.57-4.731,1.349-7.459,2.172-8.548,2.583-19.187,5.796-27.048,5.796-2.763,0-4.999-.407-6.646-1.21l-1.128-.55-.284,1.222c-6.925,29.771-14.696,32.194-33.472,38.047-2.652,.827-5.396,1.682-8.422,2.7-9.668,3.251-18.938,4.899-27.554,4.899-14.37,0-26.332-4.511-35.554-13.407l-.548-.528-.655,.387c-8.164,4.825-17.415,7.375-26.753,7.375-9.762,0-19.078-2.806-26.942-8.116-1.55-1.052-2.909-2.091-4.152-3.174l-.532-.464-.616,.347c-7.684,4.328-17.797,6.811-27.745,6.811-7.935,0-15.261-1.555-21.188-4.498-14.176-7.041-14.218-14.749-14.23-17.282-.004-.726-.011-1.942-1.169-1.942h-.11l-.139,.028c-3.995,.873-7.958,1.316-11.774,1.316-11.137,0-21.149-3.759-28.956-10.87l-.332-.302-.446,.047c-35.854,3.762-41.562,15.032-47.08,25.932-4.781,9.443-9.726,19.208-35.107,24.642l-.06,.013-.057,.02c-9.014,3.097-17.733,4.668-25.919,4.668Z"/><path class="cls-4" d="M66.272,126.319c14.985,0,26.048,9.385,35.771,19.526l.62,.646,.895-.032c.608-.022,1.199-.032,1.788-.032,11.991,0,18.339,4.489,23.939,8.448,4.279,3.026,8.321,5.884,13.912,5.884,5.095,0,10.918-2.405,18.304-7.565,3.94-.852,7.707-1.283,11.199-1.283,20.784,0,33.744,15.05,38.52,44.731l.321,1.996,1.993-.343c2.601-.447,5.205-.674,7.74-.674,15.617,0,26.386,8.307,32.67,15.275l1.031,1.143,1.369-.704c5.836-3.003,12.716-4.59,19.894-4.59,6.607,0,13.494,1.357,19.915,3.925l2.567,1.027,.172-2.759c.476-7.638,3.214-15.055,7.92-21.453,7.045-9.594,17.836-15.906,29.606-17.316l.998-.12,.499-.873c6.64-11.598,15.594-23.076,35.979-28.473,4.186-1.111,8.227-1.674,12.012-1.673,14.402,0,24.893,8.116,34.083,16.886l.725,.691,.987-.166c2.261-.38,4.424-.572,6.43-.572,12.358,0,18.487,7.171,25.583,15.475l.447,.522,1.471,1.72,1.525-1.671c4.272-4.679,14.18-9.076,21.29-10.623,4.617-1.005,8.95-1.514,12.877-1.514,17.688,.001,28.634,10.127,34.445,31.872,.661,2.444,1.119,4.98,1.363,7.538l.199,2.08,2.069-.29c2.328-.326,4.694-.491,7.034-.491,21.921,0,41.039,14.229,46.492,34.602,3.185,11.88,2.063,24.019-3.155,34.182-5.311,10.34-14.673,18.13-26.362,21.934l-1.411,.459,.03,1.483c.17,8.304-3.303,17.016-9.777,24.531-6.454,7.491-15.151,12.981-24.487,15.458-2.172,.574-4.756,1.355-7.492,2.182-8.485,2.564-19.046,5.754-26.76,5.754-2.609,0-4.698-.373-6.209-1.109l-2.256-1.1-.568,2.444c-6.794,29.213-14.405,31.586-32.794,37.319-2.658,.828-5.406,1.685-8.444,2.706-9.564,3.216-18.727,4.847-27.234,4.847-14.103,0-25.831-4.417-34.859-13.127l-1.096-1.057-1.311,.775c-8.01,4.734-17.085,7.237-26.244,7.237-9.562,0-18.685-2.747-26.379-7.942-1.519-1.031-2.847-2.045-4.059-3.102l-1.065-.928-1.23,.693c-7.539,4.247-17.473,6.682-27.255,6.682-7.781,0-14.953-1.519-20.742-4.393-13.623-6.766-13.663-14.011-13.676-16.391-.01-1.949-.74-2.937-2.168-2.937l-.247,.004-.211,.046c-3.93,.859-7.821,1.294-11.565,1.294-10.883,0-20.663-3.669-28.284-10.609l-.663-.604-.892,.094c-36.396,3.818-42.228,15.336-47.868,26.475-4.891,9.659-9.51,18.782-34.425,24.116l-.118,.025-.114,.039c-8.909,3.061-17.52,4.614-25.594,4.614-14.912,0-27.398-5.187-37.113-15.416l-1.128-1.188-1.387,.873c-7.537,4.742-16.151,7.248-24.912,7.248-10.06,0-19.738-3.278-27.989-9.48l-.554-.417-.693,.016c-2.22,.051-5.014,.237-8.249,.453-5.304,.353-11.906,.793-18.668,.793-12.261,0-21.496-1.445-28.233-4.418-8.542-3.769-12.775-9.898-12.942-18.736l-.047-2.516-2.441,.615c-3.934,.991-7.805,1.494-11.505,1.494-12.411,0-23.339-5.628-31.603-16.275-7.529-9.701-12.311-22.849-13.464-37.023-2.096-25.768,8.313-53.82,36.278-58.522,.135,.004,.268,.006,.399,.006,8.885,0,9.426-8.707,9.902-16.389,.435-7.005,.884-14.249,5.891-18.119l.211-.163,.161-.213c6.794-8.977,17.294-13.921,29.567-13.92,7.014,0,14.387,1.681,21.322,4.861l2.797,1.283,.036-3.078c.121-10.357,4.225-20.51,11.557-28.589,7.011-7.724,16.143-12.495,25.056-13.089l1.136-.076,.515-1.015c6.378-12.578,15.082-24.96,35.408-30.342,3.816-1.008,7.525-1.52,11.023-1.52m0-2c-3.616,0-7.441,.504-11.534,1.586-20.291,5.373-29.591,17.388-36.681,31.372-19.37,1.292-38.213,20.8-38.48,43.65-7.333-3.362-14.917-5.043-22.156-5.043-12.371,0-23.74,4.906-31.162,14.713-11.948,9.235-1.122,34.09-14.57,34.09-.172,0-.346-.004-.526-.012-57.9,9.483-46.61,115.826,8.917,115.826,3.794,0,7.794-.496,11.994-1.554,.402,21.253,22.899,25.117,43.175,25.117,10.878,0,21.116-1.112,26.963-1.246,8.879,6.675,19.081,9.881,29.19,9.881,9.073,0,18.071-2.582,25.977-7.556,10.579,11.14,24.009,16.039,38.563,16.039,8.48,0,17.34-1.662,26.244-4.722,55.111-11.797,15.577-43.58,82.083-50.557,7.931,7.223,18.118,11.131,29.63,11.131,3.86,0,7.869-.439,11.992-1.34,.011-.002,.021-.004,.031-.004,.896,0-3.061,10.171,14.955,19.119,6.336,3.146,13.929,4.602,21.632,4.602,10.072,0,20.333-2.488,28.237-6.94,1.335,1.163,2.747,2.229,4.25,3.249,8.301,5.604,17.882,8.287,27.502,8.287,9.437,0,18.912-2.58,27.262-7.515,9.846,9.498,22.446,13.687,36.248,13.687,8.928,0,18.356-1.751,27.872-4.952,24.895-8.369,34.522-6.957,42.549-41.468,1.902,.927,4.332,1.312,7.085,1.312,10.587,0,25.979-5.679,34.764-8.002,19.931-5.288,36.127-23.62,35.753-41.962,25.522-8.307,37.593-33.308,30.83-58.536-5.833-21.793-26.068-36.083-48.424-36.084-2.418,0-4.859,.167-7.312,.51-.248-2.6-.713-5.24-1.424-7.87-5.209-19.487-15.241-33.348-36.376-33.35-4.02,0-8.436,.501-13.302,1.559-7.169,1.56-17.623,6.061-22.342,11.229-7.362-8.609-13.995-16.697-27.55-16.697-2.081,0-4.325,.191-6.761,.6-10.71-10.219-21.379-17.439-35.464-17.439-3.891,0-8.039,.55-12.524,1.74-20.301,5.375-29.822,16.521-37.202,29.413-11.854,1.421-23.311,7.674-30.98,18.119-5.098,6.93-7.822,14.769-8.305,22.512-6.792-2.716-13.843-4.068-20.657-4.068-7.433,0-14.583,1.609-20.809,4.812-8.656-9.598-20.336-15.935-34.156-15.936-2.619,0-5.312,.227-8.079,.703-4.113-25.56-15.435-46.412-40.494-46.413-3.7,0-7.699,.454-12.019,1.416-7.723,5.446-13.122,7.432-17.484,7.432-11.723,0-15.979-14.33-37.851-14.332-.607,0-1.225,.011-1.859,.034-11.318-11.803-22.519-20.141-37.215-20.141h0Z"/></g><g><path class="cls-4" d="M132.431,528.912c-2.198,0-4.465-.069-6.737-.207h-.103c-1.814,.076-3.584,.115-5.261,.115-21.733,0-28.51-6.49-35.063-12.766-6.428-6.156-13.075-12.522-32.98-12.522-5.97,0-12.732,.547-20.674,1.671-20.689-.027-40.124-12.729-44.312-28.94l-.186-.722-.745-.027c-29.12-1.083-42.568-22.356-42.979-42.96-.422-21.133,12.811-44.935,42.859-47.254l1.038-.08-.122-1.034c-1.841-15.616,.714-27.6,7.593-35.619,6.395-7.455,16.638-11.498,30.448-12.019,5.877,1.845,10.64,2.743,14.555,2.743,8.083,0,11.755-3.769,16.007-8.133,4.72-4.843,10.068-10.333,23.257-12.914l.417-.082,.23-.357c9.909-15.353,20.758-25.583,41.491-25.613,21.5,0,33.284,8.451,42.827,17.583l.362,.347,.495-.083c1.985-.333,4.061-.503,6.167-.503,18.054,0,36.122,12.051,41.136,27.437l.421,1.29,1.107-.783c5.033-3.558,10.491-6.235,16.221-7.959l.643-.193,.064-.668c1.713-17.765,13.91-39.299,42.652-41.519l1.038-.08-.122-1.034c-1.846-15.613,.705-27.596,7.582-35.616,6.394-7.457,16.637-11.501,30.449-12.021,5.881,1.847,10.646,2.746,14.562,2.746,8.082,0,11.754-3.769,16.005-8.133,4.72-4.845,10.068-10.335,23.261-12.917l.417-.082,.231-.357c9.899-15.354,20.744-25.583,41.49-25.602h.117c21.381,0,33.163,8.446,42.711,17.573l.362,.347,.495-.083c1.982-.333,4.056-.502,6.161-.502,18.048,0,36.115,12.051,41.131,27.436l.421,1.289,1.107-.782c9.265-6.543,20.169-10.146,30.704-10.146,8.228,0,15.895,2.217,22.174,6.411l.103,.068,.115,.042c6.24,2.239,8.708,8.557,10.885,14.131,2.24,5.737,4.356,11.156,10.141,11.157h.002c.883,0,1.842-.135,2.852-.4,1.463-.121,2.929-.182,4.359-.182,30.01,0,48.103,26.938,48.256,52.979,.12,20.194-11.228,43.911-43.599,44.293l-1.312,.016,.363,1.261c1.357,4.709,.873,8.816-1.482,12.558-7.951,12.632-35.107,17.194-51.333,19.92-3.172,.533-5.911,.993-8.047,1.436l-.315,.065-.218,.238c-9.135,9.949-22.744,15.656-37.337,15.656-4.856,0-9.694-.631-14.38-1.876l-.707-.188-.393,.617c-12.32,19.322-35.104,23.378-52.049,23.378-2.208,0-4.484-.07-6.768-.208h-.103c-1.817,.076-3.59,.115-5.27,.115-21.726,0-28.5-6.489-35.052-12.765-5.884-5.636-11.968-11.463-28.2-12.391l-1.159-.066,.106,1.156c1.287,13.961-2.575,27.071-10.595,35.968-7.68,8.52-19.005,13.109-32.751,13.271l-1.312,.016,.363,1.261c1.357,4.708,.873,8.816-1.482,12.558-7.95,12.631-35.106,17.194-51.332,19.92-3.172,.533-5.912,.993-8.048,1.436l-.315,.065-.218,.237c-9.143,9.95-22.754,15.656-37.343,15.657-4.856,0-9.696-.631-14.384-1.876l-.707-.188-.394,.617c-12.309,19.32-35.109,23.375-52.068,23.375Z"/><path class="cls-4" d="M408.292,195.043c21.027,0,32.622,8.313,42.02,17.296l.725,.693,.988-.166c1.929-.324,3.945-.488,5.995-.488,8.352,0,17.049,2.645,24.489,7.449,7.678,4.957,13.251,11.81,15.692,19.297l.84,2.578,2.215-1.564c9.098-6.425,19.798-9.963,30.129-9.963,8.028,0,15.504,2.159,21.617,6.243l.205,.136,.23,.083c5.812,2.086,8.089,7.916,10.291,13.554,2.265,5.798,4.605,11.793,11.072,11.793,.944,0,1.96-.138,3.021-.411,1.406-.114,2.815-.171,4.195-.171,17.485,0,28.51,8.941,34.679,16.441,7.912,9.619,12.494,22.575,12.571,35.544,.068,11.645-3.533,22.246-10.143,29.85-7.5,8.629-18.727,13.275-32.466,13.437l-2.626,.031,.728,2.523c1.274,4.419,.827,8.262-1.367,11.748-7.713,12.252-34.592,16.769-50.652,19.467-3.182,.535-5.93,.996-8.084,1.443l-.632,.131-.437,.475c-8.946,9.744-22.286,15.332-36.6,15.332-4.771,0-9.522-.62-14.123-1.843l-1.414-.376-.786,1.233c-12.077,18.94-34.511,22.916-51.205,22.916-2.188,0-4.443-.07-6.707-.207l-.103-.006-.104,.004c-1.803,.076-3.561,.115-5.226,.115-21.324,0-27.656-6.065-34.361-12.487-6.014-5.761-12.233-11.718-28.834-12.667l-2.319-.133,.214,2.313c1.261,13.684-2.509,26.516-10.342,35.207-7.488,8.307-18.561,12.782-32.021,12.94l-2.626,.031,.728,2.523c1.274,4.419,.827,8.262-1.368,11.748-7.712,12.252-34.591,16.769-50.651,19.467-3.182,.535-5.93,.996-8.084,1.443l-.631,.131-.436,.474c-8.954,9.744-22.297,15.333-36.606,15.333-4.771,0-9.524-.62-14.128-1.843l-1.414-.376-.787,1.234c-12.065,18.938-34.516,22.913-51.225,22.913-2.179,0-4.425-.069-6.677-.205l-.103-.006-.103,.004c-1.798,.076-3.554,.115-5.219,.115-21.331,0-27.665-6.066-34.371-12.487-6.571-6.292-13.365-12.799-33.672-12.8-5.997,0-12.783,.546-20.744,1.671-9.646-.018-19.432-2.928-27.568-8.198-8.164-5.288-13.741-12.388-15.705-19.992l-.373-1.443-1.489-.055c-28.468-1.058-41.615-21.847-42.017-41.98-.225-11.308,3.404-22.128,10.221-30.467,7.604-9.302,18.571-14.756,31.716-15.77l2.076-.16-.244-2.068c-1.806-15.328,.67-27.053,7.359-34.851,6.18-7.204,16.122-11.127,29.555-11.663,5.9,1.841,10.707,2.736,14.688,2.736,8.505,0,12.497-4.097,16.724-8.435,4.617-4.739,9.851-10.109,22.732-12.63l.834-.163,.461-.715c9.732-15.078,20.37-25.126,40.65-25.155h.08c21.07,0,32.665,8.317,42.057,17.305l.725,.694,.99-.166c1.93-.324,3.95-.489,6.002-.489,8.355,0,17.054,2.645,24.494,7.447,7.678,4.956,13.25,11.81,15.691,19.299l.841,2.579,2.215-1.566c4.944-3.495,10.304-6.125,15.932-7.818l1.286-.387,.129-1.336c.991-10.28,5.217-19.867,11.901-26.998,7.481-7.981,17.797-12.69,29.832-13.62l2.077-.16-.244-2.069c-1.812-15.324,.661-27.049,7.348-34.848,6.178-7.205,16.121-11.129,29.556-11.666,5.903,1.843,10.714,2.74,14.696,2.74,8.504,0,12.496-4.097,16.722-8.435,4.617-4.74,9.85-10.112,22.735-12.633l.836-.164,.461-.715c9.723-15.079,20.356-25.125,40.654-25.144h.114m0-2h-.119c-21.45,.02-32.49,10.8-42.33,26.06-25.49,4.987-22.79,21.031-39.073,21.031-3.666,0-8.298-.814-14.427-2.751-34.37,1.22-42.15,23.47-39.16,48.76-26.93,2.08-41.58,21.77-43.57,42.42-5.75,1.73-11.36,4.46-16.51,8.1-5.473-16.792-24.521-28.126-42.087-28.126-2.143,0-4.263,.169-6.333,.516-10.437-9.988-22.487-17.86-43.44-17.86h-.08c-21.44,.03-32.48,10.81-42.33,26.07-25.484,4.988-22.788,21.028-39.072,21.028-3.665,0-8.293-.813-14.418-2.748-34.37,1.22-42.15,23.47-39.17,48.76-57.79,4.46-59.04,90.01,.16,92.21,4.357,16.868,24.687,29.69,45.301,29.69h.048c8.192-1.162,14.95-1.671,20.604-1.671,39.848,.002,24.689,25.287,68.043,25.287,1.678,0,3.444-.038,5.303-.117,2.292,.138,4.559,.209,6.798,.209,22.677,0,42.318-7.21,52.912-23.838,4.807,1.277,9.74,1.91,14.641,1.91,14.328,0,28.37-5.414,38.079-15.98,16.27-3.37,69.44-8.05,61.62-35.17,33.19-.39,46.62-25.48,44.33-50.33,33.956,1.941,21.78,25.157,63.31,25.157,1.68,0,3.448-.038,5.311-.117,2.304,.14,4.579,.211,6.828,.211,22.67,0,42.294-7.22,52.892-23.841,4.805,1.277,9.736,1.91,14.637,1.91,14.327,0,28.372-5.414,38.073-15.98,16.271-3.37,69.44-8.05,61.62-35.17,66.04-.78,53.852-99.277-4.669-99.272-1.479,0-2.993,.063-4.531,.192-.983,.266-1.872,.39-2.682,.39-10.404,0-7.605-20.535-20.688-25.23-6.673-4.457-14.559-6.58-22.729-6.58-10.636,0-21.751,3.599-31.281,10.33-5.473-16.785-24.523-28.126-42.083-28.126-2.139,0-4.259,.169-6.326,.516-10.441-9.981-22.484-17.85-43.401-17.85h0Z"/></g><g><path class="cls-2" d="M135.962,561.51c-2.197,0-4.465-.069-6.737-.207h-.103c-1.813,.076-3.584,.115-5.261,.115-21.732,0-28.509-6.49-35.062-12.766-6.428-6.156-13.075-12.522-32.981-12.522-5.969,0-12.732,.547-20.674,1.671-20.689-.027-40.123-12.729-44.312-28.94l-.186-.722-.745-.027c-29.12-1.083-42.568-22.356-42.979-42.96-.422-21.133,12.811-44.935,42.859-47.254l1.038-.08-.122-1.034c-1.84-15.617,.715-27.601,7.594-35.62,6.395-7.455,16.638-11.498,30.447-12.018,5.877,1.845,10.64,2.743,14.555,2.743,8.083,0,11.755-3.769,16.008-8.133,4.719-4.843,10.067-10.333,23.256-12.914l.417-.082,.23-.357c9.909-15.353,20.758-25.583,41.491-25.612,21.502,0,33.285,8.45,42.827,17.583l.362,.347,.495-.083c1.985-.333,4.061-.503,6.168-.503,18.053,0,36.122,12.052,41.136,27.437l.421,1.29,1.107-.783c5.031-3.557,10.489-6.234,16.221-7.959l.643-.193,.064-.668c1.713-17.765,13.91-39.299,42.651-41.519l1.038-.08-.122-1.034c-1.846-15.614,.705-27.597,7.583-35.617,6.394-7.456,16.636-11.5,30.448-12.02,5.881,1.847,10.646,2.746,14.562,2.746,8.082,0,11.754-3.769,16.005-8.133,4.72-4.845,10.068-10.336,23.261-12.917l.417-.082,.231-.357c9.899-15.354,20.744-25.583,41.49-25.602h.117c21.381,0,33.163,8.446,42.711,17.573l.362,.347,.495-.083c1.982-.333,4.056-.502,6.16-.502,18.049,0,36.116,12.051,41.132,27.436l.421,1.289,1.107-.782c9.265-6.543,20.169-10.146,30.704-10.146,8.228,0,15.895,2.217,22.174,6.411l.103,.068,.115,.042c6.24,2.239,8.708,8.557,10.885,14.131,2.24,5.737,4.357,11.156,10.141,11.157h.002c.883,0,1.842-.135,2.852-.4,1.463-.121,2.929-.182,4.359-.182,30.011,0,48.103,26.937,48.257,52.979,.119,20.194-11.228,43.911-43.6,44.293l-1.312,.016,.363,1.262c1.357,4.708,.873,8.815-1.482,12.557-7.95,12.631-35.106,17.194-51.332,19.92-3.172,.533-5.912,.994-8.048,1.436l-.315,.065-.218,.237c-9.136,9.949-22.744,15.655-37.337,15.656-4.856,0-9.694-.631-14.38-1.876l-.707-.188-.393,.617c-12.32,19.321-35.104,23.378-52.047,23.378-2.208,0-4.485-.07-6.77-.209h-.103c-1.817,.076-3.59,.115-5.27,.115-21.726,0-28.5-6.489-35.052-12.765-5.884-5.636-11.968-11.463-28.2-12.391l-1.159-.066,.106,1.156c1.287,13.961-2.575,27.071-10.595,35.968-7.68,8.52-19.005,13.109-32.751,13.27l-1.312,.016,.363,1.261c1.357,4.709,.873,8.816-1.482,12.558-7.951,12.632-35.107,17.194-51.332,19.92-3.172,.533-5.911,.993-8.047,1.436l-.315,.065-.218,.237c-9.143,9.95-22.754,15.656-37.344,15.657-4.856,0-9.696-.631-14.384-1.876l-.707-.188-.394,.617c-12.309,19.32-35.108,23.375-52.068,23.375Z"/><path class="cls-4" d="M411.823,227.641c21.027,0,32.622,8.313,42.02,17.296l.725,.693,.988-.166c1.929-.324,3.945-.488,5.995-.488,8.352,0,17.049,2.645,24.489,7.449,7.678,4.957,13.251,11.81,15.692,19.297l.84,2.578,2.215-1.564c9.098-6.425,19.798-9.963,30.129-9.963,8.028,0,15.504,2.159,21.617,6.243l.205,.136,.23,.083c5.812,2.086,8.089,7.916,10.291,13.554,2.265,5.798,4.605,11.793,11.072,11.793,.944,0,1.96-.138,3.021-.411,1.406-.114,2.815-.171,4.195-.171,17.485,0,28.51,8.941,34.679,16.441,7.912,9.619,12.494,22.575,12.571,35.544,.068,11.645-3.533,22.246-10.143,29.85-7.5,8.629-18.727,13.275-32.466,13.437l-2.626,.031,.728,2.523c1.274,4.419,.827,8.262-1.367,11.748-7.713,12.252-34.592,16.769-50.652,19.467-3.182,.535-5.93,.996-8.084,1.443l-.632,.131-.437,.475c-8.946,9.744-22.286,15.332-36.6,15.332-4.771,0-9.522-.62-14.123-1.843l-1.414-.376-.786,1.233c-12.077,18.94-34.511,22.916-51.205,22.916-2.188,0-4.443-.07-6.707-.207l-.103-.006-.104,.004c-1.803,.076-3.561,.115-5.226,.115-21.324,0-27.656-6.065-34.361-12.487-6.014-5.761-12.233-11.718-28.834-12.667l-2.319-.133,.214,2.313c1.261,13.684-2.509,26.516-10.342,35.207-7.488,8.307-18.561,12.782-32.021,12.94l-2.626,.031,.728,2.523c1.274,4.419,.827,8.262-1.368,11.748-7.712,12.252-34.591,16.769-50.651,19.467-3.182,.535-5.93,.996-8.084,1.443l-.631,.131-.436,.474c-8.954,9.744-22.297,15.333-36.606,15.333-4.771,0-9.524-.62-14.128-1.843l-1.414-.376-.787,1.234c-12.065,18.938-34.516,22.913-51.225,22.913-2.179,0-4.425-.069-6.677-.205l-.103-.006-.103,.004c-1.798,.076-3.554,.115-5.219,.115-21.331,0-27.665-6.066-34.371-12.487-6.571-6.292-13.365-12.799-33.672-12.8-5.997,0-12.783,.546-20.744,1.671-9.646-.018-19.432-2.928-27.568-8.198-8.164-5.288-13.741-12.388-15.705-19.992l-.373-1.443-1.489-.055c-28.468-1.058-41.615-21.847-42.017-41.98-.225-11.308,3.404-22.128,10.221-30.467,7.604-9.302,18.571-14.756,31.716-15.77l2.076-.16-.244-2.068c-1.806-15.328,.67-27.053,7.359-34.851,6.18-7.204,16.122-11.127,29.555-11.663,5.9,1.841,10.707,2.736,14.688,2.736,8.505,0,12.497-4.097,16.724-8.435,4.617-4.739,9.851-10.109,22.732-12.63l.834-.163,.461-.715c9.732-15.078,20.37-25.126,40.65-25.155h.08c21.07,0,32.665,8.317,42.057,17.305l.725,.694,.99-.166c1.93-.324,3.95-.489,6.002-.489,8.355,0,17.054,2.645,24.494,7.447,7.678,4.956,13.25,11.81,15.691,19.299l.841,2.579,2.215-1.566c4.944-3.495,10.304-6.125,15.932-7.818l1.286-.387,.129-1.336c.991-10.28,5.217-19.867,11.901-26.998,7.481-7.981,17.797-12.69,29.832-13.62l2.077-.16-.244-2.069c-1.812-15.324,.661-27.049,7.348-34.848,6.178-7.205,16.121-11.129,29.556-11.666,5.903,1.843,10.714,2.74,14.696,2.74,8.504,0,12.496-4.097,16.722-8.435,4.617-4.74,9.85-10.112,22.735-12.633l.836-.164,.461-.715c9.723-15.079,20.356-25.125,40.654-25.144h.114m0-2h-.119c-21.45,.02-32.49,10.8-42.33,26.06-25.49,4.987-22.79,21.031-39.073,21.031-3.666,0-8.298-.814-14.427-2.751-34.37,1.22-42.15,23.47-39.16,48.76-26.93,2.08-41.58,21.77-43.57,42.42-5.75,1.73-11.36,4.46-16.51,8.1-5.473-16.792-24.521-28.126-42.087-28.126-2.143,0-4.263,.169-6.333,.516-10.437-9.988-22.487-17.86-43.44-17.86h-.08c-21.44,.03-32.48,10.81-42.33,26.07-25.484,4.988-22.788,21.028-39.072,21.028-3.665,0-8.293-.813-14.418-2.748-34.37,1.22-42.15,23.47-39.17,48.76-57.79,4.46-59.04,90.01,.16,92.21,4.357,16.868,24.687,29.69,45.301,29.69h.048c8.192-1.162,14.95-1.671,20.604-1.671,39.848,.002,24.689,25.287,68.043,25.287,1.678,0,3.444-.038,5.303-.117,2.292,.138,4.559,.209,6.798,.209,22.677,0,42.318-7.21,52.912-23.838,4.807,1.277,9.74,1.91,14.641,1.91,14.328,0,28.37-5.414,38.079-15.98,16.27-3.37,69.44-8.05,61.62-35.17,33.19-.39,46.62-25.48,44.33-50.33,33.956,1.941,21.78,25.157,63.31,25.157,1.68,0,3.448-.038,5.311-.117,2.304,.14,4.579,.211,6.828,.211,22.67,0,42.294-7.22,52.892-23.841,4.805,1.277,9.736,1.91,14.637,1.91,14.327,0,28.372-5.414,38.073-15.98,16.271-3.37,69.44-8.05,61.62-35.17,66.04-.78,53.852-99.277-4.669-99.272-1.479,0-2.993,.063-4.531,.192-.983,.266-1.872,.39-2.682,.39-10.404,0-7.605-20.535-20.688-25.23-6.673-4.457-14.559-6.58-22.729-6.58-10.636,0-21.751,3.599-31.281,10.33-5.473-16.785-24.523-28.126-42.083-28.126-2.139,0-4.259,.169-6.326,.516-10.441-9.981-22.484-17.85-43.401-17.85h0Z"/></g><g><path class="cls-1" d="M82.907,697.117c-2.563,0-5.21-.087-7.864-.259h-.109c-2.116,.095-4.183,.144-6.143,.144-25.334,0-33.243-8.084-40.891-15.903-7.459-7.625-15.171-15.51-38.28-15.51-6.944,0-14.813,.679-24.057,2.077-24.145-.032-46.831-15.888-51.732-36.125l-.178-.734-.754-.03c-33.896-1.344-49.621-27.802-50.169-53.428-.309-14.444,4.009-28.281,12.156-38.96,9.087-11.911,22.184-18.891,37.874-20.186l1.024-.084-.112-1.022c-2.222-20.113,1.031-35.391,9.668-45.408,7.507-8.706,19.206-13.435,34.773-14.056,6.842,2.295,12.383,3.411,16.935,3.411,9.355,0,13.607-4.659,18.53-10.054,5.508-6.036,11.751-12.876,27.135-16.095l.426-.089,.225-.373c11.56-19.124,24.217-31.868,48.417-31.907h.111c24.936,0,38.677,10.516,49.812,21.879l.37,.378,.521-.093c2.312-.414,4.729-.624,7.182-.624,21.068,0,42.168,15.041,48.035,34.242l.417,1.367,1.142-.861c10.799-8.148,23.507-12.635,35.785-12.635,8.089,0,15.542,1.893,22.15,5.627l.822,.464,.511-.793c9.033-14.029,22.382-21.756,37.588-21.756,1.428,0,2.892,.068,4.353,.201,1.014,.295,1.979,.444,2.868,.444,5.812,0,7.922-5.983,10.156-12.319,2.184-6.19,4.658-13.208,10.904-15.692l.12-.048,.104-.077c6.272-4.639,13.929-7.091,22.14-7.091,10.518,0,21.405,3.986,30.659,11.225l1.159,.907,.416-1.412c5.024-17.06,23.09-30.423,41.127-30.423,2.099,0,4.165,.187,6.142,.554l.535,.099,.374-.396c9.549-10.105,21.328-19.457,42.686-19.457h.107c20.726,.039,31.566,11.37,41.467,28.373l.222,.381,.431,.093c13.177,2.852,18.527,8.931,23.248,14.294,4.254,4.832,7.927,9.006,16.035,9.006,3.924,0,8.694-.995,14.578-3.041,13.057,.548,22.935,4.596,29.359,12.033,7.688,8.897,10.601,22.64,8.656,40.844l-.108,1.016,1.018,.087c13.454,1.15,24.681,7.363,32.467,17.968,6.992,9.522,10.686,21.855,10.4,34.726-.503,22.741-13.985,46.221-42.973,47.411l-.76,.031-.173,.74c-4.209,17.999-23.672,32.097-44.312,32.097-7.772-1.222-14.754-1.848-20.66-1.848-19.948,0-26.599,7.052-33.03,13.873-6.548,6.944-13.319,14.124-35.016,14.125-1.676,0-3.446-.043-5.262-.128l-.057-.002-.058,.004c-2.274,.152-4.543,.229-6.743,.229-16.937,0-39.714-4.492-52.044-25.891l-.393-.683-.756,.222c-4.676,1.377-9.505,2.075-14.354,2.075-14.571,0-28.169-6.318-37.305-17.334l-.216-.26-.328-.076c-1.792-.415-4.031-.841-6.36-1.279l-.808-.151-.306,.763c-7.725,19.316-24.211,30.105-46.424,30.381l-1.289,.016,.336,1.245c1.646,6.092,.938,11.614-2.104,16.413-9.728,15.35-40.904,20.937-59.532,24.275-3.68,.659-6.857,1.229-9.335,1.775l-.325,.072-.218,.253c-10.661,12.4-26.536,19.512-43.556,19.512-5.658,0-11.294-.784-16.753-2.332l-.737-.209-.394,.659c-14.373,24.069-40.944,29.122-60.703,29.123Z"/><path class="cls-4" d="M448.023,357.237h.053c20.251,.038,30.878,11.171,40.605,27.877l.443,.762,.862,.187c12.854,2.782,18.09,8.73,22.708,13.977,4.23,4.806,8.227,9.345,16.786,9.345,3.997,0,8.816-.992,14.726-3.033,12.676,.567,22.248,4.495,28.455,11.679,7.5,8.68,10.332,22.166,8.419,40.085l-.217,2.031,2.035,.174c13.158,1.125,24.136,7.198,31.746,17.564,6.862,9.346,10.486,21.46,10.207,34.112-.493,22.274-13.676,45.27-42.015,46.433l-1.52,.062-.346,1.481c-1.984,8.484-7.586,16.392-15.774,22.266-8.117,5.824-17.871,9.039-27.475,9.059-7.955-1.243-14.744-1.847-20.749-1.848-20.38-.001-27.182,7.211-33.759,14.186-6.697,7.102-13.022,13.811-34.287,13.811-1.661,0-3.415-.043-5.215-.127l-.114-.005-.113,.008c-2.251,.151-4.497,.227-6.676,.227-16.673,0-39.087-4.405-51.179-25.39l-.786-1.365-1.511,.445c-4.585,1.35-9.318,2.034-14.071,2.034-14.273,0-27.59-6.186-36.535-16.972l-.431-.52-.657-.152c-1.805-.417-4.058-.847-6.401-1.287l-1.615-.303-.611,1.526c-7.564,18.916-23.726,29.482-45.508,29.753l-2.578,.032,.672,2.489c1.591,5.892,.942,11.001-1.983,15.617-9.492,14.978-40.398,20.516-58.864,23.826-3.69,.661-6.876,1.232-9.374,1.783l-.651,.144-.435,.505c-10.471,12.179-26.071,19.164-42.798,19.164-5.565,0-11.11-.772-16.479-2.294l-1.476-.418-.787,1.317c-14.134,23.668-40.345,28.636-59.844,28.636-2.544,0-5.168-.086-7.8-.256l-.109-.007-.11,.005c-2.102,.095-4.153,.144-6.097,.144-24.915,0-32.328-7.578-40.177-15.602-7.603-7.772-15.465-15.809-38.994-15.811-6.972,0-14.867,.679-24.132,2.077-11.267-.018-22.708-3.65-32.225-10.233-9.586-6.631-16.143-15.555-18.461-25.128l-.355-1.468-1.509-.06c-33.247-1.317-48.67-27.292-49.208-52.45-.304-14.219,3.941-27.832,11.952-38.333,8.911-11.68,21.761-18.525,37.162-19.796l2.049-.169-.226-2.044c-2.189-19.827,.984-34.847,9.432-44.646,7.289-8.454,18.684-13.063,33.873-13.702,6.866,2.291,12.456,3.404,17.078,3.404,9.796,0,14.397-5.042,19.269-10.38,5.406-5.924,11.533-12.638,26.601-15.79l.852-.178,.45-.745c11.384-18.835,23.829-31.387,47.558-31.425h.112c24.568,0,38.117,10.372,49.1,21.58l.74,.755,1.041-.186c2.254-.404,4.612-.608,7.006-.608,9.765,0,19.936,3.302,28.637,9.299,9.015,6.212,15.564,14.819,18.441,24.235l.835,2.734,2.282-1.722c10.626-8.018,23.121-12.433,35.183-12.433,7.915,0,15.202,1.85,21.659,5.498l1.644,.929,1.022-1.587c8.842-13.733,21.893-21.297,36.748-21.297,1.367,0,2.768,.063,4.167,.188,1.071,.303,2.097,.457,3.053,.457,6.52,0,8.848-6.602,11.099-12.986,2.216-6.283,4.507-12.779,10.331-15.096l.241-.096,.209-.154c6.099-4.511,13.549-6.895,21.545-6.895,10.295,0,20.965,3.911,30.043,11.012l2.319,1.814,.832-2.824c2.457-8.345,8.053-15.973,15.755-21.477,7.425-5.306,16.095-8.228,24.413-8.228,2.036,0,4.041,.181,5.958,.537l1.071,.199,.748-.792c9.395-9.943,20.979-19.144,41.959-19.144h.051m-.051-2c-20.922,0-32.972,8.72-43.413,19.77-2.068-.385-4.184-.571-6.323-.571-17.56,0-36.613,12.556-42.087,31.141-9.529-7.454-20.64-11.437-31.275-11.437-8.171,0-16.062,2.352-22.734,7.287-13.083,5.206-10.28,27.941-20.69,27.941-.809,0-1.698-.137-2.68-.431-1.544-.144-3.056-.214-4.541-.214-16.96,0-30.034,9.176-38.429,22.214-6.886-3.89-14.646-5.757-22.643-5.757-12.372,0-25.302,4.473-36.388,12.837-6.374-20.861-28.546-34.95-48.991-34.95-2.489,0-4.953,.209-7.358,.64-12.142-12.391-26.167-22.18-50.528-22.18h-.112c-24.96,.04-37.81,13.43-49.27,32.39-29.651,6.203-26.516,26.127-45.46,26.127-4.268,0-9.655-1.011-16.79-3.417-40,1.51-49.05,29.16-45.58,60.58-67.25,5.55-68.71,111.84,.18,114.57,5.075,20.951,28.735,36.89,52.712,36.89h.067c9.539-1.445,17.401-2.078,23.982-2.077,46.355,.004,28.726,31.413,79.171,31.413,1.956,0,4.019-.047,6.187-.146,2.675,.173,5.317,.261,7.929,.261,26.383,0,49.232-8.965,61.561-29.611,5.588,1.584,11.326,2.37,17.025,2.37,16.677,0,33.024-6.728,44.315-19.86,18.94-4.18,80.82-10,71.72-43.7,24.96-.31,40.31-13.43,47.34-31.01,2.449,.46,4.59,.87,6.319,1.27,9.702,11.699,23.747,17.696,38.074,17.696,4.899,0,9.832-.701,14.636-2.116,10.603,18.402,30.229,26.392,52.911,26.392,2.241,0,4.516-.078,6.81-.232,1.863,.087,3.628,.129,5.309,.129,43.349,0,28.179-28,68.045-27.997,5.65,0,12.411,.563,20.596,1.848h.065c20.597,0,40.92-14.201,45.285-32.87,59.2-2.43,57.939-97.16,.149-102.1,2.99-28-4.79-52.64-39.159-53.99-6.133,2.146-10.762,3.047-14.429,3.047-16.275,0-13.585-17.76-39.071-23.277-9.841-16.9-20.881-28.83-42.33-28.87h-.107Z"/></g><path class="cls-3" d="M328.449,741.184c-14.66,14.95-53.08,18.74-67.33,21.68-6.84,7.41-15.51,12.65-24.99,15.64-11.2-6.26-19.79-15.72-22.63-26.62-30.92-1.14-47.75-21.6-50.92-44.39,8.82,4.74,19.18,7.51,29.59,7.5,79.87-11.28,43.61,30.21,110.08,27.4,9.15,.55,17.971,.18,26.2-1.21Z"/><g><path class="cls-4" d="M384.715,846.007c-2.591,0-5.265-.083-7.945-.245h-.103c-2.136,.089-4.219,.135-6.193,.135-25.518,0-33.479-7.591-41.179-14.931-7.505-7.156-15.266-14.555-38.516-14.555-6.988,0-14.908,.638-24.21,1.949-9.521-.012-19.332-2.414-27.927-6.8,8.896-3.18,16.802-8.309,22.991-14.935,2.419-.489,5.501-1.005,9.045-1.598,17.261-2.887,46.15-7.72,58.484-20.298l2.157-2.199-3.038,.513c-5.656,.955-11.729,1.44-18.048,1.44-2.584,0-5.251-.082-7.926-.242h-.102c-2.136,.089-4.219,.135-6.193,.135-25.518,0-33.481-7.59-41.183-14.931-7.508-7.156-15.271-14.555-38.521-14.555-6.988,0-14.908,.638-24.211,1.949-9.917-.012-20.21-2.632-29.046-7.381l-1.735-.933,.271,1.951c2.907,20.907,17.872,43.673,51.138,45.221,2.787,9.774,10.317,18.886,20.904,25.35-5.514,1.524-11.263,2.297-17.122,2.297-5.703,0-11.388-.737-16.894-2.192l-.705-.186-.393,.614c-14.465,22.6-41.233,27.343-61.142,27.343-2.583,0-5.246-.082-7.916-.242h-.103c-2.128,.088-4.205,.134-6.174,.134-25.535,0-33.499-7.592-41.2-14.935-7.506-7.157-15.268-14.557-38.525-14.557-6.985,0-14.902,.637-24.199,1.946-24.318-.027-47.164-14.895-52.102-33.872l-.188-.72-.743-.028c-34.232-1.269-50.037-26.168-50.515-50.283-.489-24.719,15.065-52.559,50.373-55.27l1.039-.08-.122-1.035c-2.156-18.225,.833-32.226,8.884-41.613,7.526-8.775,19.597-13.529,35.878-14.134,6.887,2.155,12.461,3.203,17.037,3.203,9.395,0,13.672-4.371,18.624-9.431,5.545-5.666,11.83-12.088,27.336-15.106l.417-.081,.23-.357c11.628-17.951,24.37-29.915,48.763-29.954h.108c8.217,0,15.496,1.022,22.253,3.125l.663,.207,.425-.551c7.446-9.644,19.888-14.854,36.983-15.486,6.884,2.153,12.457,3.199,17.033,3.199,9.399,0,13.68-4.371,18.635-9.433,5.548-5.666,11.835-12.088,27.339-15.11l.417-.081,.23-.357c11.63-17.952,24.37-29.915,48.752-29.943h.12c25.132,0,38.97,9.874,50.18,20.544l.361,.345,.493-.083c2.332-.39,4.771-.588,7.245-.588,21.222,0,42.464,14.106,48.36,32.113l.42,1.284,1.105-.776c10.888-7.652,23.698-11.866,36.072-11.866,9.673,0,18.69,2.597,26.078,7.51l.102,.068,.116,.042c7.386,2.638,10.293,10.046,12.857,16.582,2.605,6.638,5.065,12.908,11.726,12.908,1.022,0,2.134-.156,3.304-.463,1.729-.143,3.461-.215,5.15-.215,14.993,0,28.356,5.631,38.646,16.285,11.897,12.319,18.628,30.385,18.004,48.326l-.009,.252,.112,.226c1.638,3.306,4.171,7.1,9.258,7.1h0c1.023,0,2.136-.156,3.308-.464,1.724-.142,3.451-.213,5.137-.213,35.27,0,56.527,31.506,56.704,61.966,.138,23.624-13.201,51.367-51.244,51.808l-1.314,.015,.365,1.263c1.578,5.451,.994,10.414-1.736,14.751-9.338,14.835-41.252,20.164-60.321,23.348-3.698,.617-6.892,1.151-9.382,1.663l-.315,.065-.219,.236c-10.743,11.644-26.737,18.322-43.882,18.323-5.702,0-11.384-.737-16.888-2.191l-.705-.186-.393,.614c-14.468,22.592-41.219,27.335-61.112,27.335Z"/><path class="cls-4" d="M297.129,499.081c24.781,0,38.431,9.742,49.491,20.269l.724,.689,.985-.165c2.278-.381,4.66-.574,7.081-.574,9.854,0,20.111,3.105,28.886,8.743,9.062,5.823,15.641,13.878,18.523,22.681l.84,2.567,2.211-1.553c10.72-7.534,23.326-11.683,35.497-11.683,9.475,0,18.301,2.539,25.524,7.343l.204,.136,.23,.082c6.958,2.485,9.655,9.358,12.264,16.006,2.612,6.658,5.314,13.543,12.656,13.543,1.083,0,2.25-.159,3.472-.473,1.674-.136,3.349-.204,4.982-.204,14.716,0,27.83,5.526,37.927,15.98,11.714,12.128,18.339,29.921,17.724,47.596l-.018,.505,.225,.453c1.629,3.286,4.454,7.655,10.154,7.655,1.084,0,2.253-.16,3.477-.475,1.667-.135,3.337-.203,4.97-.203h.002c20.622,0,33.623,10.498,40.897,19.304,9.317,11.279,14.712,26.466,14.8,41.668,.079,13.658-4.17,26.096-11.965,35.022-8.852,10.135-22.091,15.592-38.287,15.78l-2.629,.031,.731,2.526c1.517,5.237,.985,9.798-1.622,13.941-9.099,14.455-40.736,19.738-59.64,22.894-3.708,.619-6.91,1.154-9.419,1.67l-.631,.13-.437,.473c-10.556,11.44-26.282,18.001-43.147,18.001-5.616,0-11.212-.726-16.633-2.158l-1.409-.372-.786,1.228c-14.224,22.212-40.626,26.875-60.27,26.875-2.572,0-5.225-.082-7.885-.243l-.103-.006-.103,.004c-2.124,.09-4.193,.135-6.151,.135-25.117,0-32.584-7.118-40.488-14.655-7.648-7.291-15.556-14.831-39.206-14.831-7.016,0-14.959,.637-24.28,1.949-8.56-.013-17.399-2.012-25.336-5.686,8.053-3.222,15.23-8.048,20.98-14.131,2.354-.468,5.316-.963,8.701-1.529,17.38-2.907,46.471-7.773,59.032-20.584l4.313-4.398-6.074,1.026c-5.603,.946-11.619,1.426-17.883,1.426-2.564,0-5.21-.081-7.864-.24l-.103-.006-.102,.004c-2.124,.09-4.193,.135-6.15,.135-25.118,0-32.586-7.118-40.494-14.655-7.649-7.291-15.56-14.831-39.21-14.831-7.016,0-14.96,.637-24.28,1.949-9.695-.015-19.815-2.592-28.504-7.262l-3.47-1.865,.542,3.902c2.808,20.188,17.955,44.151,51.371,46.045,2.817,9.138,9.65,17.655,19.181,23.992-4.745,1.124-9.652,1.693-14.641,1.693-5.618,0-11.216-.726-16.639-2.159l-1.409-.372-.786,1.228c-14.222,22.219-40.641,26.882-60.299,26.882-2.562,0-5.205-.081-7.856-.241l-.102-.006-.102,.004c-2.114,.089-4.177,.134-6.132,.134-25.135,0-32.604-7.12-40.51-14.659-7.648-7.292-15.557-14.832-39.215-14.833-7.013,0-14.952,.636-24.269,1.946-11.375-.013-22.92-3.428-32.519-9.618-9.632-6.212-16.218-14.56-18.545-23.505l-.375-1.44-1.487-.055c-33.58-1.244-49.083-25.66-49.552-49.304-.263-13.264,4.018-25.958,12.053-35.741,8.97-10.921,21.901-17.322,37.397-18.512l2.078-.16-.245-2.07c-2.122-17.936,.788-31.678,8.649-40.845,7.31-8.524,19.081-13.159,34.985-13.779,6.908,2.151,12.528,3.197,17.17,3.197,9.815,0,14.441-4.727,19.339-9.731,5.443-5.562,11.612-11.865,26.812-14.824l.834-.162,.462-.714c11.451-17.678,23.982-29.459,47.921-29.497h.112c8.114,0,15.295,1.007,21.953,3.08l1.328,.413,.85-1.101c7.231-9.366,19.361-14.442,36.058-15.091,6.906,2.148,12.525,3.193,17.167,3.193,9.82,0,14.449-4.728,19.35-9.734,5.445-5.562,11.617-11.865,26.816-14.828l.834-.163,.462-.713c11.451-17.679,23.981-29.459,47.911-29.487h.12m0-2h-.12c-25.12,.03-38.06,12.6-49.59,30.4-29.86,5.82-26.7,24.525-45.783,24.525-4.295,0-9.72-.949-16.897-3.205-18.79,.66-30.8,6.67-37.91,15.88-6.462-2.011-13.846-3.17-22.547-3.17h-.112c-25.13,.04-38.07,12.61-49.6,30.41-29.857,5.812-26.693,24.518-45.769,24.518-4.295,0-9.721-.95-16.901-3.208-40.27,1.42-49.38,27.37-45.89,56.87-67.71,5.2-69.17,104.98,.18,107.55,5.115,19.661,28.921,34.62,53.067,34.62h.072c9.594-1.354,17.507-1.946,24.129-1.946,46.699,.002,28.924,29.492,79.726,29.492,1.965,0,4.037-.044,6.216-.136,2.691,.162,5.349,.244,7.977,.244,26.563,0,49.571-8.413,61.983-27.804,5.628,1.487,11.408,2.225,17.149,2.225,6.693,0,13.333-1.004,19.621-2.995-11.2-6.26-19.79-15.72-22.63-26.62-30.92-1.14-47.75-21.6-50.92-44.39,8.805,4.732,19.143,7.5,29.534,7.5h.056c9.599-1.356,17.517-1.949,24.141-1.949,46.681,.001,28.933,29.486,79.704,29.486,1.972,0,4.048-.045,6.235-.137,2.692,.162,5.355,.244,7.984,.244,6.305,0,12.408-.473,18.216-1.454-14.66,14.95-53.08,18.74-67.33,21.68-6.84,7.41-15.51,12.65-24.99,15.64,9.005,5.042,19.694,8.01,30.456,8.01h.054c9.599-1.356,17.517-1.949,24.14-1.949,46.68,.001,28.924,29.486,79.694,29.486,1.973,0,4.049-.044,6.235-.137,2.7,.163,5.369,.246,8.006,.246,26.553,0,49.547-8.42,61.954-27.796,5.629,1.487,11.405,2.225,17.144,2.225,16.791,0,33.243-6.318,44.617-18.645,19.069-3.92,81.359-9.38,72.199-41.02,77.364-.897,63.085-115.778-5.473-115.774-1.733,0-3.505,.074-5.307,.224-1.149,.309-2.19,.453-3.138,.453-4.112,0-6.469-2.724-8.362-6.543,1.089-31.289-20.159-65.646-57.649-65.646-1.738,0-3.514,.074-5.321,.226-1.148,.308-2.187,.452-3.133,.452-12.193,0-8.916-23.957-24.247-29.432-7.82-5.2-17.062-7.677-26.632-7.677-12.46,0-25.478,4.197-36.647,12.047-6.409-19.576-28.733-32.801-49.31-32.801-2.507,0-4.988,.196-7.411,.601-12.23-11.641-26.342-20.82-50.87-20.82h0Z"/></g><g><path class="cls-2" d="M387.069,877.967c-2.591,0-5.265-.083-7.945-.245h-.103c-2.136,.089-4.219,.135-6.193,.135-25.518,0-33.479-7.591-41.179-14.931-7.505-7.156-15.266-14.555-38.516-14.555-6.988,0-14.908,.638-24.211,1.949-9.519-.011-19.33-2.414-27.927-6.8,8.896-3.179,16.802-8.308,22.992-14.935,2.419-.489,5.501-1.005,9.045-1.598,17.261-2.887,46.15-7.72,58.484-20.297l2.156-2.199-3.036,.513c-5.658,.955-11.731,1.439-18.052,1.44-2.583,0-5.249-.082-7.923-.242h-.102c-2.136,.089-4.219,.135-6.193,.135-25.518,0-33.481-7.591-41.183-14.931-7.507-7.156-15.271-14.555-38.521-14.555-6.989,0-14.909,.637-24.212,1.949-9.915-.012-20.209-2.632-29.046-7.381l-1.735-.933,.271,1.951c2.907,20.907,17.872,43.673,51.138,45.221,2.787,9.774,10.316,18.886,20.904,25.35-5.514,1.525-11.263,2.297-17.122,2.297-5.704,0-11.388-.737-16.895-2.192l-.704-.186-.393,.614c-14.467,22.599-41.234,27.343-61.142,27.343-2.583,0-5.246-.082-7.916-.242h-.103c-2.128,.088-4.205,.134-6.174,.134-25.535,0-33.499-7.592-41.2-14.935-7.506-7.157-15.268-14.557-38.525-14.557-6.985,0-14.902,.637-24.199,1.946-24.32-.026-47.165-14.895-52.102-33.872l-.188-.72-.743-.028c-34.232-1.269-50.037-26.168-50.515-50.283-.49-24.719,15.064-52.558,50.373-55.27l1.039-.08-.122-1.035c-2.155-18.225,.833-32.226,8.884-41.613,7.525-8.775,19.596-13.53,35.878-14.134,6.887,2.155,12.46,3.203,17.037,3.203,9.395,0,13.672-4.371,18.624-9.431,5.545-5.666,11.83-12.088,27.336-15.106l.417-.081,.23-.357c11.628-17.951,24.369-29.915,48.763-29.953h.113c8.215,0,15.492,1.022,22.248,3.125l.664,.207,.425-.551c7.445-9.644,19.887-14.854,36.982-15.485,6.884,2.153,12.456,3.199,17.033,3.199,9.398,0,13.679-4.372,18.635-9.433,5.547-5.666,11.835-12.088,27.339-15.11l.417-.081,.23-.357c11.629-17.952,24.37-29.914,48.752-29.943h.118c25.133,0,38.972,9.874,50.182,20.544l.361,.345,.493-.083c2.333-.39,4.771-.588,7.246-.588,21.222,0,42.463,14.105,48.359,32.112l.42,1.284,1.105-.776c10.887-7.651,23.698-11.865,36.072-11.865,9.673,0,18.69,2.597,26.078,7.509l.102,.068,.116,.042c7.386,2.638,10.293,10.046,12.857,16.582,2.604,6.638,5.065,12.908,11.726,12.908,1.022,0,2.134-.156,3.304-.463,1.729-.143,3.461-.215,5.15-.215,14.993,0,28.356,5.631,38.646,16.285,11.897,12.319,18.628,30.385,18.004,48.326l-.009,.252,.112,.227c1.639,3.305,4.172,7.099,9.258,7.099h0c1.023,0,2.136-.156,3.308-.464,1.724-.142,3.451-.213,5.136-.213,35.27,0,56.528,31.506,56.705,61.966,.137,23.624-13.201,51.367-51.244,51.808l-1.314,.015,.365,1.263c1.578,5.451,.994,10.414-1.736,14.751-9.338,14.835-41.252,20.164-60.321,23.348-3.697,.617-6.892,1.151-9.382,1.663l-.315,.065-.219,.236c-10.743,11.644-26.737,18.323-43.882,18.323-5.702,0-11.384-.737-16.888-2.192l-.705-.186-.393,.614c-14.468,22.593-41.219,27.335-61.112,27.336Z"/><path class="cls-4" d="M299.484,531.04c24.781,0,38.431,9.742,49.491,20.269l.724,.689,.985-.165c2.278-.381,4.66-.574,7.081-.574,9.854,0,20.111,3.105,28.886,8.743,9.062,5.823,15.641,13.878,18.523,22.681l.84,2.567,2.211-1.553c10.72-7.534,23.326-11.683,35.497-11.683,9.475,0,18.301,2.539,25.524,7.343l.204,.136,.23,.082c6.958,2.485,9.655,9.358,12.264,16.006,2.612,6.658,5.314,13.543,12.656,13.543,1.083,0,2.25-.159,3.472-.473,1.674-.136,3.349-.204,4.982-.204,14.716,0,27.83,5.526,37.927,15.98,11.714,12.128,18.339,29.921,17.724,47.596l-.018,.505,.225,.453c1.629,3.286,4.454,7.655,10.154,7.655,1.084,0,2.253-.16,3.477-.475,1.667-.135,3.337-.203,4.97-.203h.002c20.622,0,33.623,10.498,40.897,19.304,9.317,11.279,14.712,26.466,14.8,41.668,.079,13.658-4.17,26.096-11.965,35.022-8.852,10.136-22.091,15.592-38.287,15.78l-2.629,.031,.731,2.526c1.517,5.237,.985,9.798-1.622,13.941-9.099,14.455-40.736,19.738-59.64,22.894-3.708,.619-6.91,1.154-9.419,1.67l-.631,.13-.437,.473c-10.556,11.44-26.282,18.001-43.147,18.001-5.616,0-11.212-.726-16.633-2.158l-1.409-.372-.786,1.228c-14.224,22.212-40.626,26.875-60.27,26.875-2.572,0-5.225-.082-7.885-.243l-.103-.006-.103,.004c-2.124,.09-4.193,.135-6.151,.135-25.117,0-32.584-7.118-40.488-14.655-7.648-7.291-15.556-14.831-39.206-14.831-7.016,0-14.959,.637-24.28,1.949-8.56-.013-17.399-2.012-25.336-5.686,8.053-3.222,15.23-8.048,20.98-14.131,2.354-.468,5.316-.963,8.701-1.529,17.38-2.907,46.471-7.773,59.032-20.584l4.313-4.398-6.074,1.026c-5.603,.946-11.619,1.426-17.883,1.426-2.564,0-5.21-.081-7.864-.24l-.103-.006-.102,.004c-2.124,.09-4.193,.135-6.15,.135-25.118,0-32.586-7.118-40.494-14.654-7.649-7.291-15.56-14.831-39.21-14.831-7.016,0-14.96,.637-24.28,1.949-9.695-.015-19.815-2.592-28.504-7.262l-3.47-1.865,.542,3.902c2.808,20.188,17.955,44.151,51.371,46.045,2.817,9.138,9.65,17.655,19.181,23.992-4.745,1.124-9.652,1.693-14.641,1.693-5.618,0-11.216-.726-16.639-2.159l-1.409-.372-.786,1.228c-14.222,22.219-40.641,26.882-60.299,26.882-2.562,0-5.205-.081-7.856-.241l-.102-.006-.102,.004c-2.114,.089-4.177,.134-6.132,.134-25.135,0-32.604-7.12-40.51-14.659-7.648-7.292-15.557-14.832-39.215-14.833-7.013,0-14.952,.636-24.269,1.946-11.375-.013-22.92-3.428-32.519-9.618-9.632-6.212-16.218-14.56-18.545-23.505l-.375-1.44-1.487-.055c-33.58-1.244-49.083-25.66-49.552-49.304-.263-13.265,4.018-25.958,12.053-35.741,8.97-10.921,21.901-17.322,37.397-18.512l2.078-.16-.245-2.07c-2.122-17.936,.788-31.678,8.649-40.845,7.31-8.524,19.081-13.159,34.985-13.779,6.908,2.151,12.528,3.197,17.17,3.197,9.815,0,14.441-4.727,19.339-9.731,5.443-5.562,11.612-11.865,26.812-14.824l.834-.162,.462-.714c11.451-17.678,23.982-29.459,47.921-29.497h.112c8.114,0,15.295,1.007,21.953,3.08l1.328,.413,.85-1.101c7.231-9.366,19.361-14.442,36.058-15.091,6.906,2.148,12.525,3.193,17.167,3.193,9.82,0,14.449-4.728,19.35-9.734,5.445-5.562,11.617-11.865,26.816-14.828l.834-.163,.462-.713c11.451-17.679,23.981-29.459,47.911-29.487h.12m0-2h-.12c-25.12,.03-38.06,12.6-49.59,30.4-29.86,5.82-26.7,24.525-45.783,24.525-4.295,0-9.72-.949-16.897-3.205-18.79,.66-30.8,6.67-37.91,15.88-6.462-2.011-13.846-3.17-22.547-3.17h-.112c-25.13,.04-38.07,12.61-49.6,30.41-29.857,5.812-26.693,24.518-45.769,24.518-4.295,0-9.721-.95-16.901-3.208-40.27,1.42-49.38,27.37-45.89,56.87-67.71,5.2-69.17,104.98,.18,107.55,5.115,19.661,28.921,34.62,53.067,34.62h.072c9.594-1.354,17.507-1.946,24.129-1.946,46.699,.002,28.924,29.492,79.726,29.492,1.965,0,4.037-.044,6.216-.136,2.691,.162,5.349,.244,7.977,.244,26.563,0,49.571-8.413,61.983-27.804,5.628,1.487,11.408,2.225,17.149,2.225,6.693,0,13.333-1.004,19.621-2.995-11.2-6.26-19.79-15.72-22.63-26.62-30.92-1.14-47.75-21.6-50.92-44.39,8.805,4.732,19.143,7.5,29.534,7.5h.056c9.599-1.356,17.517-1.949,24.141-1.949,46.681,.001,28.933,29.486,79.704,29.486,1.972,0,4.048-.045,6.235-.137,2.692,.162,5.355,.244,7.984,.244,6.305,0,12.408-.473,18.216-1.454-14.66,14.95-53.08,18.74-67.33,21.68-6.84,7.41-15.51,12.65-24.99,15.64,9.005,5.042,19.694,8.01,30.456,8.01h.054c9.599-1.356,17.517-1.949,24.14-1.949,46.68,.001,28.924,29.486,79.694,29.486,1.973,0,4.049-.044,6.235-.137,2.7,.163,5.369,.246,8.006,.246,26.553,0,49.547-8.42,61.954-27.796,5.629,1.487,11.405,2.225,17.144,2.225,16.791,0,33.243-6.318,44.617-18.645,19.069-3.92,81.359-9.38,72.199-41.02,77.364-.897,63.085-115.778-5.473-115.774-1.733,0-3.505,.074-5.307,.224-1.149,.309-2.19,.453-3.138,.453-4.112,0-6.469-2.724-8.362-6.543,1.089-31.289-20.159-65.646-57.649-65.646-1.738,0-3.514,.074-5.321,.226-1.148,.308-2.187,.452-3.133,.452-12.193,0-8.916-23.957-24.247-29.432-7.82-5.2-17.062-7.677-26.632-7.677-12.46,0-25.478,4.197-36.647,12.047-6.409-19.576-28.733-32.801-49.31-32.801-2.507,0-4.988,.196-7.411,.601-12.23-11.641-26.342-20.82-50.87-20.82h0Z"/></g><path class="cls-3" d="M328.449,741.184c-14.66,14.95-53.08,18.74-67.33,21.68-6.84,7.41-15.51,12.65-24.99,15.64-11.2-6.26-19.79-15.72-22.63-26.62-30.92-1.14-47.75-21.6-50.92-44.39,8.82,4.74,19.18,7.51,29.59,7.5,79.87-11.28,43.61,30.21,110.08,27.4,9.15,.55,17.971,.18,26.2-1.21Z"/><g><path class="cls-1" d="M253.83,948.449c-2.567,0-5.217-.087-7.875-.259h-.109c-2.116,.095-4.182,.144-6.138,.144-25.332,0-33.239-8.084-40.886-15.902-7.46-7.626-15.173-15.512-38.291-15.512-6.942,0-14.811,.679-24.051,2.075-24.142-.032-46.831-15.886-51.735-36.12l-.178-.734-.754-.03c-33.898-1.346-49.623-27.809-50.169-53.438-.308-14.444,4.011-28.28,12.159-38.959,9.087-11.91,22.185-18.889,37.875-20.183l1.024-.084-.112-1.022c-2.224-20.109,1.026-35.384,9.661-45.401,7.506-8.708,19.207-13.438,34.778-14.061,6.84,2.294,12.38,3.41,16.931,3.41,9.355,0,13.607-4.659,18.531-10.054,5.509-6.036,11.752-12.877,27.141-16.093l.427-.089,.225-.373c11.558-19.125,24.212-31.87,48.41-31.905h.13c24.934,0,38.67,10.516,49.8,21.88l.37,.378,.521-.093c2.312-.414,4.729-.625,7.183-.625,21.069,0,42.166,15.038,48.03,34.236l.417,1.367,1.142-.86c10.803-8.146,23.515-12.633,35.795-12.633,9.597,0,18.545,2.765,25.876,7.995l.104,.074,.119,.045c7.336,2.812,10.227,10.714,12.777,17.686,2.582,7.06,5.021,13.729,11.658,13.729h.002c1.021,0,2.13-.167,3.299-.496,1.71-.151,3.424-.228,5.095-.228,34.993,0,56.113,33.561,56.316,66.006,.157,25.227-13.078,54.854-50.899,55.326l-1.289,.016,.336,1.245c1.646,6.092,.938,11.614-2.104,16.412-9.723,15.343-40.885,20.931-59.504,24.271-3.689,.661-6.875,1.232-9.357,1.781l-.325,.072-.217,.252c-10.666,12.397-26.542,19.508-43.559,19.509-5.657,0-11.296-.784-16.757-2.332l-.737-.209-.394,.659c-14.374,24.071-40.938,29.125-60.693,29.125Z"/><path class="cls-4" d="M240.823,654.861c24.564,0,38.109,10.372,49.086,21.58l.74,.756,1.041-.187c2.255-.404,4.612-.609,7.007-.609,9.764,0,19.934,3.302,28.635,9.297,9.014,6.211,15.562,14.817,18.438,24.231l.835,2.734,2.282-1.721c10.631-8.017,23.13-12.432,35.193-12.432,9.388,0,18.135,2.7,25.296,7.808l.207,.148,.238,.091c6.911,2.649,9.599,9.993,12.196,17.096,2.587,7.072,5.262,14.385,12.598,14.385,1.087,0,2.257-.171,3.479-.507,1.648-.143,3.302-.215,4.926-.215,20.431,0,33.328,11.166,40.55,20.532,9.276,12.031,14.654,28.242,14.756,44.479,.091,14.621-4.139,27.937-11.91,37.493-8.79,10.808-21.931,16.628-38.001,16.829l-2.577,.032,.672,2.489c1.591,5.892,.942,11-1.983,15.616-9.486,14.971-40.379,20.511-58.837,23.821-3.699,.663-6.894,1.236-9.396,1.789l-.65,.144-.435,.505c-10.476,12.177-26.075,19.161-42.8,19.161-5.566,0-11.112-.772-16.484-2.294l-1.476-.418-.786,1.317c-14.134,23.67-40.34,28.638-59.834,28.638-2.547,0-5.175-.087-7.81-.257l-.11-.007-.11,.005c-2.102,.095-4.151,.143-6.093,.143-24.912,0-32.324-7.578-40.171-15.6-7.604-7.774-15.467-15.812-39.004-15.813-6.973,0-14.866,.678-24.126,2.075-11.268-.019-22.708-3.651-32.225-10.233-9.587-6.63-16.145-15.552-18.463-25.123l-.356-1.468-1.509-.06c-33.249-1.32-48.672-27.298-49.208-52.459-.303-14.219,3.942-27.832,11.954-38.331,8.911-11.678,21.762-18.523,37.163-19.793l2.049-.169-.226-2.044c-2.192-19.822,.979-34.84,9.424-44.638,7.289-8.456,18.686-13.066,33.878-13.707,6.865,2.29,12.452,3.404,17.073,3.404,9.797,0,14.398-5.042,19.27-10.38,5.407-5.924,11.535-12.639,26.607-15.788l.852-.178,.451-.745c11.382-18.836,23.825-31.388,47.555-31.422h.128m0-2h-.131c-24.955,.036-37.808,13.429-49.264,32.388-29.659,6.198-26.521,26.126-45.468,26.126-4.266,0-9.654-1.011-16.786-3.417-40,1.514-49.053,29.155-45.578,60.578-67.256,5.547-68.712,111.84,.177,114.575,5.076,20.945,28.736,36.885,52.72,36.885h.062c9.534-1.444,17.396-2.076,23.976-2.075,46.37,.003,28.732,31.413,79.176,31.413,1.956,0,4.015-.047,6.183-.145,2.678,.174,5.324,.261,7.939,.261,26.378,0,49.224-8.968,61.551-29.613,5.591,1.585,11.329,2.37,17.029,2.37,16.677,0,33.021-6.727,44.316-19.857,18.938-4.186,80.813-10,71.715-43.701,76.848-.961,62.672-123.344-5.43-123.332-1.722,0-3.487,.079-5.277,.24-1.144,.329-2.177,.483-3.118,.483-12.111,0-8.852-25.514-24.078-31.349-7.769-5.542-16.947-8.18-26.457-8.18-12.375,0-25.309,4.473-36.397,12.835-6.371-20.859-28.544-34.944-48.986-34.944-2.488,0-4.955,.209-7.36,.64-12.143-12.398-26.164-22.181-50.515-22.181h0Z"/></g></g></g></g></svg>