<svg xmlns="http://www.w3.org/2000/svg" width="61.153" height="57.5" viewBox="0 0 61.153 57.5"><g transform="translate(0.516 0.5)"><g transform="translate(18.58)"><path d="M12.891,22.23c-4.485,0-5.809-4.923-6.783-9.971C5.046,6.761,4.282,2.791,11.37.7A12.136,12.136,0,0,1,14.7.125a3.39,3.39,0,0,1,2.67.974c1.363,1.514,1.167,4.656.82,8.023a26.989,26.989,0,0,0,.151,5.571c.378,3.78.634,6.279-3.574,7.295a8.043,8.043,0,0,1-1.881.238Z" transform="translate(-5.004 0.313)" fill="#e79da9" stroke="#312f30" stroke-width="1"/><path d="M15.007.876a2.969,2.969,0,0,1,2.34.83c1.244,1.377,1.034,4.551.711,7.684a27.583,27.583,0,0,0,.151,5.662c.41,4.089.438,5.935-3.241,6.822a7.785,7.785,0,0,1-1.78.231c-4.152,0-5.375-4.551-6.352-9.618C5.782,7.021,5.085,3.413,11.794,1.433A11.794,11.794,0,0,1,15,.876m0-.876a12.437,12.437,0,0,0-3.455.592C4.139,2.778,4.916,7.13,5.981,12.652,6.931,17.571,8.259,22.98,13.2,22.98a8.369,8.369,0,0,0,1.983-.256c6.587-1.591,3.1-6.818,3.756-13.247C19.45,4.422,19.59,0,15.007,0Z" transform="translate(-5.305)" fill="#e79da9" stroke="#312f30" stroke-width="1"/></g><g transform="translate(28.868 0.701)"><path d="M13.579,21.124a4.44,4.44,0,0,1-2.908-1.156c-2.919-2.488-3.09-8.661-.385-14.053A10.291,10.291,0,0,1,18.919.326,5.5,5.5,0,0,1,23.127,2.1c4.5,4.986,3.616,6.208,1.251,9.477L23.439,12.9c-3.766,5.459-7.084,8.223-9.859,8.223Z" transform="translate(-7.933 0.115)" fill="#e79da9" stroke="#312f30" stroke-width="1"/><path d="M19.227,1.079h0a5.1,5.1,0,0,1,3.879,1.629c4.264,4.726,3.56,5.7,1.223,8.931q-.447.615-.946,1.328C19.7,18.3,16.505,21,13.888,21a3.938,3.938,0,0,1-2.624-1.055c-2.775-2.361-2.9-8.3-.28-13.521a9.824,9.824,0,0,1,8.244-5.347m0-.876A10.733,10.733,0,0,0,10.2,6.03c-2.61,5.21-2.778,11.79.494,14.579a4.828,4.828,0,0,0,3.192,1.261c3.917,0,7.845-4.975,10.217-8.409C27.128,9.082,29.066,8,23.758,2.116A5.927,5.927,0,0,0,19.227.2h0Z" transform="translate(-8.241 -0.2)" fill="#e79da9" stroke="#312f30" stroke-width="1"/></g><g transform="translate(5.981 4.853)"><path d="M16.142,22.1c-1.349,0-2.593-.83-4.169-1.885a22.647,22.647,0,0,0-5.315-2.845A6.879,6.879,0,0,1,2.075,12.6c-.722-2.729.179-5.8,2.47-8.43A6.818,6.818,0,0,1,9.6,1.512c3.441,0,6.545,3.378,6.643,7.225.067,2.61,1.524,4.5,2.81,6.173,1.685,2.19,2.8,3.64.287,5.746a5.079,5.079,0,0,1-3.2,1.451Z" transform="translate(-1.402 -1.067)" fill="#e79da9" stroke="#312f30" stroke-width="1"/><path d="M9.915,2.261h0c3.157,0,6.114,3.244,6.2,6.8.07,2.754,1.64,4.789,2.9,6.426,1.811,2.351,2.463,3.378.35,5.143a4.667,4.667,0,0,1-2.922,1.349c-1.212,0-2.411-.8-3.924-1.811a23.177,23.177,0,0,0-5.413-2.9,6.447,6.447,0,0,1-4.3-4.474c-.683-2.589.182-5.515,2.379-8.027a6.388,6.388,0,0,1,4.73-2.509m0-.876A7.182,7.182,0,0,0,4.53,4.195C-.12,9.517,1.208,16.139,6.825,18.1c4.586,1.6,6.839,4.754,9.628,4.754A5.478,5.478,0,0,0,19.939,21.3C24.858,17.186,17.15,14.874,17,9.04,16.9,5.1,13.688,1.385,9.922,1.385h0Z" transform="translate(-1.709 -1.385)" fill="#e79da9" stroke="#312f30" stroke-width="1"/></g><g transform="translate(14.981 34.697)"><path d="M12.36,30.958A8.089,8.089,0,0,1,8.9,30.1C2.921,27.258,3.976,22.038,6,16.814a11.029,11.029,0,0,1,9.54-6.787,7.189,7.189,0,0,1,3.36.813c5.014,2.61,4.127,8.661,1.839,13.048-2.474,4.754-5.217,7.07-8.384,7.07Z" transform="translate(-3.95 -9.593)" fill="#e79da9" stroke="#312f30" stroke-width="1"/><path d="M15.869,10.779h0a6.729,6.729,0,0,1,3.153.764C23.749,14.006,22.869,19.79,20.679,24c-2.393,4.6-5.01,6.832-8,6.832a7.647,7.647,0,0,1-3.272-.816c-5.343-2.537-4.933-6.923-2.673-12.729a10.56,10.56,0,0,1,9.131-6.506m0-.876C11.64,9.9,7.4,13.154,5.919,16.97,4.009,21.878,2.492,27.7,9.033,30.806a8.491,8.491,0,0,0,3.647.9c3.994,0,6.8-3.514,8.777-7.3,2.526-4.853,3.1-10.963-2.032-13.636a7.63,7.63,0,0,0-3.56-.862h0Z" transform="translate(-4.278 -9.903)" fill="#e79da9" stroke="#312f30" stroke-width="1"/></g><g transform="translate(26.717 36.091)"><path d="M15.615,29.9c-4.923,0-5.392-1.549-6.787-6.159C7.844,20.491,7.1,16.4,8.621,13.561a5.975,5.975,0,0,1,3.728-2.891,5.379,5.379,0,0,1,1.573-.245c4.253,0,6.734,5.879,8.377,9.765,1,2.368,1.832,5.347.62,7.337-.816,1.335-2.491,2.106-4.972,2.281-.869.067-1.647.095-2.337.095Z" transform="translate(-7.312 -9.991)" fill="#e79da9" stroke="#312f30" stroke-width="1"/><path d="M14.241,11.173c3.963,0,6.38,5.718,7.978,9.5l.091.217c.869,2.057,1.671,4.891.554,6.72-.739,1.205-2.295,1.9-4.628,2.074-.858.063-1.622.095-2.3.095-4.6,0-4.975-1.24-6.37-5.851l-.095-.315c-.865-2.855-1.591-6.825-.14-9.533A5.484,5.484,0,0,1,12.8,11.4a5,5,0,0,1,1.447-.224m0-.876a5.907,5.907,0,0,0-1.7.263c-5.728,1.724-5.574,7.831-3.917,13.307,1.468,4.846,1.934,6.787,7.305,6.787.7,0,1.486-.032,2.365-.1,7-.508,6.745-5.455,4.818-10.006C21.392,16.474,18.866,10.3,14.241,10.3h0Z" transform="translate(-7.627 -10.301)" fill="#e79da9" stroke="#312f30" stroke-width="1"/></g><g transform="translate(0 18.243)"><path d="M6.865,21.34A5.836,5.836,0,0,1,2.472,19.2,9.874,9.874,0,0,1,.194,11.807C.751,7.69,2.945,5.332,6.21,5.332a9.887,9.887,0,0,1,5.115,1.682,22.445,22.445,0,0,0,5.382,2.169c3.9,1.184,6.061,2.015,5.231,5.343-1.135,4.537-5.473,5.255-10.5,6.086-1.1.182-2.232.368-3.367.6a6.2,6.2,0,0,1-1.205.123Z" transform="translate(0.307 -4.894)" fill="#e79da9" stroke="#312f30" stroke-width="1"/><path d="M6.516,6.083h0A9.467,9.467,0,0,1,11.4,7.7a22.626,22.626,0,0,0,5.487,2.218c3.854,1.17,5.676,1.864,4.937,4.818-1.065,4.257-5.073,4.919-10.143,5.76-1.107.182-2.242.371-3.385.606a5.6,5.6,0,0,1-1.114.116,5.41,5.41,0,0,1-4.068-2A9.553,9.553,0,0,1,.941,12.179c.526-3.875,2.558-6.1,5.581-6.1m0-.876C3.229,5.207.686,7.53.072,12.064c-.561,4.145,2.253,10.031,7.109,10.031a6.431,6.431,0,0,0,1.293-.133c6.457-1.321,12.743-1.174,14.2-7.011S16.725,10,11.873,6.959a10.273,10.273,0,0,0-5.35-1.752Z" transform="translate(-0.002 -5.207)" fill="#e79da9" stroke="#312f30" stroke-width="1"/></g><g transform="translate(33.292 9.74)"><path d="M16.872,20.658a7.116,7.116,0,0,1-6.622-4.313c-2.2-4.551,1.794-6.941,6.412-9.712.729-.438,1.468-.883,2.193-1.342a13.149,13.149,0,0,1,6.811-2.386c3.462,0,5.97,2.4,7.459,7.137a4.952,4.952,0,0,1,.056,3.8c-.743,1.384-2.621,1.927-4.793,2.554a17.919,17.919,0,0,0-5.2,2.127,11.431,11.431,0,0,1-6.314,2.134Z" transform="translate(-9.188 -2.467)" fill="#e79da9" stroke="#312f30" stroke-width="1"/><path d="M25.986,3.652h0c3.248,0,5.62,2.3,7.042,6.832a4.541,4.541,0,0,1,.088,3.458c-.655,1.219-2.449,1.738-4.53,2.34a18.259,18.259,0,0,0-5.329,2.19,11.014,11.014,0,0,1-6.065,2.06,6.6,6.6,0,0,1-6.222-4.064c-1.927-3.987,1.114-6.075,6.236-9.148.736-.441,1.479-.886,2.207-1.349a12.723,12.723,0,0,1,6.576-2.316m0-.876a13.7,13.7,0,0,0-7.046,2.453c-5.371,3.4-11.506,5.942-8.763,11.618a7.5,7.5,0,0,0,7.011,4.562A11.906,11.906,0,0,0,23.754,19.2c4.695-3.213,12.434-1.587,10.115-8.976-1.7-5.4-4.593-7.445-7.876-7.445h0Z" transform="translate(-9.504 -2.78)" fill="#e79da9" stroke="#312f30" stroke-width="1"/></g><g transform="translate(37.335 24.189)"><path d="M26.866,20.74a18.616,18.616,0,0,1-3.49-.378L21.2,19.969c-5.683-1-9.789-1.727-10.371-6.965a4.04,4.04,0,0,1,.7-3.132C12.84,8.26,15.8,7.983,18.653,7.714c1.17-.109,2.333-.221,3.392-.417a15.619,15.619,0,0,1,2.855-.27c3.43,0,7.242,1.282,7.666,4.877.406,3.483,0,5.858-1.254,7.263a5.62,5.62,0,0,1-4.446,1.577Z" transform="translate(-10.345 -6.596)" fill="#e79da9" stroke="#312f30" stroke-width="1"/><path d="M25.209,7.773h0c3.244,0,6.846,1.177,7.232,4.485s0,5.634-1.146,6.923a5.217,5.217,0,0,1-4.12,1.433,18.356,18.356,0,0,1-3.406-.371c-.743-.144-1.475-.27-2.19-.4-6.044-1.065-9.488-1.9-10.006-6.58a3.629,3.629,0,0,1,.606-2.806c1.195-1.468,4.061-1.738,6.829-2,1.153-.109,2.344-.221,3.427-.42a15.352,15.352,0,0,1,2.775-.259m0-.876a16.174,16.174,0,0,0-2.933.273C17.322,8.1,10.01,7.1,10.7,13.365s6.324,6.482,12.9,7.74a19.113,19.113,0,0,0,3.57.389c4.436,0,6.951-2.351,6.135-9.33C32.892,8.6,29.315,6.9,25.209,6.9h0Z" transform="translate(-10.658 -6.904)" fill="#e79da9" stroke="#312f30" stroke-width="1"/></g><g transform="translate(35.757 31.095)"><path d="M21.47,29.082c-1.5,0-3.013-1.041-5.227-3.584-4.38-5.038-6.8-8.174-5.609-13.983A2.7,2.7,0,0,1,13.513,9C15.906,9,19.28,10.761,22,12.177c.641.336,1.247.655,1.8.928,2.495,1.23,5.431,2.964,6,5.473.368,1.626-.277,3.507-1.924,5.6-2.67,3.4-4.646,4.909-6.4,4.909Z" transform="translate(-9.896 -8.565)" fill="#e79da9" stroke="#312f30" stroke-width="1"/><path d="M13.825,9.747h0c2.281,0,5.606,1.734,8.276,3.129.645.336,1.254.655,1.815.928,2.407,1.188,5.238,2.848,5.764,5.178.34,1.493-.28,3.251-1.839,5.231-2.579,3.279-4.45,4.744-6.061,4.744-1.342,0-2.806-1.027-4.9-3.437-4.288-4.933-6.657-8-5.508-13.608.312-1.514,1.044-2.162,2.453-2.162m0-.876a3.117,3.117,0,0,0-3.307,2.862C9.27,17.8,11.937,21.173,16.218,26.1c2.067,2.379,3.759,3.738,5.56,3.738,1.927,0,3.98-1.556,6.752-5.077,4.919-6.254.322-9.488-4.229-11.734-2.971-1.465-7.41-4.148-10.479-4.148h0Z" transform="translate(-10.207 -8.875)" fill="#e79da9" stroke="#312f30" stroke-width="1"/></g><g transform="translate(3.346 29.672)"><path d="M9.423,26.973A8.548,8.548,0,0,1,5.534,25.7a8.534,8.534,0,0,1-4.18-9.74c.69-2.708,2.53-4.46,4.688-4.46.54.028.753.039.964.039a22.127,22.127,0,0,0,6.78-1.57A19.391,19.391,0,0,1,19.461,8.6a3.564,3.564,0,0,1,3.248,1.668,5.013,5.013,0,0,1,.816,4.019c-.767,3.307-4.737,6.058-7.032,7.407a13.659,13.659,0,0,0-3.279,2.9c-1.2,1.335-2.141,2.389-3.791,2.389Z" transform="translate(-0.646 -8.151)" fill="#e79da9" stroke="#312f30" stroke-width="1"/><path d="M19.769,9.345a3.132,3.132,0,0,1,2.884,1.472,4.529,4.529,0,0,1,.753,3.679c-.732,3.15-4.59,5.816-6.825,7.126A14.055,14.055,0,0,0,13.2,24.607c-1.286,1.433-2.081,2.246-3.469,2.246a8.191,8.191,0,0,1-3.679-1.219,8.106,8.106,0,0,1-3.966-9.25c.638-2.512,2.309-4.134,4.26-4.134a2.853,2.853,0,0,1,.3.011c.221.018.445.025.673.025a22.474,22.474,0,0,0,6.92-1.591,19.1,19.1,0,0,1,5.536-1.349m0-.876c-3.57,0-8.374,2.943-12.455,2.943-.2,0-.406-.007-.6-.021-.123-.011-.245-.014-.364-.014-5.841,0-8.135,11-.711,15.027a8.883,8.883,0,0,0,4.1,1.324c3.146,0,3.991-3.42,7.291-5.35,4.4-2.579,9.618-7.126,6.359-12.046a4.021,4.021,0,0,0-3.612-1.864h0Z" transform="translate(-0.957 -8.469)" fill="#e79da9" stroke="#312f30" stroke-width="1"/></g><g transform="translate(14.888 13.941)"><circle cx="15.09" cy="15.09" r="15.09" fill="#efb541" stroke="#312f30" stroke-miterlimit="10" stroke-width="1"/><g transform="translate(7.908 9.964)"><g transform="translate(0 8.887)"><path d="M6.526,9.873a5.331,5.331,0,0,0,3.819,3.279A6.311,6.311,0,0,0,16.2,11.769c.406-.357-.189-.949-.6-.6a5.441,5.441,0,0,1-5.035,1.17,4.5,4.5,0,0,1-3.23-2.691c-.158-.515-.971-.294-.809.224h0Z" transform="translate(-6.508 -9.359)" fill="none"/><path d="M8.959,10.013a2.191,2.191,0,0,0,2.81,1.542.422.422,0,0,0-.224-.813,1.663,1.663,0,0,1-.175.053l-.088.018h-.028c-.046.014-.039.011.021,0a.427.427,0,0,1-.165.011c-.056,0-.109,0-.165,0l-.06-.007.053.007a.413.413,0,0,1-.088-.014,1.365,1.365,0,0,1-.172-.042c-.053-.014-.1-.035-.154-.053-.028-.011-.018-.007.032.014l-.039-.018-.077-.039a1.141,1.141,0,0,1-.14-.084l-.074-.049c-.081-.056.067.06-.007-.007s-.158-.158-.235-.242c-.035-.035.046.067,0,0l-.049-.074c-.032-.049-.06-.1-.088-.154-.018-.035-.06-.077-.007-.011a.275.275,0,0,1-.032-.084,1.7,1.7,0,0,1-.049-.179.427.427,0,0,0-.519-.294.432.432,0,0,0-.294.519h0Z" transform="translate(-0.417 -9.071)" fill="none"/></g><path d="M9.317,9.483c-.21,1.086-.956,2.113-1.717,1.973-.939-.175-1.156-1.4-.946-2.491s.753-2.319,1.794-2.12S9.531,8.4,9.321,9.483Z" transform="translate(-6.325 -6.823)" fill="none"/><g transform="translate(8.836 2.158)"><path d="M9.748,9.039c1.356-1.051,4-.522,4.425,1.268.126.526.939.3.809-.224-.592-2.463-4.008-3.055-5.83-1.64a.424.424,0,0,0,0,.6.431.431,0,0,0,.6,0h0Z" transform="translate(-9.03 -6.813)" fill="none"/><path d="M9.842,9.458a2.7,2.7,0,0,1,3.56-.82c.462.284.883-.441.424-.725A3.562,3.562,0,0,0,9.113,9.034c-.3.452.424.872.725.424h0Z" transform="translate(-9.001 -7.439)" fill="none"/><path d="M9.451,8.739a3.768,3.768,0,0,1,3.279,1.076.424.424,0,0,0,.6,0,.434.434,0,0,0,0-.6A4.538,4.538,0,0,0,9.451,7.9a.431.431,0,0,0-.42.42.424.424,0,0,0,.42.42Z" transform="translate(-9.028 -6.331)" fill="none"/></g></g></g></g></svg>