<svg id="Layer_1" data-name="Layer 1" xmlns="http://www.w3.org/2000/svg" viewBox="0 0 808 235.29"><defs><style>.cls-1,.cls-35{fill:#efb541;}.cls-2,.cls-32{fill:#35a293;}.cls-3,.cls-34{fill:#e79da9;}.cls-4{fill:#2b729b;}.cls-36,.cls-5{fill:#f6e1ce;}.cls-6{font-size:11.25px;font-family:Helvetica;letter-spacing:0.1em;}.cls-10,.cls-11,.cls-12,.cls-13,.cls-14,.cls-24,.cls-29,.cls-30,.cls-31,.cls-37,.cls-6,.cls-7,.cls-8,.cls-9{fill:#312f30;}.cls-10,.cls-11,.cls-12,.cls-13,.cls-17,.cls-18,.cls-19,.cls-20,.cls-21,.cls-22,.cls-23,.cls-7,.cls-8,.cls-9{stroke:#312f30;}.cls-10,.cls-11,.cls-12,.cls-13,.cls-17,.cls-18,.cls-19,.cls-20,.cls-21,.cls-22,.cls-23,.cls-46,.cls-7,.cls-8,.cls-9{stroke-miterlimit:10;}.cls-19,.cls-8{stroke-width:3px;}.cls-21,.cls-9{stroke-width:0.75px;}.cls-10,.cls-22{stroke-width:6px;}.cls-11,.cls-20{stroke-width:2px;}.cls-12,.cls-23{stroke-width:4px;}.cls-13,.cls-17{stroke-width:5px;}.cls-14{font-size:18.64px;letter-spacing:0.07em;}.cls-14,.cls-24{font-family:Righteous-Regular, Righteous;}.cls-15{letter-spacing:0.04em;}.cls-16{letter-spacing:0.07em;}.cls-17,.cls-18,.cls-19,.cls-20,.cls-21,.cls-22,.cls-23,.cls-44,.cls-46{fill:none;}.cls-24{font-size:54.2px;letter-spacing:0.01em;}.cls-25{letter-spacing:0.07em;}.cls-26{letter-spacing:0.05em;}.cls-27{letter-spacing:0.07em;}.cls-28{letter-spacing:0.05em;}.cls-29,.cls-30{font-size:31px;}.cls-29,.cls-31{font-family:OpenSansRoman-CondensedLight, Open Sans;}.cls-29,.cls-30,.cls-31{font-weight:300;}.cls-29{letter-spacing:0.02em;}.cls-30{font-family:OpenSansItalic-CondensedLightItalic, Open Sans;font-style:italic;letter-spacing:0.14em;}.cls-31{font-size:7.99px;letter-spacing:0.2em;}.cls-32,.cls-34,.cls-35,.cls-36{font-size:71px;letter-spacing:0.07em;}.cls-32,.cls-34,.cls-35,.cls-36,.cls-37{font-family:BellybeansFG, Bellybeans FG;}.cls-33{letter-spacing:-0.02em;}.cls-37{font-size:38px;letter-spacing:0.07em;}.cls-38{letter-spacing:0.06em;}.cls-39{letter-spacing:0.07em;}.cls-40{letter-spacing:0.03em;}.cls-41{letter-spacing:0.02em;}.cls-42{letter-spacing:0.02em;}.cls-43{opacity:0.34;}.cls-45{fill:#1d1d1b;}.cls-46{stroke:blue;}</style></defs><path class="cls-1" d="M789.44,24.79H575a12.48,12.48,0,0,1-24.94,0H18.56A18.56,18.56,0,0,0,0,43.35V201.23a18.56,18.56,0,0,0,18.56,18.56H550c0-.17,0-.33,0-.5a12.5,12.5,0,1,1,25,0c0,.17,0,.33,0,.5H789.44A18.56,18.56,0,0,0,808,201.23V43.35A18.56,18.56,0,0,0,789.44,24.79Z"/><circle class="cls-2" cx="636.21" cy="59.22" r="20.79"/><circle class="cls-2" cx="660.69" cy="86.91" r="20.79"/><circle class="cls-2" cx="644.23" cy="115.09" r="20.79"/><circle class="cls-2" cx="609.06" cy="107.16" r="20.79"/><circle class="cls-2" cx="605.59" cy="72.54" r="20.79"/><circle class="cls-3" cx="631.39" cy="89.35" r="17.34"/><circle class="cls-4" cx="167.21" cy="124.22" r="20.79"/><circle class="cls-4" cx="191.69" cy="151.91" r="20.79"/><circle class="cls-4" cx="175.23" cy="180.09" r="20.79"/><circle class="cls-4" cx="140.06" cy="172.16" r="20.79"/><circle class="cls-4" cx="136.59" cy="137.54" r="20.79"/><circle class="cls-5" cx="162.39" cy="154.35" r="17.34"/><circle class="cls-5" cx="704.56" cy="152.88" r="15.1"/><circle class="cls-5" cx="722.35" cy="172.99" r="15.1"/><circle class="cls-5" cx="710.39" cy="193.46" r="15.1"/><circle class="cls-5" cx="684.85" cy="187.71" r="15.1"/><circle class="cls-5" cx="682.32" cy="162.56" r="15.1"/><circle class="cls-3" cx="701.07" cy="174.77" r="12.6"/><circle class="cls-3" cx="459.38" cy="80.47" r="31.92"/><circle class="cls-3" cx="515.41" cy="89.59" r="31.92"/><circle class="cls-3" cx="523.23" cy="139.11" r="31.92"/><circle class="cls-3" cx="473.71" cy="163.87" r="31.92"/><circle class="cls-3" cx="435.92" cy="126.08" r="31.92"/><circle class="cls-4" cx="482.95" cy="120.98" r="26.63"/><text class="cls-6" transform="matrix(0, 1.44, -1, 0, 783.43, 40.79)">123456789876543</text><line class="cls-7" x1="740" y1="41.22" x2="779.48" y2="41.22"/><line class="cls-7" x1="740" y1="43.41" x2="779.48" y2="43.41"/><line class="cls-7" x1="740" y1="45.61" x2="779.48" y2="45.61"/><line class="cls-7" x1="740" y1="47.81" x2="779.48" y2="47.81"/><line class="cls-7" x1="740" y1="50" x2="779.48" y2="50"/><line class="cls-7" x1="740" y1="54.4" x2="779.48" y2="54.4"/><line class="cls-7" x1="740" y1="63.18" x2="779.48" y2="63.18"/><line class="cls-7" x1="740" y1="65.38" x2="779.48" y2="65.38"/><line class="cls-7" x1="740" y1="69.77" x2="779.48" y2="69.77"/><line class="cls-7" x1="740" y1="74.16" x2="779.48" y2="74.16"/><line class="cls-7" x1="740" y1="76.36" x2="779.48" y2="76.36"/><line class="cls-7" x1="740" y1="78.56" x2="779.48" y2="78.56"/><line class="cls-7" x1="740" y1="80.75" x2="779.48" y2="80.75"/><line class="cls-7" x1="740" y1="82.95" x2="779.48" y2="82.95"/><line class="cls-7" x1="740" y1="87.34" x2="779.48" y2="87.34"/><line class="cls-7" x1="740" y1="89.54" x2="779.48" y2="89.54"/><line class="cls-7" x1="740" y1="91.74" x2="779.48" y2="91.74"/><line class="cls-7" x1="740" y1="93.93" x2="779.48" y2="93.93"/><line class="cls-7" x1="740" y1="98.32" x2="779.48" y2="98.32"/><line class="cls-7" x1="740" y1="100.52" x2="779.48" y2="100.52"/><line class="cls-7" x1="740" y1="109.31" x2="779.48" y2="109.31"/><line class="cls-7" x1="740" y1="113.7" x2="779.48" y2="113.7"/><line class="cls-7" x1="740" y1="118.09" x2="779.48" y2="118.09"/><line class="cls-7" x1="740" y1="120.29" x2="779.48" y2="120.29"/><line class="cls-7" x1="740" y1="122.49" x2="779.48" y2="122.49"/><line class="cls-7" x1="740" y1="124.68" x2="779.48" y2="124.68"/><line class="cls-7" x1="740" y1="129.08" x2="779.48" y2="129.08"/><line class="cls-7" x1="740" y1="131.27" x2="779.48" y2="131.27"/><line class="cls-7" x1="740" y1="133.47" x2="779.48" y2="133.47"/><line class="cls-7" x1="740" y1="135.66" x2="779.48" y2="135.66"/><line class="cls-7" x1="740" y1="137.86" x2="779.48" y2="137.86"/><line class="cls-7" x1="740" y1="142.25" x2="779.48" y2="142.25"/><line class="cls-7" x1="740" y1="148.84" x2="779.48" y2="148.84"/><line class="cls-7" x1="740" y1="151.04" x2="779.48" y2="151.04"/><line class="cls-7" x1="740" y1="157.63" x2="779.48" y2="157.63"/><line class="cls-7" x1="740" y1="162.02" x2="779.48" y2="162.02"/><line class="cls-7" x1="740" y1="164.22" x2="779.48" y2="164.22"/><line class="cls-7" x1="740" y1="166.42" x2="779.48" y2="166.42"/><line class="cls-7" x1="740" y1="170.81" x2="779.48" y2="170.81"/><line class="cls-7" x1="740" y1="173" x2="779.48" y2="173"/><line class="cls-7" x1="740" y1="175.2" x2="779.48" y2="175.2"/><line class="cls-7" x1="740" y1="179.59" x2="779.48" y2="179.59"/><line class="cls-7" x1="740" y1="181.79" x2="779.48" y2="181.79"/><line class="cls-7" x1="740" y1="186.18" x2="779.48" y2="186.18"/><line class="cls-7" x1="740" y1="188.38" x2="779.48" y2="188.38"/><line class="cls-7" x1="740" y1="190.58" x2="779.48" y2="190.58"/><line class="cls-7" x1="740" y1="192.77" x2="779.48" y2="192.77"/><line class="cls-7" x1="740" y1="199.36" x2="779.48" y2="199.36"/><line class="cls-7" x1="740" y1="43.41" x2="779.48" y2="43.41"/><line class="cls-8" x1="740" y1="45.61" x2="779.48" y2="45.61"/><line class="cls-7" x1="740" y1="47.81" x2="779.48" y2="47.81"/><text/><line class="cls-7" x1="740" y1="65.38" x2="779.48" y2="65.38"/><line class="cls-9" x1="740" y1="69.77" x2="779.48" y2="69.77"/><line class="cls-7" x1="740" y1="74.16" x2="779.48" y2="74.16"/><line class="cls-7" x1="740" y1="76.36" x2="779.48" y2="76.36"/><line class="cls-10" x1="740" y1="78.56" x2="779.48" y2="78.56"/><line class="cls-7" x1="740" y1="80.75" x2="779.48" y2="80.75"/><line class="cls-7" x1="740" y1="82.95" x2="779.48" y2="82.95"/><line class="cls-7" x1="740" y1="87.34" x2="779.48" y2="87.34"/><line class="cls-8" x1="740" y1="89.54" x2="779.48" y2="89.54"/><line class="cls-7" x1="740" y1="91.74" x2="779.48" y2="91.74"/><line class="cls-11" x1="740" y1="98.32" x2="779.48" y2="98.32"/><line class="cls-7" x1="740" y1="100.52" x2="779.48" y2="100.52"/><line class="cls-7" x1="740" y1="109.31" x2="779.48" y2="109.31"/><line class="cls-7" x1="740" y1="113.7" x2="779.48" y2="113.7"/><line class="cls-7" x1="740" y1="120.29" x2="779.48" y2="120.29"/><line class="cls-12" x1="740" y1="122.49" x2="779.48" y2="122.49"/><line class="cls-7" x1="740" y1="124.68" x2="779.48" y2="124.68"/><line class="cls-11" x1="740" y1="129.08" x2="779.48" y2="129.08"/><line class="cls-7" x1="740" y1="133.47" x2="779.48" y2="133.47"/><line class="cls-8" x1="740" y1="135.66" x2="779.48" y2="135.66"/><text/><text/><line class="cls-7" x1="740" y1="162.02" x2="779.48" y2="162.02"/><line class="cls-11" x1="740" y1="164.22" x2="779.48" y2="164.22"/><line class="cls-7" x1="740" y1="166.42" x2="779.48" y2="166.42"/><line class="cls-13" x1="740" y1="173" x2="779.48" y2="173"/><line class="cls-7" x1="740" y1="175.2" x2="779.48" y2="175.2"/><line class="cls-11" x1="740" y1="181.79" x2="779.48" y2="181.79"/><line class="cls-7" x1="740" y1="186.18" x2="779.48" y2="186.18"/><line class="cls-13" x1="740" y1="188.38" x2="779.48" y2="188.38"/><line class="cls-7" x1="740" y1="190.58" x2="779.48" y2="190.58"/><line class="cls-7" x1="740" y1="192.77" x2="779.48" y2="192.77"/><text class="cls-14" transform="matrix(0, -0.87, 1, 0, 79.21, 176.91)">#12345<tspan class="cls-15" x="68.47" y="0">6</tspan><tspan class="cls-16" x="80.72" y="0">789</tspan></text><path class="cls-17" d="M61.14,168.33V81.53c0-7.86,4.27-14.23,9.53-14.23h0V47.37c0-1.28-.69-2.31-1.55-2.31H15.71c-.84,0-1.52,1-1.52,2.27V201.47c0,1.28.69,2.32,1.55,2.32H69.13c.85,0,1.54-1,1.54-2.3V182.56h0C65.41,182.56,61.14,176.19,61.14,168.33Z"/><line class="cls-18" x1="56.58" y1="194.54" x2="18.43" y2="194.54"/><line class="cls-18" x1="56.58" y1="192.59" x2="18.43" y2="192.59"/><line class="cls-18" x1="56.58" y1="190.64" x2="18.43" y2="190.64"/><line class="cls-18" x1="56.58" y1="188.7" x2="18.43" y2="188.7"/><line class="cls-18" x1="56.58" y1="186.75" x2="18.43" y2="186.75"/><line class="cls-18" x1="56.58" y1="182.85" x2="18.43" y2="182.85"/><line class="cls-18" x1="56.58" y1="175.06" x2="18.43" y2="175.06"/><line class="cls-18" x1="56.58" y1="173.12" x2="18.43" y2="173.12"/><line class="cls-18" x1="56.58" y1="169.22" x2="18.43" y2="169.22"/><line class="cls-18" x1="56.58" y1="165.33" x2="18.43" y2="165.33"/><line class="cls-18" x1="56.58" y1="163.38" x2="18.43" y2="163.38"/><line class="cls-18" x1="56.58" y1="161.43" x2="18.43" y2="161.43"/><line class="cls-18" x1="56.58" y1="159.48" x2="18.43" y2="159.48"/><line class="cls-18" x1="56.58" y1="157.53" x2="18.43" y2="157.53"/><line class="cls-18" x1="56.58" y1="153.64" x2="18.43" y2="153.64"/><line class="cls-18" x1="56.58" y1="151.69" x2="18.43" y2="151.69"/><line class="cls-18" x1="56.58" y1="149.74" x2="18.43" y2="149.74"/><line class="cls-18" x1="56.58" y1="147.8" x2="18.43" y2="147.8"/><line class="cls-18" x1="56.58" y1="143.9" x2="18.43" y2="143.9"/><line class="cls-18" x1="56.58" y1="141.95" x2="18.43" y2="141.95"/><line class="cls-18" x1="56.58" y1="134.16" x2="18.43" y2="134.16"/><line class="cls-18" x1="56.58" y1="130.27" x2="18.43" y2="130.27"/><line class="cls-18" x1="56.58" y1="126.37" x2="18.43" y2="126.37"/><line class="cls-18" x1="56.58" y1="124.43" x2="18.43" y2="124.43"/><line class="cls-18" x1="56.58" y1="122.48" x2="18.43" y2="122.48"/><line class="cls-18" x1="56.58" y1="120.53" x2="18.43" y2="120.53"/><line class="cls-18" x1="56.58" y1="116.64" x2="18.43" y2="116.64"/><line class="cls-18" x1="56.58" y1="114.69" x2="18.43" y2="114.69"/><line class="cls-18" x1="56.58" y1="112.74" x2="18.43" y2="112.74"/><line class="cls-18" x1="56.58" y1="110.79" x2="18.43" y2="110.79"/><line class="cls-18" x1="56.58" y1="108.84" x2="18.43" y2="108.84"/><line class="cls-18" x1="56.58" y1="104.95" x2="18.43" y2="104.95"/><line class="cls-18" x1="56.58" y1="99.11" x2="18.43" y2="99.11"/><line class="cls-18" x1="56.58" y1="97.16" x2="18.43" y2="97.16"/><line class="cls-18" x1="56.58" y1="91.32" x2="18.43" y2="91.32"/><line class="cls-18" x1="56.58" y1="87.42" x2="18.43" y2="87.42"/><line class="cls-18" x1="56.58" y1="85.47" x2="18.43" y2="85.47"/><line class="cls-18" x1="56.58" y1="83.53" x2="18.43" y2="83.53"/><line class="cls-18" x1="56.58" y1="79.63" x2="18.43" y2="79.63"/><line class="cls-18" x1="56.58" y1="77.68" x2="18.43" y2="77.68"/><line class="cls-18" x1="56.58" y1="75.74" x2="18.43" y2="75.74"/><line class="cls-18" x1="56.58" y1="71.84" x2="18.43" y2="71.84"/><line class="cls-18" x1="56.58" y1="69.89" x2="18.43" y2="69.89"/><line class="cls-18" x1="56.58" y1="66" x2="18.43" y2="66"/><line class="cls-18" x1="56.58" y1="64.05" x2="18.43" y2="64.05"/><line class="cls-18" x1="56.58" y1="62.1" x2="18.43" y2="62.1"/><line class="cls-18" x1="56.58" y1="60.16" x2="18.43" y2="60.16"/><line class="cls-18" x1="56.58" y1="54.31" x2="18.43" y2="54.31"/><line class="cls-18" x1="56.58" y1="192.59" x2="18.43" y2="192.59"/><line class="cls-19" x1="56.58" y1="190.64" x2="18.43" y2="190.64"/><line class="cls-18" x1="56.58" y1="188.7" x2="18.43" y2="188.7"/><line class="cls-20" x1="56.58" y1="175.06" x2="18.43" y2="175.06"/><line class="cls-18" x1="56.58" y1="173.12" x2="18.43" y2="173.12"/><line class="cls-21" x1="56.58" y1="169.22" x2="18.43" y2="169.22"/><line class="cls-18" x1="56.58" y1="165.33" x2="18.43" y2="165.33"/><line class="cls-18" x1="56.58" y1="163.38" x2="18.43" y2="163.38"/><line class="cls-22" x1="56.58" y1="161.43" x2="18.43" y2="161.43"/><line class="cls-18" x1="56.58" y1="159.48" x2="18.43" y2="159.48"/><line class="cls-18" x1="56.58" y1="157.53" x2="18.43" y2="157.53"/><line class="cls-18" x1="56.58" y1="153.64" x2="18.43" y2="153.64"/><line class="cls-19" x1="56.58" y1="151.69" x2="18.43" y2="151.69"/><line class="cls-18" x1="56.58" y1="149.74" x2="18.43" y2="149.74"/><line class="cls-20" x1="56.58" y1="143.9" x2="18.43" y2="143.9"/><line class="cls-18" x1="56.58" y1="141.95" x2="18.43" y2="141.95"/><line class="cls-18" x1="56.58" y1="134.16" x2="18.43" y2="134.16"/><line class="cls-18" x1="56.58" y1="130.27" x2="18.43" y2="130.27"/><line class="cls-18" x1="56.58" y1="124.43" x2="18.43" y2="124.43"/><line class="cls-23" x1="56.58" y1="122.48" x2="18.43" y2="122.48"/><line class="cls-18" x1="56.58" y1="120.53" x2="18.43" y2="120.53"/><line class="cls-20" x1="56.58" y1="116.64" x2="18.43" y2="116.64"/><line class="cls-18" x1="56.58" y1="112.74" x2="18.43" y2="112.74"/><line class="cls-19" x1="56.58" y1="110.79" x2="18.43" y2="110.79"/><line class="cls-18" x1="56.58" y1="108.84" x2="18.43" y2="108.84"/><line class="cls-21" x1="56.58" y1="97.16" x2="18.43" y2="97.16"/><line class="cls-18" x1="56.58" y1="87.42" x2="18.43" y2="87.42"/><line class="cls-20" x1="56.58" y1="85.47" x2="18.43" y2="85.47"/><line class="cls-18" x1="56.58" y1="83.53" x2="18.43" y2="83.53"/><line class="cls-17" x1="56.58" y1="77.68" x2="18.43" y2="77.68"/><line class="cls-18" x1="56.58" y1="75.74" x2="18.43" y2="75.74"/><line class="cls-20" x1="56.58" y1="69.89" x2="18.43" y2="69.89"/><line class="cls-18" x1="56.58" y1="66" x2="18.43" y2="66"/><line class="cls-17" x1="56.58" y1="64.05" x2="18.43" y2="64.05"/><line class="cls-18" x1="56.58" y1="62.1" x2="18.43" y2="62.1"/><line class="cls-18" x1="56.58" y1="60.16" x2="18.43" y2="60.16"/><text class="cls-24" transform="matrix(0, -0.44, 1, 0, 680.08, 211.79)">F<tspan class="cls-25" x="30.95" y="0">esti</tspan><tspan class="cls-26" x="139.5" y="0">v</tspan><tspan class="cls-27" x="171.32" y="0">al tic</tspan><tspan class="cls-28" x="319.81" y="0">k</tspan><tspan class="cls-25" x="351.95" y="0">et</tspan></text><text class="cls-29" transform="matrix(0, -0.7, 1, 0, 708.57, 194.26)">01/08 - 07/08 2022</text><text class="cls-30" transform="translate(214.76 154.59) scale(0.7 1)">01/08 - 07/08 2022</text><text class="cls-31" transform="translate(219.45 210.64) scale(1.72 1)">SPONSORED BY VALKYRIE</text><text class="cls-32" transform="translate(91.41 112.17)">FOOFESTI<tspan class="cls-33" x="300.18" y="0">V</tspan><tspan x="341.79" y="0">AL</tspan></text><text class="cls-34" transform="translate(95.41 108.17)">FOOFESTI<tspan class="cls-33" x="300.18" y="0">V</tspan><tspan x="341.79" y="0">AL</tspan></text><text class="cls-35" transform="translate(99.41 104.17)">FOOFESTI<tspan class="cls-33" x="300.18" y="0">V</tspan><tspan x="341.79" y="0">AL</tspan></text><text class="cls-36" transform="translate(103.41 100.17)">FOOFESTI<tspan class="cls-33" x="300.18" y="0">V</tspan><tspan x="341.79" y="0">AL</tspan></text><text class="cls-37" transform="translate(182.41 189.27)">mus<tspan class="cls-38" x="65.32" y="0">i</tspan><tspan class="cls-39" x="79.91" y="0">c </tspan><tspan class="cls-40" x="111.26" y="0">f</tspan><tspan class="cls-39" x="127.22" y="0">est</tspan><tspan class="cls-41" x="179.02" y="0">i</tspan><tspan class="cls-42" x="192.32" y="0">v</tspan><tspan x="212.42" y="0">al</tspan></text><g class="cls-43"><rect class="cls-44" x="555" y="36.29" width="15" height="21.25"/><rect class="cls-45" x="561.5" y="37.47" width="2" height="5.66"/><rect class="cls-45" x="561.5" y="45.49" width="2" height="2.83"/><rect class="cls-45" x="561.5" y="50.68" width="2" height="5.66"/><rect class="cls-44" x="555" y="57.54" width="15" height="21.25"/><rect class="cls-45" x="561.5" y="58.72" width="2" height="5.66"/><rect class="cls-45" x="561.5" y="66.74" width="2" height="2.83"/><rect class="cls-45" x="561.5" y="71.93" width="2" height="5.66"/><rect class="cls-44" x="555" y="78.79" width="15" height="21.25"/><rect class="cls-45" x="561.5" y="79.97" width="2" height="5.66"/><rect class="cls-45" x="561.5" y="87.99" width="2" height="2.83"/><rect class="cls-45" x="561.5" y="93.18" width="2" height="5.66"/><rect class="cls-44" x="555" y="100.04" width="15" height="21.25"/><rect class="cls-45" x="561.5" y="101.22" width="2" height="5.66"/><rect class="cls-45" x="561.5" y="109.24" width="2" height="2.83"/><rect class="cls-45" x="561.5" y="114.43" width="2" height="5.66"/><rect class="cls-44" x="555" y="121.29" width="15" height="21.25"/><rect class="cls-45" x="561.5" y="122.47" width="2" height="5.66"/><rect class="cls-45" x="561.5" y="130.49" width="2" height="2.83"/><rect class="cls-45" x="561.5" y="135.68" width="2" height="5.66"/><rect class="cls-44" x="555" y="142.54" width="15" height="21.25"/><rect class="cls-45" x="561.5" y="143.72" width="2" height="5.66"/><rect class="cls-45" x="561.5" y="151.74" width="2" height="2.83"/><rect class="cls-45" x="561.5" y="156.93" width="2" height="5.66"/><rect class="cls-44" x="555" y="163.79" width="15" height="21.25"/><rect class="cls-45" x="561.5" y="164.97" width="2" height="5.66"/><rect class="cls-45" x="561.5" y="172.99" width="2" height="2.83"/><rect class="cls-45" x="561.5" y="178.18" width="2" height="5.66"/><rect class="cls-44" x="555" y="185.04" width="15" height="21.25"/><rect class="cls-45" x="561.5" y="186.22" width="2" height="5.66"/><rect class="cls-45" x="561.5" y="194.24" width="2" height="2.83"/><rect class="cls-45" x="561.5" y="199.43" width="2" height="5.66"/></g><line class="cls-46" x1="567.5" y1="234.29" x2="567.5" y2="235.29"/></svg>