<?xml version="1.0" encoding="UTF-8"?>
<svg id="Layer_1" data-name="Layer 1" xmlns="http://www.w3.org/2000/svg" viewBox="0 0 808 195">
  <defs>
    <style>
      .cls-1 {
        letter-spacing: 0em;
      }

      .cls-2, .cls-3, .cls-4, .cls-5, .cls-6, .cls-7, .cls-8, .cls-9, .cls-10, .cls-11, .cls-12, .cls-13, .cls-14, .cls-15 {
        stroke: #312f30;
        stroke-miterlimit: 10;
      }

      .cls-2, .cls-4, .cls-7, .cls-8, .cls-9, .cls-10, .cls-16, .cls-15 {
        fill: none;
      }

      .cls-2, .cls-13 {
        stroke-width: 2px;
      }

      .cls-17 {
        letter-spacing: -.02em;
      }

      .cls-3, .cls-5, .cls-6, .cls-18, .cls-19, .cls-11, .cls-12, .cls-13, .cls-20, .cls-14, .cls-21, .cls-22, .cls-23, .cls-24 {
        fill: #312f30;
      }

      .cls-3, .cls-10 {
        stroke-width: 5px;
      }

      .cls-25 {
        letter-spacing: .02em;
      }

      .cls-26 {
        letter-spacing: .07em;
      }

      .cls-27 {
        letter-spacing: .02em;
      }

      .cls-4, .cls-11 {
        stroke-width: 6px;
      }

      .cls-5, .cls-7 {
        stroke-width: .75px;
      }

      .cls-28 {
        letter-spacing: .03em;
      }

      .cls-29, .cls-30 {
        fill: #35a293;
      }

      .cls-6, .cls-9 {
        stroke-width: 3px;
      }

      .cls-31, .cls-32 {
        fill: #e79da9;
      }

      .cls-33 {
        letter-spacing: .07em;
      }

      .cls-18 {
        font-size: 7.99px;
        letter-spacing: .2em;
      }

      .cls-18, .cls-21 {
        font-family: OpenSansRoman-CondensedLight, 'Open Sans';
      }

      .cls-18, .cls-21, .cls-24 {
        font-variation-settings: 'wght' 300, 'wdth' 75;
      }

      .cls-19 {
        font-size: 18.64px;
      }

      .cls-19, .cls-23 {
        font-family: Righteous-Regular, Righteous;
      }

      .cls-34 {
        letter-spacing: .07em;
      }

      .cls-35 {
        letter-spacing: .05em;
      }

      .cls-36, .cls-37 {
        fill: #f6e1ce;
      }

      .cls-38 {
        letter-spacing: .07em;
      }

      .cls-39 {
        opacity: .34;
      }

      .cls-40 {
        letter-spacing: .04em;
      }

      .cls-41 {
        letter-spacing: .07em;
      }

      .cls-42 {
        fill: #2b729b;
      }

      .cls-43, .cls-44 {
        fill: #efb541;
      }

      .cls-37, .cls-30, .cls-32, .cls-22, .cls-44 {
        font-family: BellybeansFG, 'Bellybeans FG';
      }

      .cls-37, .cls-30, .cls-32, .cls-44 {
        font-size: 71px;
      }

      .cls-45 {
        letter-spacing: .05em;
      }

      .cls-12, .cls-15 {
        stroke-width: 4px;
      }

      .cls-20 {
        font-family: Helvetica, Helvetica;
        font-size: 11.25px;
        letter-spacing: .1em;
      }

      .cls-21 {
        font-size: 19px;
        letter-spacing: .02em;
      }

      .cls-22 {
        font-size: 38px;
      }

      .cls-23 {
        font-size: 54.2px;
      }

      .cls-46 {
        letter-spacing: .06em;
      }

      .cls-24 {
        font-family: OpenSansItalic-CondensedLightItalic, 'Open Sans';
        font-size: 31px;
        letter-spacing: .14em;
      }

      .cls-47 {
        letter-spacing: .07em;
      }

      .cls-48 {
        fill: #1d1d1b;
      }
    </style>
  </defs>
  <path class="cls-43" d="M789.44,0h-214.46c-.26,6.67-5.74,12-12.47,12s-12.21-5.33-12.47-12H18.56C8.31,0,0,8.31,0,18.56V176.44C0,186.69,8.31,195,18.56,195H550.03c0-.17-.03-.33-.03-.5,0-6.9,5.6-12.5,12.5-12.5s12.5,5.6,12.5,12.5c0,.17-.02,.33-.03,.5h214.46c10.25,0,18.56-8.31,18.56-18.56V18.56c0-10.25-8.31-18.56-18.56-18.56Z"/>
  <g>
    <g>
      <circle class="cls-29" cx="636.21" cy="34.43" r="20.79"/>
      <circle class="cls-29" cx="660.69" cy="62.12" r="20.79"/>
      <circle class="cls-29" cx="644.23" cy="90.3" r="20.79"/>
      <circle class="cls-29" cx="609.06" cy="82.37" r="20.79"/>
      <circle class="cls-29" cx="605.59" cy="47.75" r="20.79"/>
    </g>
    <circle class="cls-31" cx="631.39" cy="64.56" r="17.34"/>
  </g>
  <g>
    <g>
      <circle class="cls-42" cx="167.21" cy="99.43" r="20.79"/>
      <circle class="cls-42" cx="191.69" cy="127.12" r="20.79"/>
      <circle class="cls-42" cx="175.23" cy="155.3" r="20.79"/>
      <circle class="cls-42" cx="140.06" cy="147.37" r="20.79"/>
      <circle class="cls-42" cx="136.59" cy="112.75" r="20.79"/>
    </g>
    <circle class="cls-36" cx="162.39" cy="129.56" r="17.34"/>
  </g>
  <g>
    <g>
      <circle class="cls-36" cx="704.56" cy="128.09" r="15.1"/>
      <circle class="cls-36" cx="722.35" cy="148.2" r="15.1"/>
      <circle class="cls-36" cx="710.39" cy="168.67" r="15.1"/>
      <circle class="cls-36" cx="684.85" cy="162.92" r="15.1"/>
      <circle class="cls-36" cx="682.32" cy="137.77" r="15.1"/>
    </g>
    <circle class="cls-31" cx="701.07" cy="149.98" r="12.6"/>
  </g>
  <g>
    <g>
      <circle class="cls-31" cx="459.38" cy="55.68" r="31.92"/>
      <circle class="cls-31" cx="515.41" cy="64.8" r="31.92"/>
      <circle class="cls-31" cx="523.23" cy="114.32" r="31.92"/>
      <circle class="cls-31" cx="473.71" cy="139.08" r="31.92"/>
      <circle class="cls-31" cx="435.92" cy="101.29" r="31.92"/>
    </g>
    <circle class="cls-42" cx="482.95" cy="96.19" r="26.63"/>
  </g>
  <g>
    <text class="cls-20" transform="translate(783.44 15.98) rotate(90) scale(1.44 1)"><tspan x="0" y="0">123456789876543</tspan></text>
    <line class="cls-14" x1="740" y1="16.43" x2="779.48" y2="16.43"/>
    <line class="cls-14" x1="740" y1="18.62" x2="779.48" y2="18.62"/>
    <line class="cls-14" x1="740" y1="20.82" x2="779.48" y2="20.82"/>
    <line class="cls-14" x1="740" y1="23.02" x2="779.48" y2="23.02"/>
    <line class="cls-14" x1="740" y1="25.21" x2="779.48" y2="25.21"/>
    <line class="cls-14" x1="740" y1="29.61" x2="779.48" y2="29.61"/>
    <line class="cls-14" x1="740" y1="38.39" x2="779.48" y2="38.39"/>
    <line class="cls-14" x1="740" y1="40.59" x2="779.48" y2="40.59"/>
    <line class="cls-14" x1="740" y1="44.98" x2="779.48" y2="44.98"/>
    <line class="cls-14" x1="740" y1="49.37" x2="779.48" y2="49.37"/>
    <line class="cls-14" x1="740" y1="51.57" x2="779.48" y2="51.57"/>
    <line class="cls-14" x1="740" y1="53.77" x2="779.48" y2="53.77"/>
    <line class="cls-14" x1="740" y1="55.96" x2="779.48" y2="55.96"/>
    <line class="cls-14" x1="740" y1="58.16" x2="779.48" y2="58.16"/>
    <line class="cls-14" x1="740" y1="62.55" x2="779.48" y2="62.55"/>
    <line class="cls-14" x1="740" y1="64.75" x2="779.48" y2="64.75"/>
    <line class="cls-14" x1="740" y1="66.95" x2="779.48" y2="66.95"/>
    <line class="cls-14" x1="740" y1="69.14" x2="779.48" y2="69.14"/>
    <line class="cls-14" x1="740" y1="73.53" x2="779.48" y2="73.53"/>
    <line class="cls-14" x1="740" y1="75.73" x2="779.48" y2="75.73"/>
    <line class="cls-14" x1="740" y1="84.52" x2="779.48" y2="84.52"/>
    <line class="cls-14" x1="740" y1="88.91" x2="779.48" y2="88.91"/>
    <line class="cls-14" x1="740" y1="93.3" x2="779.48" y2="93.3"/>
    <line class="cls-14" x1="740" y1="95.5" x2="779.48" y2="95.5"/>
    <line class="cls-14" x1="740" y1="97.7" x2="779.48" y2="97.7"/>
    <line class="cls-14" x1="740" y1="99.89" x2="779.48" y2="99.89"/>
    <line class="cls-14" x1="740" y1="104.29" x2="779.48" y2="104.29"/>
    <line class="cls-14" x1="740" y1="106.48" x2="779.48" y2="106.48"/>
    <line class="cls-14" x1="740" y1="108.68" x2="779.48" y2="108.68"/>
    <line class="cls-14" x1="740" y1="110.87" x2="779.48" y2="110.87"/>
    <line class="cls-14" x1="740" y1="113.07" x2="779.48" y2="113.07"/>
    <line class="cls-14" x1="740" y1="117.46" x2="779.48" y2="117.46"/>
    <line class="cls-14" x1="740" y1="124.05" x2="779.48" y2="124.05"/>
    <line class="cls-14" x1="740" y1="126.25" x2="779.48" y2="126.25"/>
    <line class="cls-14" x1="740" y1="132.84" x2="779.48" y2="132.84"/>
    <line class="cls-14" x1="740" y1="137.23" x2="779.48" y2="137.23"/>
    <line class="cls-14" x1="740" y1="139.43" x2="779.48" y2="139.43"/>
    <line class="cls-14" x1="740" y1="141.63" x2="779.48" y2="141.63"/>
    <line class="cls-14" x1="740" y1="146.02" x2="779.48" y2="146.02"/>
    <line class="cls-14" x1="740" y1="148.21" x2="779.48" y2="148.21"/>
    <line class="cls-14" x1="740" y1="150.41" x2="779.48" y2="150.41"/>
    <line class="cls-14" x1="740" y1="154.8" x2="779.48" y2="154.8"/>
    <line class="cls-14" x1="740" y1="157" x2="779.48" y2="157"/>
    <line class="cls-14" x1="740" y1="161.39" x2="779.48" y2="161.39"/>
    <line class="cls-14" x1="740" y1="163.59" x2="779.48" y2="163.59"/>
    <line class="cls-14" x1="740" y1="165.79" x2="779.48" y2="165.79"/>
    <line class="cls-14" x1="740" y1="167.98" x2="779.48" y2="167.98"/>
    <line class="cls-14" x1="740" y1="174.57" x2="779.48" y2="174.57"/>
    <line class="cls-14" x1="740" y1="18.62" x2="779.48" y2="18.62"/>
    <line class="cls-6" x1="740" y1="20.82" x2="779.48" y2="20.82"/>
    <line class="cls-14" x1="740" y1="23.02" x2="779.48" y2="23.02"/>
    <text/>
    <line class="cls-14" x1="740" y1="40.59" x2="779.48" y2="40.59"/>
    <line class="cls-5" x1="740" y1="44.98" x2="779.48" y2="44.98"/>
    <line class="cls-14" x1="740" y1="49.37" x2="779.48" y2="49.37"/>
    <line class="cls-14" x1="740" y1="51.57" x2="779.48" y2="51.57"/>
    <line class="cls-11" x1="740" y1="53.77" x2="779.48" y2="53.77"/>
    <line class="cls-14" x1="740" y1="55.96" x2="779.48" y2="55.96"/>
    <line class="cls-14" x1="740" y1="58.16" x2="779.48" y2="58.16"/>
    <line class="cls-14" x1="740" y1="62.55" x2="779.48" y2="62.55"/>
    <line class="cls-6" x1="740" y1="64.75" x2="779.48" y2="64.75"/>
    <line class="cls-14" x1="740" y1="66.95" x2="779.48" y2="66.95"/>
    <line class="cls-13" x1="740" y1="73.53" x2="779.48" y2="73.53"/>
    <line class="cls-14" x1="740" y1="75.73" x2="779.48" y2="75.73"/>
    <line class="cls-14" x1="740" y1="84.52" x2="779.48" y2="84.52"/>
    <line class="cls-14" x1="740" y1="88.91" x2="779.48" y2="88.91"/>
    <line class="cls-14" x1="740" y1="95.5" x2="779.48" y2="95.5"/>
    <line class="cls-12" x1="740" y1="97.7" x2="779.48" y2="97.7"/>
    <line class="cls-14" x1="740" y1="99.89" x2="779.48" y2="99.89"/>
    <line class="cls-13" x1="740" y1="104.29" x2="779.48" y2="104.29"/>
    <line class="cls-14" x1="740" y1="108.68" x2="779.48" y2="108.68"/>
    <line class="cls-6" x1="740" y1="110.87" x2="779.48" y2="110.87"/>
    <text/>
    <text/>
    <line class="cls-14" x1="740" y1="137.23" x2="779.48" y2="137.23"/>
    <line class="cls-13" x1="740" y1="139.43" x2="779.48" y2="139.43"/>
    <line class="cls-14" x1="740" y1="141.63" x2="779.48" y2="141.63"/>
    <line class="cls-3" x1="740" y1="148.21" x2="779.48" y2="148.21"/>
    <line class="cls-14" x1="740" y1="150.41" x2="779.48" y2="150.41"/>
    <line class="cls-13" x1="740" y1="157" x2="779.48" y2="157"/>
    <line class="cls-14" x1="740" y1="161.39" x2="779.48" y2="161.39"/>
    <line class="cls-3" x1="740" y1="163.59" x2="779.48" y2="163.59"/>
    <line class="cls-14" x1="740" y1="165.79" x2="779.48" y2="165.79"/>
    <line class="cls-14" x1="740" y1="167.98" x2="779.48" y2="167.98"/>
  </g>
  <g>
    <text class="cls-19" transform="translate(79.22 152.11) rotate(-90) scale(.87 1)"><tspan class="cls-34" x="0" y="0">#12345</tspan><tspan class="cls-40" x="68.47" y="0">6</tspan><tspan class="cls-41" x="80.72" y="0">789</tspan></text>
    <path class="cls-10" d="M61.14,143.54V56.74c0-7.86,4.27-14.23,9.53-14.23h0V22.58c0-1.27-.69-2.31-1.54-2.31H15.71c-.84,0-1.52,1.02-1.52,2.27V176.68c0,1.28,.7,2.32,1.56,2.32h53.39c.85,0,1.54-1.03,1.54-2.3v-18.94h0c-5.26,0-9.53-6.37-9.53-14.23Z"/>
    <line class="cls-8" x1="56.58" y1="169.75" x2="18.43" y2="169.75"/>
    <line class="cls-8" x1="56.58" y1="167.8" x2="18.43" y2="167.8"/>
    <line class="cls-8" x1="56.58" y1="165.85" x2="18.43" y2="165.85"/>
    <line class="cls-8" x1="56.58" y1="163.91" x2="18.43" y2="163.91"/>
    <line class="cls-8" x1="56.58" y1="161.96" x2="18.43" y2="161.96"/>
    <line class="cls-8" x1="56.58" y1="158.06" x2="18.43" y2="158.06"/>
    <line class="cls-8" x1="56.58" y1="150.27" x2="18.43" y2="150.27"/>
    <line class="cls-8" x1="56.58" y1="148.33" x2="18.43" y2="148.33"/>
    <line class="cls-8" x1="56.58" y1="144.43" x2="18.43" y2="144.43"/>
    <line class="cls-8" x1="56.58" y1="140.54" x2="18.43" y2="140.54"/>
    <line class="cls-8" x1="56.58" y1="138.59" x2="18.43" y2="138.59"/>
    <line class="cls-8" x1="56.58" y1="136.64" x2="18.43" y2="136.64"/>
    <line class="cls-8" x1="56.58" y1="134.69" x2="18.43" y2="134.69"/>
    <line class="cls-8" x1="56.58" y1="132.74" x2="18.43" y2="132.74"/>
    <line class="cls-8" x1="56.58" y1="128.85" x2="18.43" y2="128.85"/>
    <line class="cls-8" x1="56.58" y1="126.9" x2="18.43" y2="126.9"/>
    <line class="cls-8" x1="56.58" y1="124.95" x2="18.43" y2="124.95"/>
    <line class="cls-8" x1="56.58" y1="123.01" x2="18.43" y2="123.01"/>
    <line class="cls-8" x1="56.58" y1="119.11" x2="18.43" y2="119.11"/>
    <line class="cls-8" x1="56.58" y1="117.16" x2="18.43" y2="117.16"/>
    <line class="cls-8" x1="56.58" y1="109.37" x2="18.43" y2="109.37"/>
    <line class="cls-8" x1="56.58" y1="105.48" x2="18.43" y2="105.48"/>
    <line class="cls-8" x1="56.58" y1="101.58" x2="18.43" y2="101.58"/>
    <line class="cls-8" x1="56.58" y1="99.64" x2="18.43" y2="99.64"/>
    <line class="cls-8" x1="56.58" y1="97.69" x2="18.43" y2="97.69"/>
    <line class="cls-8" x1="56.58" y1="95.74" x2="18.43" y2="95.74"/>
    <line class="cls-8" x1="56.58" y1="91.85" x2="18.43" y2="91.85"/>
    <line class="cls-8" x1="56.58" y1="89.9" x2="18.43" y2="89.9"/>
    <line class="cls-8" x1="56.58" y1="87.95" x2="18.43" y2="87.95"/>
    <line class="cls-8" x1="56.58" y1="86" x2="18.43" y2="86"/>
    <line class="cls-8" x1="56.58" y1="84.05" x2="18.43" y2="84.05"/>
    <line class="cls-8" x1="56.58" y1="80.16" x2="18.43" y2="80.16"/>
    <line class="cls-8" x1="56.58" y1="74.32" x2="18.43" y2="74.32"/>
    <line class="cls-8" x1="56.58" y1="72.37" x2="18.43" y2="72.37"/>
    <line class="cls-8" x1="56.58" y1="66.53" x2="18.43" y2="66.53"/>
    <line class="cls-8" x1="56.58" y1="62.63" x2="18.43" y2="62.63"/>
    <line class="cls-8" x1="56.58" y1="60.68" x2="18.43" y2="60.68"/>
    <line class="cls-8" x1="56.58" y1="58.74" x2="18.43" y2="58.74"/>
    <line class="cls-8" x1="56.58" y1="54.84" x2="18.43" y2="54.84"/>
    <line class="cls-8" x1="56.58" y1="52.89" x2="18.43" y2="52.89"/>
    <line class="cls-8" x1="56.58" y1="50.95" x2="18.43" y2="50.95"/>
    <line class="cls-8" x1="56.58" y1="47.05" x2="18.43" y2="47.05"/>
    <line class="cls-8" x1="56.58" y1="45.1" x2="18.43" y2="45.1"/>
    <line class="cls-8" x1="56.58" y1="41.21" x2="18.43" y2="41.21"/>
    <line class="cls-8" x1="56.58" y1="39.26" x2="18.43" y2="39.26"/>
    <line class="cls-8" x1="56.58" y1="37.31" x2="18.43" y2="37.31"/>
    <line class="cls-8" x1="56.58" y1="35.37" x2="18.43" y2="35.37"/>
    <line class="cls-8" x1="56.58" y1="29.52" x2="18.43" y2="29.52"/>
    <line class="cls-8" x1="56.58" y1="167.8" x2="18.43" y2="167.8"/>
    <line class="cls-9" x1="56.58" y1="165.85" x2="18.43" y2="165.85"/>
    <line class="cls-8" x1="56.58" y1="163.91" x2="18.43" y2="163.91"/>
    <line class="cls-2" x1="56.58" y1="150.27" x2="18.43" y2="150.27"/>
    <line class="cls-8" x1="56.58" y1="148.33" x2="18.43" y2="148.33"/>
    <line class="cls-7" x1="56.58" y1="144.43" x2="18.43" y2="144.43"/>
    <line class="cls-8" x1="56.58" y1="140.54" x2="18.43" y2="140.54"/>
    <line class="cls-8" x1="56.58" y1="138.59" x2="18.43" y2="138.59"/>
    <line class="cls-4" x1="56.58" y1="136.64" x2="18.43" y2="136.64"/>
    <line class="cls-8" x1="56.58" y1="134.69" x2="18.43" y2="134.69"/>
    <line class="cls-8" x1="56.58" y1="132.74" x2="18.43" y2="132.74"/>
    <line class="cls-8" x1="56.58" y1="128.85" x2="18.43" y2="128.85"/>
    <line class="cls-9" x1="56.58" y1="126.9" x2="18.43" y2="126.9"/>
    <line class="cls-8" x1="56.58" y1="124.95" x2="18.43" y2="124.95"/>
    <line class="cls-2" x1="56.58" y1="119.11" x2="18.43" y2="119.11"/>
    <line class="cls-8" x1="56.58" y1="117.16" x2="18.43" y2="117.16"/>
    <line class="cls-8" x1="56.58" y1="109.37" x2="18.43" y2="109.37"/>
    <line class="cls-8" x1="56.58" y1="105.48" x2="18.43" y2="105.48"/>
    <line class="cls-8" x1="56.58" y1="99.64" x2="18.43" y2="99.64"/>
    <line class="cls-15" x1="56.58" y1="97.69" x2="18.43" y2="97.69"/>
    <line class="cls-8" x1="56.58" y1="95.74" x2="18.43" y2="95.74"/>
    <line class="cls-2" x1="56.58" y1="91.85" x2="18.43" y2="91.85"/>
    <line class="cls-8" x1="56.58" y1="87.95" x2="18.43" y2="87.95"/>
    <line class="cls-9" x1="56.58" y1="86" x2="18.43" y2="86"/>
    <line class="cls-8" x1="56.58" y1="84.05" x2="18.43" y2="84.05"/>
    <line class="cls-7" x1="56.58" y1="72.37" x2="18.43" y2="72.37"/>
    <line class="cls-8" x1="56.58" y1="62.63" x2="18.43" y2="62.63"/>
    <line class="cls-2" x1="56.58" y1="60.68" x2="18.43" y2="60.68"/>
    <line class="cls-8" x1="56.58" y1="58.74" x2="18.43" y2="58.74"/>
    <line class="cls-10" x1="56.58" y1="52.89" x2="18.43" y2="52.89"/>
    <line class="cls-8" x1="56.58" y1="50.95" x2="18.43" y2="50.95"/>
    <line class="cls-2" x1="56.58" y1="45.1" x2="18.43" y2="45.1"/>
    <line class="cls-8" x1="56.58" y1="41.21" x2="18.43" y2="41.21"/>
    <line class="cls-10" x1="56.58" y1="39.26" x2="18.43" y2="39.26"/>
    <line class="cls-8" x1="56.58" y1="37.31" x2="18.43" y2="37.31"/>
    <line class="cls-8" x1="56.58" y1="35.37" x2="18.43" y2="35.37"/>
  </g>
  <text class="cls-23" transform="translate(680.08 187) rotate(-90) scale(.44 1)"><tspan class="cls-1" x="0" y="0">F</tspan><tspan class="cls-33" x="30.95" y="0">esti</tspan><tspan class="cls-45" x="139.5" y="0">v</tspan><tspan class="cls-33" x="171.32" y="0">al tic</tspan><tspan class="cls-35" x="319.81" y="0">k</tspan><tspan class="cls-33" x="351.95" y="0">et</tspan></text>
  <text class="cls-21" transform="translate(704.57 144.47) rotate(-90) scale(.7 1)"><tspan x="0" y="0">01/08 - 07/08 2022</tspan></text>
  <text class="cls-24" transform="translate(214.76 129.8) scale(.7 1)"><tspan x="0" y="0">01/08 - 07/08 2022</tspan></text>
  <text class="cls-18" transform="translate(219.45 185.85) scale(1.72 1)"><tspan x="0" y="0">SPONSORED BY VALKYRIE</tspan></text>
  <g>
    <text class="cls-30" transform="translate(91.41 87.38)"><tspan class="cls-47" x="0" y="0">FOOFESTI</tspan><tspan class="cls-17" x="300.18" y="0">V</tspan><tspan class="cls-47" x="341.79" y="0">AL</tspan></text>
    <text class="cls-32" transform="translate(95.41 83.38)"><tspan class="cls-47" x="0" y="0">FOOFESTI</tspan><tspan class="cls-17" x="300.18" y="0">V</tspan><tspan class="cls-47" x="341.79" y="0">AL</tspan></text>
    <text class="cls-44" transform="translate(99.41 79.38)"><tspan class="cls-47" x="0" y="0">FOOFESTI</tspan><tspan class="cls-17" x="300.18" y="0">V</tspan><tspan class="cls-47" x="341.79" y="0">AL</tspan></text>
    <text class="cls-37" transform="translate(103.41 75.38)"><tspan class="cls-47" x="0" y="0">FOOFESTI</tspan><tspan class="cls-17" x="300.18" y="0">V</tspan><tspan class="cls-47" x="341.79" y="0">AL</tspan></text>
  </g>
  <text class="cls-22" transform="translate(182.41 164.48)"><tspan class="cls-26" x="0" y="0">mus</tspan><tspan class="cls-46" x="65.32" y="0">i</tspan><tspan class="cls-38" x="79.91" y="0">c </tspan><tspan class="cls-28" x="111.26" y="0">f</tspan><tspan class="cls-38" x="127.22" y="0">est</tspan><tspan class="cls-27" x="179.02" y="0">i</tspan><tspan class="cls-25" x="192.32" y="0">v</tspan><tspan class="cls-26" x="212.42" y="0">al</tspan></text>
  <g class="cls-39">
    <g>
      <g>
        <rect class="cls-16" x="555" y="11.5" width="15" height="21.25"/>
        <rect class="cls-48" x="561.5" y="12.68" width="2" height="5.66"/>
        <rect class="cls-48" x="561.5" y="20.7" width="2" height="2.83"/>
        <rect class="cls-48" x="561.5" y="25.89" width="2" height="5.66"/>
      </g>
      <g>
        <rect class="cls-16" x="555" y="32.75" width="15" height="21.25"/>
        <rect class="cls-48" x="561.5" y="33.93" width="2" height="5.66"/>
        <rect class="cls-48" x="561.5" y="41.95" width="2" height="2.83"/>
        <rect class="cls-48" x="561.5" y="47.14" width="2" height="5.66"/>
      </g>
      <g>
        <rect class="cls-16" x="555" y="54" width="15" height="21.25"/>
        <rect class="cls-48" x="561.5" y="55.18" width="2" height="5.66"/>
        <rect class="cls-48" x="561.5" y="63.2" width="2" height="2.83"/>
        <rect class="cls-48" x="561.5" y="68.39" width="2" height="5.66"/>
      </g>
      <g>
        <rect class="cls-16" x="555" y="75.25" width="15" height="21.25"/>
        <rect class="cls-48" x="561.5" y="76.43" width="2" height="5.66"/>
        <rect class="cls-48" x="561.5" y="84.45" width="2" height="2.83"/>
        <rect class="cls-48" x="561.5" y="89.64" width="2" height="5.66"/>
      </g>
      <g>
        <rect class="cls-16" x="555" y="96.5" width="15" height="21.25"/>
        <rect class="cls-48" x="561.5" y="97.68" width="2" height="5.66"/>
        <rect class="cls-48" x="561.5" y="105.7" width="2" height="2.83"/>
        <rect class="cls-48" x="561.5" y="110.89" width="2" height="5.66"/>
      </g>
      <g>
        <rect class="cls-16" x="555" y="117.75" width="15" height="21.25"/>
        <rect class="cls-48" x="561.5" y="118.93" width="2" height="5.66"/>
        <rect class="cls-48" x="561.5" y="126.95" width="2" height="2.83"/>
        <rect class="cls-48" x="561.5" y="132.14" width="2" height="5.66"/>
      </g>
      <g>
        <rect class="cls-16" x="555" y="139" width="15" height="21.25"/>
        <rect class="cls-48" x="561.5" y="140.18" width="2" height="5.66"/>
        <rect class="cls-48" x="561.5" y="148.2" width="2" height="2.83"/>
        <rect class="cls-48" x="561.5" y="153.39" width="2" height="5.66"/>
      </g>
      <g>
        <rect class="cls-16" x="555" y="160.25" width="15" height="21.25"/>
        <rect class="cls-48" x="561.5" y="161.43" width="2" height="5.66"/>
        <rect class="cls-48" x="561.5" y="169.45" width="2" height="2.83"/>
        <rect class="cls-48" x="561.5" y="174.64" width="2" height="5.66"/>
      </g>
    </g>
  </g>
</svg>