<svg xmlns="http://www.w3.org/2000/svg" xmlns:xlink="http://www.w3.org/1999/xlink" width="2664" height="1011" viewBox="0 0 2664 1011"><defs><clipPath id="b"><rect width="2664" height="1011"/></clipPath></defs><g id="a" clip-path="url(#b)"><rect width="2664" height="1011" fill="#fff"/><path d="M2460.928,882.648H25.152C11.268,882.648,0,875.108,0,865.817V66.161C0,56.87,11.268,49.33,25.152,49.33H2460.928c13.884,0,25.152,7.54,25.152,16.831V865.817C2486.08,875.116,2474.812,882.648,2460.928,882.648Zm-580.151-33.662h555V82.992h-555V166.2c0,9.291-11.268,16.831-25.152,16.831s-25.152-7.54-25.152-16.831V82.992H50.3V848.986H1830.472v-97c0-9.291,11.268-16.831,25.152-16.831s25.152,7.54,25.152,16.831ZM981.569,785.18a35.906,35.906,0,0,1-10.1-1.431c-12.727-3.736-18.512-13.667-12.916-22.175l85.971-131.029H981.582c-13.884,0-25.152-7.54-25.152-16.831s11.268-16.831,25.152-16.831h101.452c8.5,0,16.424,2.87,21.065,7.624s5.383,10.763,1.962,15.964L1004.609,775.1C1000.471,781.418,991.24,785.18,981.569,785.18Zm-83.908-.009c-13.884,0-25.152-7.54-25.152-16.831V613.714c0-9.291,11.268-16.831,25.152-16.831s25.152,7.54,25.152,16.831V768.34C922.813,777.639,911.545,785.171,897.661,785.171Zm-682.043,0H196.037c-13.884,0-25.152-7.54-25.152-16.831s11.268-16.831,25.152-16.831h19.581c22.147,0,40.156-12.051,40.156-26.862s-18.022-26.862-40.156-26.862H196.037c-13.884,0-25.152-7.54-25.152-16.831V613.723c0-9.291,11.268-16.831,25.152-16.831h84.889c13.884,0,25.152,7.54,25.152,16.831s-11.268,16.831-25.152,16.831H221.189v33.687c47.3,1.927,84.889,28.284,84.889,60.415C306.079,758.015,265.5,785.171,215.618,785.171Zm2060.7-10.225c-13.884,0-25.152-7.54-25.152-16.831V745c0-14.82-18.009-26.862-40.143-26.862s-40.143,12.051-40.143,26.862v13.111c0,9.291-11.268,16.831-25.152,16.831H2045.261c-13.884,0-25.152-7.54-25.152-16.831v-56.8c0-9.291,11.268-16.831,25.152-16.831s25.152,7.54,25.152,16.831v39.974h50.343c2.88-31.651,42.269-56.8,90.284-56.8,49.877,0,90.448,27.157,90.448,60.524v13.111C2301.475,767.415,2290.206,774.947,2276.322,774.947Zm-420.7-77.549c-13.884,0-25.152-7.54-25.152-16.831V580.524c0-9.291,11.268-16.831,25.152-16.831s25.152,7.54,25.152,16.831V680.567C1880.777,689.866,1869.509,697.4,1855.625,697.4Zm0-171.457c-13.884,0-25.152-7.54-25.152-16.831V409.075c0-9.291,11.268-16.831,25.152-16.831s25.152,7.54,25.152,16.831V509.118C1880.777,518.409,1869.509,525.941,1855.625,525.941ZM311.926,480.6c-13.884,0-25.14-7.532-25.152-16.814l-.289-257.48-90.423.042h-.025c-13.884,0-25.14-7.532-25.152-16.814-.013-9.3,11.243-16.839,25.127-16.848l115.575-.059h0l115.575-.059h.025c13.884,0,25.14,7.532,25.152,16.814.013,9.3-11.243,16.839-25.127,16.848l-90.423.042.277,257.48c.013,9.3-11.243,16.839-25.127,16.848Zm206.035-.1c-13.884,0-25.14-7.532-25.152-16.814l-.3-274.311c-.013-9.3,11.243-16.839,25.127-16.848h.025c13.884,0,25.14,7.532,25.152,16.814l.3,274.311c.013,9.3-11.243,16.839-25.127,16.848Zm108.884-.059h0c-13.834,0-25.039-7.465-25.152-16.7v-.118l-.3-274.311v-.059h0c.038-9.257,11.231-16.755,25.052-16.789-.013-.008.05-.008.076,0h.013l174.771-.084h.013c13.884,0,25.14,7.532,25.152,16.814l.05,43.786c.013,9.3-11.243,16.839-25.127,16.848h-.025c-13.884,0-25.14-7.532-25.152-16.814l-.025-26.963-124.466.067.264,240.649,124.466-.067-.025-21.266c-.013-9.291,11.243-16.839,25.127-16.848h.025c13.884,0,25.14,7.532,25.152,16.814l.05,38.105c0,4.46-2.641,8.752-7.357,11.908a32.455,32.455,0,0,1-17.783,4.94l-174.8.084h0Zm270.815-.135c-13.884,0-25.14-7.532-25.152-16.814L872.358,326.7c-.013-.244-.013-.5-.013-.749l-.151-136.777c-.013-9.3,11.243-16.839,25.127-16.848h.025c13.884,0,25.14,7.532,25.152,16.814l.113,93.454,141.444-104.815c9.281-6.884,25.19-7.456,35.528-1.212,10.3,6.227,11.117,16.873,1.811,23.774L931.415,326.309l170.269,125.778c9.319,6.884,8.539,17.538-1.761,23.774s-26.221,5.706-35.528-1.178L922.7,370.019l.113,93.446c.013,9.3-11.243,16.839-25.127,16.848A.05.05,0,0,0,897.661,480.3Zm290.346-.143h0c-13.859,0-25.089-7.5-25.152-16.755v-.067L1162.7,326.25v-.126l-.151-137.1h0c0-9.291,11.256-16.831,25.14-16.839l174.758-.084h.013c13.884,0,25.14,7.532,25.152,16.823s-11.243,16.831-25.14,16.839l-149.606.076L1213,309.335l149.619-.076h.013c13.884,0,25.14,7.532,25.152,16.823s-11.243,16.831-25.14,16.839L1213.021,343l.126,103.494,149.619-.076h.013c13.884,0,25.14,7.532,25.152,16.823s-11.243,16.831-25.14,16.839l-174.784.084Zm375.235-.185c-13.884,0-25.14-7.532-25.152-16.814l-.277-257.48-90.423.042h-.025c-13.884,0-25.14-7.532-25.152-16.814-.013-9.3,11.243-16.839,25.127-16.848l231.175-.118h.025c13.884,0,25.14,7.532,25.152,16.814.013,9.3-11.243,16.839-25.127,16.848l-90.435.042.277,257.48c.013,9.3-11.243,16.839-25.127,16.848Zm292.383-125.492c-13.884,0-25.152-7.54-25.152-16.831V237.618c0-9.291,11.268-16.831,25.152-16.831s25.152,7.54,25.152,16.831V337.661C1880.777,346.952,1869.509,354.484,1855.625,354.484Zm420.7-49.037H2045.248c-13.884,0-25.152-7.54-25.152-16.831s11.268-16.831,25.152-16.831h231.074c13.884,0,25.152,7.54,25.152,16.831S2290.206,305.447,2276.322,305.447Zm-.013-56.148a35.908,35.908,0,0,1-10.1-1.431L2070.4,190.34v42.119c0,9.291-11.268,16.831-25.152,16.831s-25.152-7.54-25.152-16.831V164.572c0-5.689,4.289-10.991,11.394-14.1a35.941,35.941,0,0,1,23.857-1.313l231.074,67.888c12.727,3.737,18.512,13.667,12.916,22.175C2295.212,245.537,2285.981,249.3,2276.31,249.3Z" transform="translate(88.96 39.511)"/></g></svg>