<?xml version="1.0" encoding="UTF-8"?><svg id="m" xmlns="http://www.w3.org/2000/svg" viewBox="0 0 72.942 70.813"><defs><style>.n{fill:#55b1a4;stroke:#312f30;stroke-miterlimit:10;stroke-width:2px;}.o{fill:#e79da9;}.p{fill:#35a293;opacity:.67;}.q{fill:#f6e1ce;}.r{fill:#2b729b;}.s{fill:#efb541;}.t{fill:#b600e8;}.u{fill:#4d89ab;opacity:.41;}.v{fill:#312f30;}</style></defs><path class="n" d="M71.942,55.458V8.343c0-4.055-3.288-7.343-7.343-7.343H8.343C4.288,1,1,4.288,1,8.343V62.47c0,4.055,3.288,7.343,7.343,7.343H60.763c.828,0,1.605-.395,2.093-1.064l8.587-11.763c.324-.444,.498-.979,.498-1.528Z"/><path class="v" d="M60.473,69.298c-.154-1.591-.305-3.185-.337-4.784-.014-.704-.004-1.41,.053-2.112,.013-.155,.03-.309,.045-.463,.038-.392-.046,.219,.022-.161,.054-.303,.108-.604,.184-.902,.068-.268,.156-.528,.244-.789,.13-.386-.074,.11,.039-.105,.076-.145,.142-.296,.221-.439,.127-.228,.271-.441,.423-.652-.192,.266-.029,.044,.076-.071,.099-.109,.203-.215,.311-.316,.098-.092,.202-.175,.303-.263,.151-.132-.232,.155-.059,.049,.059-.036,.112-.082,.171-.119,.264-.162,.526-.316,.803-.456,.363-.183-.06,.007,.174-.079,.153-.056,.305-.113,.459-.164,.376-.123,.76-.221,1.147-.301,.235-.048,.471-.09,.708-.125,.039-.006,.29-.036,.051-.007,.13-.016,.26-.029,.39-.042,.534-.052,1.07-.079,1.607-.09,1.286-.025,2.572,.051,3.852,.169,.808,.075,1.5-.743,1.5-1.5,0-.874-.69-1.425-1.5-1.5-3.718-.344-8.204-.505-11.304,1.949-2.299,1.82-2.882,4.81-2.924,7.592-.029,1.898,.158,3.795,.34,5.681,.078,.806,.634,1.5,1.5,1.5,.751,0,1.578-.689,1.5-1.5h0Z"/><path class="p" d="M1,8.343V62.47c0,4.055,3.288,7.343,7.343,7.343,0,0,53.13,.374,53.618-.294,0,0-51.785-6.098-42.269-28.449C31.928,12.326,1,6.579,1,8.343Z"/><path class="u" d="M71.942,55.458V8.343c-.321-2.909-2.346-6.841-6.305-7.086-6.551-.405-15.119,.045-27.157-.061,0,0,29.551,10.163,14.229,28.334-13.586,16.112,19.233,26.477,19.233,25.928Z"/><circle class="r" cx="24.148" cy="23.951" r="5.846"/><path class="r" d="M9.527,57.3l3.512,5.68c.296,.479-.037,1.099-.6,1.116l-6.675,.201c-.563,.017-.933-.582-.666-1.078l3.163-5.881c.267-.496,.97-.517,1.266-.038Z"/><path class="r" d="M61.565,8.352l2.529,4.09c.515,.832-.065,1.909-1.043,1.939l-4.806,.145c-.978,.029-1.621-1.011-1.158-1.872l2.278-4.235c.463-.862,1.686-.899,2.2-.066Z"/><path class="r" d="M56.533,7.493l2.447,4.165c.658,1.12-.124,2.536-1.423,2.575l-4.64,.14c-1.299,.039-2.165-1.327-1.575-2.485l2.192-4.305c.613-1.203,2.313-1.255,2.998-.09Z"/><path class="o" d="M46.103,49.852l5.234,8.465c1.006,1.627-.127,3.732-2.038,3.79l-9.948,.3c-1.912,.058-3.169-1.976-2.263-3.66l4.714-8.765c.906-1.684,3.295-1.756,4.301-.13Z"/><g><path class="q" d="M9.353,11.613c-.112,0-.173-.117-.267-.159-.079-.035-.196-.037-.279-.029-.283,.025-.542,.326-.51,.617,.036,.336,.415,.424,.684,.367,.173-.037,.373-.125,.484-.273,.088-.117,.079-.274-.124-.215-.217,.063-.269,.437-.227,.633,.08,.377,.537,.4,.851,.408,.369,.01,.772-.009,1.032-.298,.095-.106,.12-.165,.126-.314,.005-.131-.032-.387-.195-.442-.321-.107-.052,.559-.005,.647,.091,.17,.266,.453,.461,.52,.249,.086,.6,.057,.853,.019,.271-.041,.751-.206,.879-.49,.085-.187,.088-.518,.017-.71-.033-.09-.169-.297-.284-.305-.106-.007-.131,.155-.129,.23,.005,.215,.162,.396,.32,.521,.273,.216,.549,.342,.896,.385,.518,.065,1.091,.051,1.6-.071,.175-.042,.414-.14,.489-.321,.12-.289,.046-.682-.001-.982-.076-.48-.367-1.052-.921-.993-.142,.015-.263,.019-.336,.158-.06,.115-.098,.424-.038,.536,.058,.11,.184,.147,.293,.079,.178-.11,.248-.408,.274-.589,.087-.611-.442-1.005-1.006-.939-.242,.028-.589,.101-.782,.266-.089,.076-.15,.203-.176,.316-.027,.116,.055,.345-.052,.401-.223-.121-.384-.323-.61-.432-.239-.115-.477-.199-.746-.18-.196,.014-.399,.051-.545,.19-.149,.143-.16,.267-.15,.46-.13,.052-.39-.271-.467-.363-.126-.15-.193-.233-.401-.169-.241,.075-.436,.227-.49,.48-.019,.09,0,.48-.076,.52-.129-.046-.187-.148-.31-.024-.122,.122-.107,.228-.112,.387-.006,.191-.13,.497,.083,.632,.028-.129-.304-.278-.38-.338-.078-.061-.25-.218-.297-.02,.027,.049,.068,.081,.122,.096-.011-.037-.038-.058-.081-.062-.127,.077,.054,.324,.108,.394,.122,.158,.22,.144,.398,.084,.167-.056,.356-.159,.475-.294,.066-.075,.177-.263,.147-.37-.097-.067-.223,.11-.21,.2,.022,.156,.24,.205,.354,.162,.197-.075,.289-.281,.321-.475,.01-.062,.031-.136-.005-.192-.03-.047-.09-.093-.125-.023,.187,.102,.159-.185,.146-.275-.021-.147-.079-.404-.214-.488-.071,.179-.161,.919,.101,.98,.138,.032,.259-.264,.283-.37,.012-.05,.036-.21,.017-.274-.029-.095-.044-.094-.148-.103-.268-.022-.518,.206-.675,.397-.103,.126-.28,.39-.227,.571,.038,.131,.118,.185,.245,.177,.248-.017,.349-.235,.33-.465-.038-.461-.408-.294-.597-.045-.31,.408-.163,1.126,.417,1.135,.395,.006,.631-.444,.389-.752-.114-.146-.212-.063-.333,.042-.138,.12-.468,.437-.418,.654,.034,.147,.311,.08,.414,.03,.163-.079,.326-.253,.339-.438,.015-.207-.021-.512-.176-.663-.174-.17-.447-.025-.573,.149-.104,.145-.044,.323,.053,.446,.196,.249,.558,.274,.846,.286,.393,.016,.766-.019,.988-.385,.063-.105,.331-.615,.097-.605-.193,.008-.266,.338-.311,.478-.083,.259-.143,.555,.03,.793,.149,.206,.377-.014,.486-.162,.085-.115,.131-.23,.162-.371,.013-.059,.052-.415-.02-.496-.243-.276-.674,.503-.701,.668-.028,.173,.002,.313,.187,.339,.127,.018,.29,.026,.402-.048,.192-.126,.153-.312,.028-.472-.12-.154-.237-.234-.41-.108-.155,.113-.236,.436-.178,.621,.065,.207,.26,.261,.451,.27,.229,.011,.519,.035,.665-.176,.124-.177-.01-.451-.169-.577-.139-.111-.455,.042-.592,.122-.152,.088-.205,.248-.342,.342-.292-.2-.459-.564-.611-.874-.044-.09-.135-.348-.296-.267-.132,.067-.135,.29-.122,.409,.01,.088,.019,.214,.109,.262,.17,.09,.423-.131,.537-.229,.2-.17,.391-.374,.499-.618,.068-.153,.152-.392,.074-.55-.244,.168,.02,.646,.193,.749,.179,.106,.45,.005,.601-.105,.194-.143,.247-.355,.279-.584-.244-.254-1.408,.356-1.136,.641,.251,.262,.77-.815,.252-.485-.163,.103-.172,.207,.015,.269,.176,.058,.421,.008,.608,0,.105-.005,.22,0,.321-.038,.112-.042,.302-.181,.361-.285,.056-.099,.041-.296,.04-.402-.004-.598-.774-.782-1.261-.703-.149,.024-.195,.084-.295,.188-.101,.105-.237,.163-.289,.308-.049,.137-.043,.297-.024,.439,.021,.157,.114,.426,.051,.574-.113,.094-.186-.141-.22-.212-.07-.146-.092-.257-.211-.38-.113-.117-.236-.287-.37-.372-.124-.078-.325-.178-.47-.21-.257-.057-.77-.06-.879,.243-.059,.164-.052,.365-.034,.534,.015,.139,.011,.205,.127,.318,.117,.114,.322,.281,.479,.309-.209-.285-.459-.592-.448-.973,.013-.441,.586-.225,.814-.125,.2,.088,.27,.143,.391,.328,.098,.15,.15,.325,.254,.468,.082,.113,.271,.268,.343,.067,.048-.135-.055-.294-.097-.418-.056-.169-.011-.301-.016-.467-.003-.107-.035-.157,.011-.258,.062-.136,.181-.229,.272-.344,.153-.194,.25-.268,.491-.342,.307-.095,.774,.311,.948,.546,.094,.127,.176,.28,.232,.426,.049,.127,.157,.408,.106,.545-.184-.238-.363-.48-.389-.784-.025-.293,.228-.593,.525-.617,.407-.033,.704,.338,.783,.7,.052,.239,.07,.489,.055,.732-.007,.123,.019,.38-.055,.474"/><path class="q" d="M9.652,10.528l.295,.173c-.082-.073-.168-.139-.26-.197-.108-.064-.225-.114-.346-.147-.262-.072-.567-.08-.832-.017-.473,.113-.892,.418-1.127,.85-.582,1.07,.176,2.336,1.385,2.356,1.024,.017,2.278-.912,1.76-2.043-.302-.66-1.114-.908-1.753-.555-.463,.256-.707,.705-.772,1.217-.137,1.085,.64,1.797,1.666,1.9,.879,.088,1.861-.1,2.36-.908,.563-.911,.008-2.387-1.156-2.387-1.076,0-1.394,1.121-1.082,1.971,.318,.865,.955,1.467,1.907,1.511,.764,.036,1.647-.198,2.172-.779,.663-.735,.56-1.997-.153-2.655-.566-.522-1.484-.444-1.903,.224-.288,.458-.274,1.078-.013,1.547,.481,.867,1.466,1.219,2.4,1.286,.84,.06,1.958-.008,2.572-.663,.676-.722,.499-2.014,.108-2.839-.399-.841-1.304-1.324-2.223-1.077-1.217,.326-1.502,2.22-.368,2.835,1.348,.731,2.313-.939,2.098-2.093-.181-.973-1.129-1.622-2.097-1.559-.517,.034-1.058,.177-1.464,.508-.229,.186-.386,.406-.497,.68-.056,.139-.08,.222-.103,.371-.005,.033-.044,.546,.012,.199l.289-.496-.044,.052,1.363-.176c-.241-.15-.618-.453-.999-.6-.333-.129-.687-.185-1.044-.154-.961,.085-1.73,.746-1.702,1.764l1.125-1.125,.573,.23-.06-.057c-.03-.042-.074-.079-.109-.117-.07-.078-.133-.16-.211-.231-.447-.414-1.054-.452-1.595-.222-.431,.183-.77,.5-.953,.935-.084,.201-.119,.397-.136,.616-.004,.05-.011,.106-.007,.156,.012,.146,.058-.225,.003-.045l.289-.496-.024,.03,1.363-.176c-.45-.212-.898-.348-1.364-.079-.396,.229-.644,.612-.719,1.056-.009,.056-.029,.584-.011,.218-.008,.159-.06,.316-.061,.476-.003,.411,.143,.813,.453,1.091,.34,.304,.799,.422,1.229,.233,.375-.165,.738-.585,.692-1.028-.04-.382-.142-.672-.417-.943-.091-.09-.241-.191-.359-.267-.084-.054-.242-.186,.021,.04-.6-.517-1.632-.59-2.019,.244-.23,.496-.172,.947,.176,1.363,.093,.111,.22,.208,.349,.272,.452,.224,.993,.195,1.363-.176,.34-.34,.448-.949,.176-1.363-.198-.302-.42-.461-.754-.579-.336-.12-.869,0-1.095,.289-.398,.51-.49,1.071-.148,1.641,.273,.455,.719,.799,1.268,.799,.939,0,1.966-.853,1.928-1.83-.018-.475-.335-.976-.826-1.085-.808-.179-1.598,.37-1.626,1.223-.025,.759,.624,1.36,1.37,1.362,.697,.002,1.278-.517,1.469-1.169,.227-.777-.061-1.501-.837-1.78-.389-.14-.804,.037-1.095,.289l-.041,.035c-.671,.583-.257,1.64,.496,1.88,.825,.263,1.559-.401,1.578-1.215,.012-.503-.172-1.087-.551-1.428-.647-.583-1.604-.325-1.88,.496-.316,.939-.017,2.411,1.214,2.401,1.455-.011,2.016-2.528,.501-2.945-1.228-.338-2.708,1.094-2.364,2.343,.204,.739,.99,1.164,1.726,.944,.783-.234,1.179-1.055,1.018-1.83-.132-.635-.652-1.13-1.327-1.115-.603,.013-1.139,.43-1.414,.947-.584,1.101,.062,2.611,1.382,2.674,1.433,.069,2.294-1.737,1.194-2.735-1.191-1.08-3.152,.834-2.435,2.129,.328,.592,1.018,.746,1.631,.569,.717-.207,1.224-.899,1.222-1.639-.001-.618-.252-1.281-.816-1.594-.71-.394-1.622-.062-2.032,.607s-.162,1.501,.414,1.972c.452,.369,1.045,.463,1.616,.455,.588-.008,1.152-.186,1.56-.625,.32-.344,.587-.888,.583-1.363-.006-.799-.717-1.411-1.517-1.214-.616,.152-.93,.693-1.097,1.264-.188,.642-.168,1.374,.319,1.888,.581,.613,1.472,.473,2.023-.096,.745-.768,.892-2.531-.387-2.87-1.021-.271-1.996,.849-2.038,1.808-.039,.901,.639,1.495,1.518,1.475,.911-.021,1.669-.866,1.399-1.789-.252-.859-1.211-1.445-2.056-.998-.664,.351-1.006,1.223-.793,1.943,.476,1.603,3.402,1.446,3.374-.375-.012-.8-.66-1.587-1.496-1.571-.318,.006-.665,.119-.937,.276-.259,.15-.42,.368-.638,.555l1.363-.176c.041,.031,.088,.043,.106,.099-.019-.061-.084-.129-.117-.185-.072-.125-.132-.256-.197-.384-.215-.426-.554-.753-1.043-.819-1.113-.15-1.664,1.039-1.407,1.974,.15,.545,.676,.967,1.247,.963,.472-.004,.849-.241,1.199-.531,.66-.547,1.163-1.438,.919-2.31-.23-.822-1.275-1.087-1.88-.496-.78,.761-.383,2.143,.555,2.573,1.054,.483,2.224-.346,2.398-1.418,.06-.371,.039-.834-.289-1.095-.622-.494-1.3-.451-1.989-.124-.557,.264-1.116,.785-1.108,1.451,.012,.967,1.069,1.585,1.913,1.096,.54-.313,.908-1,.83-1.618-.138-1.092-1.443-1.309-2.161-.618-.402,.387-.548,1.007-.255,1.51,.286,.489,.862,.693,1.405,.673,.403-.015,.831-.032,1.197-.215,.405-.203,.767-.558,.893-1.002,.227-.803-.068-1.71-.791-2.15-.679-.413-1.716-.522-2.377-.028-.367,.274-.711,.616-.835,1.07-.061,.224-.072,.456-.051,.685,.012,.126,.026,.262,.056,.386,.045,.191,.013-.016,.036-.111l.786-.786-.053,.022h.598l-.046-.019,.496,.289c.22,.257,.05-.004,.01-.09-.087-.188-.206-.346-.341-.504-.199-.231-.415-.442-.681-.597-.555-.325-1.251-.444-1.874-.256-.829,.252-1.187,1.025-1.119,1.843,.07,.84,.621,1.469,1.432,1.712,.428,.128,.921-.053,1.183-.403,.247-.331,.355-.887,.088-1.249-.107-.145-.195-.312-.306-.451-.117-.147,.035,.022,.005,.018,.054,.206-.083,.359-.41,.457-.099,.336-.264,.475-.496,.417-.103-.018-.106-.017-.007,.004l.071,.02c.01,.003,.132,.044,.131,.046-.026,.072-.239-.203-.071-.027,.14,.147-.024-.06-.07-.078-.044-.059-.044-.053,0,.018,.023,.038,.044,.077,.062,.118,.052,.099,.096,.197,.158,.291,.131,.2,.306,.392,.513,.516,.578,.346,1.365,.224,1.728-.376,.135-.223,.209-.483,.209-.745,0-.151-.038-.318-.087-.46-.007-.019-.068-.207-.054-.119,.014,.089,.016-.121,.016-.141-.004-.366,.034,.131-.191,.298,.101-.075,.187-.208,.269-.303l-.105,.078c.086-.046,.094-.051,.024-.015-.108,.025-.386-.028-.463,.007-.065-.031-.068-.03-.009,.002,.029,.015,.056,.032,.082,.051,.097,.078-.093-.114,.035,.038,.036,.043,.082,.079,.117,.125-.087-.113-.037-.048,0,.035-.046-.105,.019,.034,.033,.073,.071,.203-.008,.256,.062-.175l2.056-.269c-.077-.101-.158-.203-.222-.313-.079-.135-.04-.127-.032,.063,.014,.373-.498,.74-.826,.451-.067-.059-.047-.167-.07-.085-.009,.031,.027,.139,.03,.189,.008,.122-.001,.244-.003,.365-.004,.246-.107,.258,.1-.165-.268,.545-.147,1.217,.404,1.539,.496,.29,1.27,.144,1.539-.404,.57-1.162,.153-3.183-1.246-3.54-.765-.195-1.558,.143-1.947,.83-.416,.734-.148,1.579,.33,2.204,.28,.366,.632,.611,1.121,.537,.402-.06,.864-.368,.935-.806,.21-1.281-.876-2.987-2.297-2.954-.675,.016-1.17,.443-1.576,.934-.292,.354-.406,.694-.397,1.148,.004,.228-.023,.413,.03,.645,.009,.077,.031,.15,.065,.219,.05,.135,.056,.142,.017,.02l.154-.568-.045,.073,.672-.517-.058,.024h.598c.143,.052,.263,.132,.362,.241l-.06-.119c-.046-.114-.113-.219-.182-.319-.172-.252-.38-.458-.648-.607-.351-.196-.808-.344-1.213-.336-.743,.015-1.329,.57-1.375,1.31-.038,.617,.237,1.14,.592,1.62l1.27-1.653,.101,.047c-.097-.064-.115-.074-.052-.03,.045,.035,.046,.033,.002-.005-.154-.151-.098-.002,.169,.447,.003-.031,.004-.192-.013-.214,.061,.08-.36,.476-.422,.502-.087,.036-.273,.019-.095,.03,.084,.005,.218,.072,.095-.002-.197-.119,.158,.089-.053-.011,.058,.027,.127,.059,.177,.099-.16-.126,.012,.051,.038,.08,.051,.057,.111,.189,.053,.07,.059,.12,.099,.251,.168,.366,.37,.624,1.217,.818,1.793,.36,.552-.44,.468-1.055,.367-1.669,.027,.164-.026,.054,.011-.009-.354,.596-.199,.457-.043,.306,.317-.306-.31,.141-.381,.095,.027,.018,.184,.001,.212-.005,.064,.004,.059,.002-.017-.007-.09-.015-.081-.011,.027,.01,.132,.064,.03,.02-.019-.025,.158,.147-.034-.061-.053-.088-.021-.03-.142-.257-.094-.296l.002,.093c-.019,.215,.033,.155,.156-.178,.205-.265,.243-.352,.115-.262-.126,.074-.047,.055,.238-.057-.058-.019-.165,.008-.226,.012-.063,.007-.126,.012-.19,.015-.22,.002-.099,.073,.362,.214l.33,.795v-.056l-.154,.568c-.173,.246-.398,.371-.674,.375l-.568-.154,.022,.013-.404-.404s-.068-.872-.112-.697c.016-.062,.136-.255,.033-.101-.073,.109,.166-.185,.076-.096,.113-.111,.584-.302,.853-.2l.496,.289c.334,.526,.339,.955,.014,1.287,.028-.031,.057-.059,.089-.086-.139,.104-.157,.122-.054,.054,.032-.02,.065-.038,.099-.055,.076-.038,.044-.026-.097,.035,.045-.018,.091-.033,.138-.046,.124-.028,.088-.027-.107,.005,.282,.002,.093-.088-.569-.27l-.289-1.095c-.007,.045-.058,.182-.043,.221-.031-.085,.172-.249,.229-.273,.14-.083,.285-.033,.436,.15,.361,.241,.488,.284,.382,.13-.031-.054-.032-.049-.002,.015,.115,.254,.051,.518-.194,.79l-1.88-.496c.03-.278,.025-.347-.014-.206-.025,.079-.024,.076,.003-.009l-.06,.097c.047-.061,.046-.063-.005-.005-.066,.069-.137,.131-.207,.196l-.057,.048c.157-.154,.361-.19,.614-.109l.496,.289c.169,.568,.241,.724,.216,.466,.013-.265-.055-.114-.203,.453l-.496,.289,.074-.015-.867-.113c-.231-.289-.301-.349-.209-.179,.023,.051,.047,.101,.073,.151,.056,.114,.113,.228,.179,.337,.211,.351,.468,.599,.79,.847,.412,.317,1.017,.122,1.363-.176,.052-.038,.097-.083,.136-.135,.087-.09,.08-.1-.021-.03,.099-.05,.091-.051-.022-.003,.137-.04,.129-.039-.023,.002l-.568-.154c-.061-.029-.297-.306-.281-.443l.154-.568c.127-.17,.285-.268,.475-.294-.069,0-.138-.003-.206-.007,.524-.107,.885,.892,.393,1.154l-.568,.154-.133-.021-.496-.289c.174,.137-.028-.049-.038-.107v-.598c.178-.388,.43-.569,.756-.543l.496,.289,.083,.104,.154,.568c-.03-.27-.059,.182-.018,.037-.075,.17-.091,.214-.049,.131,.016-.032,.034-.064,.052-.095-.049-.057,.295-.242,.002-.022l.049-.052c-.214,.193-.482,.258-.803,.194l-.496-.289c.015,.013-.342-.868-.248-.463,.018,.075-.067,.352,.02-.098-.036,.187,.007,.015,.008,.016,.077-.085,.088-.098,.034-.041-.109,.108-.03,.06,.239-.143h.598l-.074-.02,.496,.289c.151,.152,.195,.308,.131,.467,.016-.077,.036-.154,.061-.229,.149-.508,.096,.161-.474,.307h-.598l.048,.008-.496-.289,.03,.026-.289-.496c-.042-.124,.032-.654-.041-.302,.009-.043,.087-.205,.024-.075-.05,.104-.065,.053-.004,.023,.046-.023,.182-.09,.206-.113,.068-.005,.068-.005,0-.001-.052,.004-.104,.005-.156,.004-.085,0-.171-.005-.256-.011-.082-.007-.068-.005,.042,.006l-.101-.026c.175,.093,.417,.269,.39,.511l-.154,.568c-.325,.341-.758,.258-1.301-.249-.006-.125-.006-.121,0,.011,.025-.287,.169-.464,.43-.531-.263,.067-.085,.104,.535,.112l.404,.404-.028-.051,.154,.568c-.136,.347-.151,.429-.045,.245-.06,.081-.064,.093-.014,.036,.054-.053,.248-.164,.088-.079l-.568,.154,.081,.003-.795-.33c-.131-.109-.167-.459-.129-.609l.313-.408,.306-.082c.138-.007,.315,.091,.413,.18,.038,.034,.155,.297,.12,.189-.03-.092,.005,.125,.006,.161,.004,.143,.055-.07-.01,.042-.014,.024-.14,.2-.071,.126,.045-.043,.037-.037-.024,.017-.227,.214-.529,.233-.904,.055l-.404-.404c-.261-.38,.264-1.022,.638-.997l.568,.154,.245,.232,.154,.568c.007,.063-.05,.16-.076,.217,.088-.198-.093,.063,.01-.035,.049-.047,.096-.115,.101-.108,.033,.053-.442,.061-.179,.092l-.568-.154,.042,.026-.517-.672c0-.182-.003-.225-.007-.129-.006,.096,0,.053,.018-.128l-.016,.055c.046-.16,.148-.281,.308-.363l.568-.154-.058,.005,.568,.154c.317,.562,.441,.724,.372,.487-.021-.082-.016-.042,.013,.119,.009-.063,0-.137,.001-.201,.003-.232,.02,.043-.009,.038-.004,0,.036-.143,.039-.152l-1.88,.496c-.044-.039-.142-.304-.089-.09l-.021-.169c.005,.2,.043,.088,.115-.336l.672-.517-.045,.016h.598l-.068-.022,.496,1.88,.041-.035-1.095,.289,.046,.016-.496-.289,.038,.042-.289-.496,.02,.094v-.598c-.008,.066-.02,.131-.036,.196,.155-.427,.573-.498,1.253-.212l.289,.496,.022,.168-.154,.568-.262,.252-.867,.113,.06,.013-.826-1.085c.131-.346,.148-.431,.05-.255,.219-.196,.266-.253,.14-.171-.071,.039-.066,.04,.014,.005-.059,.023-.119,.036-.182,.042h.598c.39,.388,.523,.491,.398,.309-.083-.134-.061-.031,.064,.307l-.33,.795,.04-.051-1.095,.289,.053,.019-.672-.517,.029,.044,1.539-1.539,.106,.08,.176,1.363,.033-.071-.404,.404,.048-.025-.867,.113c-.219-.036-.507-.302-.013,.029l.122,.073c.167,.114,.103,.043-.19-.214l-.154-.568,.005,.049,1.92-.795c.181,.194,.243,.401,.187,.623,.012-.078,.023-.155,.033-.233,.012-.075,.021-.15,.027-.226,.009-.208-.005-.148-.042,.181l-.404,.404,.082-.055-.568,.154,.071,.003-.568-.154c.052,.026,.105,.051,.157,.076,.414,.195,1.037,.229,1.363-.176,.277-.344,.359-.611,.389-1.037,.004-.052,.026-.18,.011-.232,.043,.153-.171,.618-.435,.587l-.568-.154c-.225-.12-.01,.022,.053,.093,.054,.06,.108,.12,.169,.174,.276,.247,.632,.463,1.018,.429,.593-.052,1.143-.473,1.125-1.125,.01-.314-.094-.167-.314,.439-.034,.027-.073,.038-.116,.035,.002-.039,.204,.036,.207,.038-.11-.063,.178,.105,.05,.025,.186,.117,.343,.279,.531,.397,.392,.244,1.052,.194,1.363-.176,.169-.201,.286-.369,.346-.628,.005-.021,.083-.393,.03-.487-.002,.229-.101,.401-.296,.516,.112-.062,.121-.066,.025-.013,.042-.013,.398-.073,.262-.059-.085,.013-.07,.017,.045,.013-.076,.008-.145-.011-.206-.058,.165,.066-.032-.061-.086-.164-.026-.083-.023-.07,.008,.037-.029-.07-.03-.141-.006-.212-.012,.064-.028,.127-.049,.19,.018-.064,.044-.124,.078-.181l.496-.289,.133-.013,.568,.154,.1,.07,.289,.496,.011,.164c.004-.107,.001-.115-.009-.026-.013,.074-.012,.081,.001,.022,.007-.034,.019-.067,.034-.099l-.289,.496c-.485,.127-.621,.183-.409,.17,.07,0,.067-.003-.007-.006-.08-.033-.175-.063-.258-.098-.109-.045-.048-.11,.008,.043,.041,.112-.021-.155,.005,.046,.01,.08,.035,.161,.048,.241,.036,.22-.036-.278,.014,.138,.022,.181-.012,.108,.151-.099,.031-.1,.09-.163,.176-.189,.069-.026,.052-.022-.053,.01-.335,.053-.687,.095-1.105,.051-.08-.008-.088-.008-.025,0l-.121-.028c-.313-.088,.037,.041-.12-.049-.045-.026-.244-.122-.109-.066l-.074-.076c.197,.221,.221,.48,.071,.777l-.672,.517,.065-.022h-.598l.071,.026-.496-.289c.146,.123-.032-.122-.067-.215-.005,.141-.003,.148,.005,.022,.038-.143,.116-.25,.233-.322-.115,.06-.117,.067-.007,.02-.061,.023-.123,.042-.186,.059-.054,.014-.109,.026-.165,.034,.131-.018,.125-.021-.016-.007-.075,.004-.15,.005-.225,.001,.127,.008,.234,.066,.322,.173-.089-.095-.098-.102-.027-.024-.035-.054-.067-.109-.097-.166,.019,.019,.057,.281,.023,.038-.014-.044-.027-.088-.037-.133,.046,.208,.01,.408-.108,.601l-.404,.404-.197,.084h-.598c-.397-.784-.589-1.007-.575-.669-.001,.211,.067,.062,.204-.444,.007-.031,.106-.043,.128-.057-.12,.026-.142,.034-.066,.024,.077-.008,.052-.007-.073,.002-.088-.002-.176,.001-.265-.002-.071-.003-.143-.004-.214-.013,.259,.035-.124-.11,.18,.073,.361,.217,.492,.769,.017,.997l-.568,.154,.099-.011-.568-.154,.058,.028-.517-.672,.02,.055v-.598c.056-.223,.174-.356,.355-.398-.149,.037-.141,.038,.022,.004,.153,.003,.284,.065,.395,.185,.257,.287,.299,.548,.126,.786-.178,.28-.65,.449-.915,.075,.123,.174,.446,.306,.637,.353,.589,.146,1.22-.189,1.384-.786,.158-.576-.194-1.237-.786-1.384h0Z"/></g><rect class="s" x="5.017" y="29.797" width="4.06" height="9.118" rx="1.22" ry="1.22"/><rect class="t" x="60.935" y="28.118" width="4.06" height="9.118" rx=".831" ry=".831" transform="translate(-7.903 35.861) rotate(-30)"/><rect class="o" x="21.614" y="54.8" width="4.06" height="9.118" rx="1.538" ry="1.538" transform="translate(-39.598 68.467) rotate(-76.476)"/></svg>