<?xml version="1.0" encoding="UTF-8"?>
<svg id="m" data-name="Layer 13" xmlns="http://www.w3.org/2000/svg" viewBox="0 0 61.1353 57.5">
  <defs>
    <style>
      .av, .aw {
        fill: #fff;
      }

      .aw {
        stroke: #b600e8;
        stroke-width: 2px;
      }

      .ax {
        fill: #b600e8;
      }
    </style>
  </defs>
  <g id="o" data-name="testflowerface" transform="translate(0.516 0.5)">
    <g id="p" data-name="Group 1662" transform="translate(0)">
      <g id="q" data-name="Group 1652" transform="translate(18.58)">
        <path id="r" data-name="Path 1432" class="aw" d="M26.9568,23.2426c-4.485,0-5.809-4.923-6.783-9.971-1.062-5.498-1.826-9.468,5.262-11.559,6.1296-2.3806,8.0255,2.1361,6.8193,8.4224-.5259,5.246,2.8939,13.2681-5.3033,13.1036l.005,.004Z"/>
      </g>
      <g id="s" data-name="Group 1653" transform="translate(28.868 0.701)">
        <path id="t" data-name="Path 1434" class="aw" d="M35.0038,22.6396c-9.8364-1.4098-4.7112-21.3211,5.34-20.7975,6.076,.4261,9.4418,8.2203,5.4585,11.2499-3.2275,5.0478-7.9866,9.9298-10.7985,9.5476Z"/>
      </g>
      <g id="u" data-name="Group 1654" transform="translate(5.981 4.853)">
        <path id="v" data-name="Path 1436" class="aw" d="M21.2108,26.5856c-3.1252-.308-6.2146-3.889-9.4841-4.7297-2.2419-.7033-3.9701-2.502-4.5829-4.7703C4.6201,7.3526,19.9054,.3917,21.3121,13.2233c.1889,5.6869,9.9235,10.8515-.1033,13.3693l.002-.007Z"/>
      </g>
      <g id="w" data-name="Group 1655" transform="translate(14.981 34.697)">
        <path id="x" data-name="Path 1438" class="aw" d="M23.8808,56.7616c-13.5142-.8267-7.7465-20.9312,3.1801-20.9308,13.0008,.4019,5.1023,21.2466-3.1851,20.9308h.005Z"/>
      </g>
      <g id="y" data-name="Group 1656" transform="translate(26.717 36.091)">
        <path id="z" data-name="Path 1440" class="aw" d="M35.5098,56.6996c-4.923,0-5.392-1.549-6.787-6.159-1.9006-5.1465-1.7635-13.0911,5.0944-13.316,4.2526,0,6.7336,5.879,8.3766,9.765,3.1612,5.82-.0358,10.4907-6.689,9.713l.005-.003Z"/>
      </g>
      <g id="aa" data-name="Group 1657" transform="translate(0 18.243)">
        <path id="ab" data-name="Path 1442" class="aw" d="M7.6618,35.3886c-8.4261-.1649-9.0024-16.1554-.6547-16.0081,3.8696,.0966,6.7468,3.1763,10.4968,3.8509,3.8999,1.1842,6.0609,2.0152,5.2309,5.3432-1.364,5.9112-9.6097,5.7696-15.072,6.809l-.001,.005Z"/>
      </g>
      <g id="ac" data-name="Group 1658" transform="translate(33.292 9.74)">
        <path id="ad" data-name="Path 1444" class="aw" d="M41.4658,28.6306c-9.3963-1.0885-9.3548-10.3525-.2094-14.0242,6.8942-6.3195,17.9394-4.0003,16.5189,7.2093-.7435,1.3829-2.6215,1.9259-4.7935,2.5529-4.1324,.7331-7.1785,4.3448-11.516,4.262Z"/>
      </g>
      <g id="ae" data-name="Group 1659" transform="translate(37.335 24.189)">
        <path id="af" data-name="Path 1446" class="aw" d="M54.3458,39.0326c-5.9399-.858-15.5682-.8274-16.037-7.7356-.6727-6.6149,9.5311-4.962,14.0707-5.978,9.3634-1.5972,10.8847,14.3289,1.9663,13.7176v-.004Z"/>
      </g>
      <g id="ag" data-name="Group 1660" transform="translate(35.757 31.095)">
        <path id="ah" data-name="Path 1448" class="aw" d="M47.8208,52.3116c-6.0563-1.0941-16.8314-17.1952-7.964-20.0827,4.9708,1.059,14.0499,4.4278,16.2947,9.5777,1.1906,3.5165-5.991,11.0395-8.3307,10.505Z"/>
      </g>
      <g id="ai" data-name="Group 1661" transform="translate(3.346 29.672)">
        <path id="aj" data-name="Path 1450" class="aw" d="M12.6128,49.1936c-8.1944,.252-12.0881-13.959-3.3807-15.4739,4.7726,.3641,8.7576-2.6063,13.4186-2.8992,8.6247,1.3963,1.788,11.5288-2.9686,13.0931-2.6604,1.275-4.0216,5.1895-7.0693,5.2899v-.01Z"/>
      </g>
    </g>
    <g id="ak" data-name="Group 1665" transform="translate(14.888 13.941)">
      <g id="al" data-name="Ellipse 404">
        <path class="av" d="M30.4658,44.3206c-9.8242-.0459-14.2988-7.5957-14.2979-14.5918,0-6.9961,4.4756-14.5449,14.3018-14.5879,9.8232,.0439,14.2988,7.5947,14.2979,14.5918,0,6.9951-4.4766,14.5439-14.3018,14.5879Z"/>
        <path class="ax" d="M30.4677,15.6404c9.4818,.0454,13.8008,7.3359,13.8003,14.0918-.0006,6.7563-4.3209,14.0469-13.7966,14.0884-9.4849-.0425-13.8044-7.3345-13.804-14.0918,.0006-6.7549,4.3198-14.0444,13.8003-14.0884m.0001-1c-19.7328,.0859-19.7345,30.0913-.001,30.1802,19.7338-.0859,19.7355-30.0913,.001-30.1802h0Z"/>
      </g>
      <g id="am" data-name="Group 1704" transform="translate(7.908 9.964)">
        <g id="an" data-name="Group 1663" transform="translate(0 8.887)">
          <path id="ao" data-name="Path 1452" class="av" d="M23.3038,34.0056c1.9027,6.2648,12.3797,2.0253,9.0744,1.2952-5.9477,4.7124-8.7373-3.5735-9.0744-1.2962h0v.001Z"/>
          <path id="ap" data-name="Path 1453" class="av" d="M31.8278,34.4336c.6229,2.9006,4.9299,1.0262,2.316,.8-.127,.0258-.2613,.0113-.39,.004l.053,.007c-.0826,.0105-.4945-.1375-.382-.095-.3614-.1399-.6243-.4794-.716-.678-.0071-.6733-.987-.7808-.894-.038h.013Z"/>
        </g>
        <path id="aq" data-name="Path 1454" class="av" d="M26.2778,27.2646c-.4887,2.9232-3.3448,2.2497-2.6629-.5182,.3088-3.1037,3.5389-2.4694,2.6669,.5182h-.004Z"/>
        <g id="ar" data-name="Group 1664" transform="translate(8.836 2.158)">
          <path id="as" data-name="Path 1455" class="av" d="M32.8398,28.9886c1.356-1.051,4-.522,4.425,1.268,.126,.526,.939,.3,.809-.224-.6255-4.1259-8.2983-1.5418-5.234-1.044Z"/>
          <path id="at" data-name="Path 1456" class="av" d="M32.9628,28.7816c.7936-1.1565,2.3405-1.5128,3.56-.82,2.5549-.8601-3.4096-2.1189-4.2887,.3966-.3003,.4514,.4237,.8714,.7247,.4234h.004Z"/>
          <path id="au" data-name="Path 1457" class="av" d="M32.5448,29.1706c1.5402-.5728,2.6933,1.1417,3.8785,1.077,.9197-1.6553-5.7665-2.8582-3.8785-1.076v-.001Z"/>
        </g>
      </g>
    </g>
  </g>
</svg>